<svg width="130" height="25" viewBox="0 0 130 25" fill="none" xmlns="http://www.w3.org/2000/svg">
<g clip-path="url(#clip0_208_482)">
<path d="M59.7357 8.37593C59.7357 3.99659 56.8626 0.668063 50.9416 0.668063H39.0295V23.6864H44.6354V5.64282H50.9767C53.3243 5.64282 54.1646 6.97462 54.1646 8.51593C54.1646 10.0927 53.2889 11.389 50.9413 11.389H45.5108L53.2187 23.6864H59.5954C59.5954 23.6864 54.3397 15.4179 54.3751 15.4179C57.6338 14.6474 59.7357 12.37 59.7357 8.37593ZM29.64 0.668063H35.2459V23.6868H29.64V0.668063ZM15.3105 14.9976H10.593L14.0839 7.92052H14.1544L22.0023 23.6864H28.4489L16.7118 0.668063H11.737L0 23.6864H6.30623L8.20746 19.8327H17.6577L15.3105 14.9976ZM80.1977 11.7395C81.9849 10.7582 82.9308 9.18183 82.9308 6.86938C82.9308 3.1556 80.163 0.668063 75.5033 0.668063H62.399V23.6864H76.0288C80.7934 23.6864 83.9118 21.1287 83.9118 17.2399C83.9115 14.5425 82.4052 12.5104 80.1977 11.7395ZM68.0056 5.5379H75.5033C76.6246 5.5379 77.5003 6.41364 77.5003 7.57003C77.5003 8.72642 76.6246 9.60216 75.4679 9.60216H68.0052V5.5379H68.0056ZM75.643 18.8513H68.0052V14.1566H75.643C77.0095 14.1566 78.0607 15.1379 78.0607 16.4691C78.061 17.8353 77.0095 18.8513 75.643 18.8513ZM101.605 13.5261C101.605 17.02 99.9928 18.9566 96.8049 18.9566C93.6518 18.9566 92.04 17.02 92.04 13.5261V0.668063H86.2944V13.1058C86.2944 20.2182 90.0433 24.1772 96.8049 24.1772C103.567 24.1772 107.35 20.2182 107.35 13.1058V0.668063H101.605V13.5261ZM122.31 9.81233C116.989 8.51658 115.829 8.39282 115.829 6.86905C115.829 5.69025 117.16 5.11725 119.403 5.11725C122.381 5.11725 125.552 5.86435 127.356 6.9743L129.143 2.27954C126.831 1.05331 123.432 0.177246 119.473 0.177246C113.551 0.177246 110.223 3.12052 110.223 7.07922C110.223 11.339 112.709 13.0697 118.421 14.2966C122.868 15.2769 123.816 15.8886 123.816 17.1343C123.816 18.4875 122.591 19.0966 120.173 19.0966C116.67 19.0966 113.499 18.2455 110.959 16.8543L109.242 21.7592C112.01 23.2307 116.144 24.1769 120.313 24.1769C126.129 24.1769 129.597 21.4789 129.597 16.9592C129.598 13.3332 127.252 11.0038 122.31 9.81233Z" fill="black"/>
</g>
<defs>
<clipPath id="clip0_208_482">
<rect width="129.597" height="24" fill="white" transform="translate(0 0.177246)"/>
</clipPath>
</defs>
</svg>
