<svg width="130" height="24" viewBox="0 0 130 24" fill="none" xmlns="http://www.w3.org/2000/svg">
<g clip-path="url(#clip0_205_59)">
<path d="M59.7357 8.19869C59.7357 3.81934 56.8626 0.490817 50.9416 0.490817H39.0295V23.5092H44.6354V5.46558H50.9767C53.3243 5.46558 54.1646 6.79737 54.1646 8.33869C54.1646 9.91541 53.2889 11.2118 50.9413 11.2118H45.5108L53.2187 23.5092H59.5954C59.5954 23.5092 54.3397 15.2407 54.3751 15.2407C57.6338 14.4702 59.7357 12.1928 59.7357 8.19869ZM29.64 0.490817H35.2459V23.5095H29.64V0.490817ZM15.3105 14.8203H10.593L14.0839 7.74328H14.1544L22.0023 23.5092H28.4489L16.7118 0.490817H11.737L0 23.5092H6.30623L8.20746 19.6554H17.6577L15.3105 14.8203ZM80.1977 11.5623C81.9849 10.581 82.9308 9.00459 82.9308 6.69213C82.9308 2.97836 80.163 0.490817 75.5033 0.490817H62.399V23.5092H76.0288C80.7934 23.5092 83.9118 20.9515 83.9118 17.0626C83.9115 14.3652 82.4052 12.3331 80.1977 11.5623ZM68.0056 5.36066H75.5033C76.6246 5.36066 77.5003 6.23639 77.5003 7.39279C77.5003 8.54918 76.6246 9.42492 75.4679 9.42492H68.0052V5.36066H68.0056ZM75.643 18.6741H68.0052V13.9793H75.643C77.0095 13.9793 78.0607 14.9607 78.0607 16.2918C78.061 17.658 77.0095 18.6741 75.643 18.6741ZM101.605 13.3489C101.605 16.8427 99.9928 18.7793 96.8049 18.7793C93.6518 18.7793 92.04 16.8427 92.04 13.3489V0.490817H86.2944V12.9285C86.2944 20.041 90.0433 24 96.8049 24C103.567 24 107.35 20.041 107.35 12.9285V0.490817H101.605V13.3489ZM122.31 9.63508C116.989 8.33934 115.829 8.21558 115.829 6.6918C115.829 5.513 117.16 4.94 119.403 4.94C122.381 4.94 125.552 5.68711 127.356 6.79705L129.143 2.10229C126.831 0.876064 123.432 0 119.473 0C113.551 0 110.223 2.94328 110.223 6.90197C110.223 11.1618 112.709 12.8925 118.421 14.1193C122.868 15.0997 123.816 15.7113 123.816 16.9571C123.816 18.3103 122.591 18.9193 120.173 18.9193C116.67 18.9193 113.499 18.0683 110.959 16.6771L109.242 21.582C112.01 23.0534 116.144 23.9997 120.313 23.9997C126.129 23.9997 129.597 21.3016 129.597 16.782C129.598 13.1559 127.252 10.8266 122.31 9.63508Z" fill="#00205B"/>
</g>
<defs>
<clipPath id="clip0_205_59">
<rect width="129.597" height="24" fill="white"/>
</clipPath>
</defs>
</svg>
