<svg width="24" height="25" viewBox="0 0 24 25" fill="none" xmlns="http://www.w3.org/2000/svg">
<g clip-path="url(#clip0_208_484)">
<path d="M19.1111 12.1772C19.1111 16.1072 15.93 19.2884 12 19.2884V12.1772H19.1111ZM12 5.06613V12.1772H4.88892C4.88892 8.24731 8.07009 5.06613 12 5.06613Z" fill="black"/>
<path d="M12 5.06613V5.45603C15.7057 5.45603 18.7212 8.47081 18.7212 12.1772H19.1111C19.1111 8.25013 15.9271 5.06613 12 5.06613ZM12 18.8985C8.29427 18.8985 5.27878 15.8837 5.27878 12.1772H4.88889C4.88889 16.1044 8.07288 19.2884 12 19.2884M12 0.177246C5.37277 0.177246 0 5.55001 0 12.1772C0 18.8045 5.37277 24.1772 12 24.1772C18.6272 24.1772 24 18.8045 24 12.1772C24 5.55001 18.6272 0.177246 12 0.177246ZM23.2197 12.1772C23.2197 18.3734 18.1968 23.3969 12 23.3969C5.80315 23.3969 0.780339 18.3734 0.780339 12.1772C0.780339 5.9811 5.80386 0.957585 12 0.957585C18.1961 0.957585 23.2197 5.9811 23.2197 12.1772Z" fill="black"/>
<path d="M6.87189 6.3882C7.25536 5.98708 7.47247 5.52365 7.089 5.08123C6.88035 4.84111 6.53002 4.78861 6.2396 4.90692L6.2107 4.91812L6.21986 4.89292C6.26286 4.77881 6.29035 4.41479 5.97808 4.16348C5.82582 4.04097 5.6348 3.99547 5.44165 4.01507C5.08145 4.05147 4.80443 4.29578 4.05019 5.13093C3.8225 5.38295 3.4912 5.78057 3.29242 6.03818L5.36412 7.9899C6.05069 7.23525 6.33053 6.95454 6.87189 6.3882ZM4.16861 5.91078C4.58591 5.40395 5.02929 4.94402 5.23019 4.76201C5.29363 4.70461 5.36271 4.6472 5.44659 4.6248C5.58263 4.5877 5.72291 4.68361 5.75463 4.82221C5.78635 4.96152 5.69824 5.09383 5.60026 5.20304C5.37962 5.45015 4.5704 6.2909 4.5704 6.2909L4.16861 5.91078ZM4.97995 6.67522C4.97995 6.67522 5.76802 5.84777 6.02531 5.58316C6.12752 5.47815 6.19308 5.41445 6.26357 5.38015C6.3545 5.33604 6.45389 5.32694 6.54271 5.38575C6.63011 5.44385 6.67029 5.54396 6.64844 5.64336C6.62236 5.76167 6.52508 5.87437 6.44473 5.96048C6.33617 6.07599 5.40148 7.06934 5.40007 7.07074L4.97995 6.67522ZM12.2369 4.06057L12.9002 2.58488L12.9425 2.45398L12.9305 2.59048L13.0003 4.5625C13.2329 4.5842 13.4733 4.6164 13.7101 4.6556L13.6023 1.73503C13.271 1.69863 12.9411 1.67273 12.6112 1.65873L11.9577 3.26952L11.9345 3.38923L11.9112 3.26952L11.2585 1.65873C10.9286 1.67273 10.5987 1.69863 10.2674 1.73503L10.1595 4.6556C10.3964 4.6164 10.6368 4.5849 10.8694 4.5625L10.9392 2.59048L10.9272 2.45398L10.9695 2.58488L11.6328 4.06057H12.2369ZM17.7457 7.11345C17.9085 7.28706 18.1432 7.56707 18.275 7.73718L20.7027 6.20689C20.5815 6.04939 20.3883 5.80997 20.2438 5.64126L18.7064 6.65072L18.6014 6.74033L18.6796 6.62692L19.3585 5.28144L18.8784 4.80471L17.5229 5.47885L17.4087 5.55656L17.4996 5.45225L18.5168 3.92616C18.3378 3.77495 18.1658 3.63634 17.9466 3.46833L16.4056 5.87718C16.6009 6.02628 16.8582 6.2454 17.0224 6.39451L18.4731 5.64686L18.5662 5.57896L18.4978 5.67136L17.7457 7.11345Z" fill="black"/>
</g>
<defs>
<clipPath id="clip0_208_484">
<rect width="24" height="24" fill="white" transform="translate(0 0.177246)"/>
</clipPath>
</defs>
</svg>
