<svg width="24" height="25" viewBox="0 0 24 25" fill="none" xmlns="http://www.w3.org/2000/svg">
<g clip-path="url(#clip0_208_920)">
<path d="M19.1111 12.1772C19.1111 16.1072 15.93 19.2884 12 19.2884V12.1772H19.1111ZM12 5.06613V12.1772H4.88892C4.88892 8.24731 8.07009 5.06613 12 5.06613Z" fill="white"/>
<path d="M12 5.06613V5.45603C15.7057 5.45603 18.7212 8.47081 18.7212 12.1772H19.1111C19.1111 8.25013 15.9271 5.06613 12 5.06613ZM12 18.8985C8.29427 18.8985 5.27878 15.8837 5.27878 12.1772H4.88889C4.88889 16.1044 8.07288 19.2884 12 19.2884M12 0.177246C5.37277 0.177246 0 5.55001 0 12.1772C0 18.8045 5.37277 24.1772 12 24.1772C18.6272 24.1772 24 18.8045 24 12.1772C24 5.55001 18.6272 0.177246 12 0.177246ZM23.2197 12.1772C23.2197 18.3734 18.1968 23.3969 12 23.3969C5.80315 23.3969 0.780339 18.3734 0.780339 12.1772C0.780339 5.9811 5.80386 0.957585 12 0.957585C18.1961 0.957585 23.2197 5.9811 23.2197 12.1772Z" fill="white"/>
<path d="M6.87189 6.3882C7.25536 5.98707 7.47247 5.52365 7.089 5.08122C6.88035 4.84111 6.53002 4.7886 6.2396 4.90691L6.2107 4.91811L6.21986 4.89291C6.26286 4.7788 6.29035 4.41478 5.97808 4.16347C5.82582 4.04096 5.6348 3.99546 5.44165 4.01506C5.08145 4.05146 4.80443 4.29578 4.05019 5.13092C3.8225 5.38294 3.4912 5.78056 3.29242 6.03818L5.36412 7.98989C6.05069 7.23525 6.33053 6.95453 6.87189 6.3882ZM4.16861 5.91077C4.58591 5.40394 5.02929 4.94401 5.23019 4.762C5.29363 4.7046 5.36271 4.6472 5.44659 4.62479C5.58263 4.58769 5.72291 4.6836 5.75463 4.82221C5.78635 4.96151 5.69824 5.09382 5.60026 5.20303C5.37962 5.45014 4.5704 6.29089 4.5704 6.29089L4.16861 5.91077ZM4.97995 6.67521C4.97995 6.67521 5.76802 5.84777 6.02531 5.58315C6.12752 5.47814 6.19308 5.41444 6.26357 5.38014C6.3545 5.33604 6.45389 5.32694 6.54271 5.38574C6.63011 5.44384 6.67029 5.54395 6.64844 5.64335C6.62236 5.76166 6.52508 5.87437 6.44473 5.96047C6.33617 6.07598 5.40148 7.06934 5.40007 7.07074L4.97995 6.67521ZM12.2369 4.06056L12.9002 2.58488L12.9425 2.45397L12.9305 2.59048L13.0003 4.56249C13.2329 4.58419 13.4733 4.61639 13.7101 4.6556L13.6023 1.73503C13.271 1.69862 12.9411 1.67272 12.6112 1.65872L11.9577 3.26952L11.9345 3.38922L11.9112 3.26952L11.2585 1.65872C10.9286 1.67272 10.5987 1.69862 10.2674 1.73503L10.1595 4.6556C10.3964 4.61639 10.6368 4.58489 10.8694 4.56249L10.9392 2.59048L10.9272 2.45397L10.9695 2.58488L11.6328 4.06056H12.2369ZM17.7457 7.11344C17.9085 7.28705 18.1432 7.56707 18.275 7.73718L20.7027 6.20689C20.5815 6.04938 20.3883 5.80996 20.2438 5.64125L18.7064 6.65071L18.6014 6.74032L18.6796 6.62691L19.3585 5.28143L18.8784 4.80471L17.5229 5.47884L17.4087 5.55655L17.4996 5.45224L18.5168 3.92615C18.3378 3.77495 18.1658 3.63634 17.9466 3.46833L16.4056 5.87717C16.6009 6.02628 16.8582 6.24539 17.0224 6.3945L18.4731 5.64685L18.5662 5.57895L18.4978 5.67136L17.7457 7.11344Z" fill="white"/>
</g>
<defs>
<clipPath id="clip0_208_920">
<rect width="24" height="24" fill="white" transform="translate(0 0.177246)"/>
</clipPath>
</defs>
</svg>
