<svg width="24" height="24" viewBox="0 0 24 24" fill="none" xmlns="http://www.w3.org/2000/svg">
<g clip-path="url(#clip0_205_61)">
<path d="M19.1111 12C19.1111 15.9299 15.93 19.1111 12 19.1111V12H19.1111ZM12 4.88889V12H4.88892C4.88892 8.07006 8.07009 4.88889 12 4.88889Z" fill="#0166B1"/>
<path d="M12 4.88891C15.93 4.88891 19.1111 8.07009 19.1111 12H12V4.88891ZM4.88892 12H12V19.1111C8.07009 19.1111 4.88892 15.93 4.88892 12Z" fill="white"/>
<path d="M12 4.88889V5.27878C15.7057 5.27878 18.7212 8.29356 18.7212 12H19.1111C19.1111 8.07288 15.9271 4.88889 12 4.88889ZM12 18.7212C8.29427 18.7212 5.27878 15.7064 5.27878 12H4.88889C4.88889 15.9271 8.07288 19.1111 12 19.1111M12 0C5.37277 0 0 5.37277 0 12C0 18.6272 5.37277 24 12 24C18.6272 24 24 18.6272 24 12C24 5.37277 18.6272 0 12 0ZM23.2197 12C23.2197 18.1961 18.1968 23.2197 12 23.2197C5.80315 23.2197 0.780339 18.1961 0.780339 12C0.780339 5.80386 5.80386 0.780339 12 0.780339C18.1961 0.780339 23.2197 5.80386 23.2197 12Z" fill="#6F6F6F"/>
<path d="M6.87189 6.21096C7.25536 5.80983 7.47247 5.34641 7.089 4.90398C6.88035 4.66387 6.53002 4.61136 6.2396 4.72967L6.2107 4.74087L6.21986 4.71567C6.26286 4.60156 6.29035 4.23754 5.97808 3.98623C5.82582 3.86372 5.6348 3.81822 5.44165 3.83782C5.08145 3.87422 4.80443 4.11853 4.05019 4.95368C3.8225 5.2057 3.4912 5.60332 3.29242 5.86094L5.36412 7.81265C6.05069 7.05801 6.33053 6.77729 6.87189 6.21096ZM4.16861 5.73353C4.58591 5.2267 5.02929 4.76677 5.23019 4.58476C5.29363 4.52736 5.36271 4.46996 5.44659 4.44755C5.58263 4.41045 5.72291 4.50636 5.75463 4.64497C5.78635 4.78427 5.69824 4.91658 5.60026 5.02579C5.37962 5.2729 4.5704 6.11365 4.5704 6.11365L4.16861 5.73353ZM4.97995 6.49797C4.97995 6.49797 5.76802 5.67053 6.02531 5.40591C6.12752 5.3009 6.19308 5.2372 6.26357 5.2029C6.3545 5.1588 6.45389 5.1497 6.54271 5.2085C6.63011 5.2666 6.67029 5.36671 6.64844 5.46611C6.62236 5.58442 6.52508 5.69713 6.44473 5.78323C6.33617 5.89874 5.40148 6.8921 5.40007 6.8935L4.97995 6.49797ZM12.2369 3.88332L12.9002 2.40764L12.9425 2.27673L12.9305 2.41324L13.0003 4.38525C13.2329 4.40695 13.4733 4.43915 13.7101 4.47836L13.6023 1.55779C13.271 1.52138 12.9411 1.49548 12.6112 1.48148L11.9577 3.09228L11.9345 3.21198L11.9112 3.09228L11.2585 1.48148C10.9286 1.49548 10.5987 1.52138 10.2674 1.55779L10.1595 4.47836C10.3964 4.43915 10.6368 4.40765 10.8694 4.38525L10.9392 2.41324L10.9272 2.27673L10.9695 2.40764L11.6328 3.88332H12.2369ZM17.7457 6.9362C17.9085 7.10981 18.1432 7.38983 18.275 7.55994L20.7027 6.02965C20.5815 5.87214 20.3883 5.63272 20.2438 5.46401L18.7064 6.47347L18.6014 6.56308L18.6796 6.44967L19.3585 5.10419L18.8784 4.62746L17.5229 5.3016L17.4087 5.37931L17.4996 5.275L18.5168 3.74891C18.3378 3.5977 18.1658 3.4591 17.9466 3.29109L16.4056 5.69993C16.6009 5.84904 16.8582 6.06815 17.0224 6.21726L18.4731 5.46961L18.5662 5.40171L18.4978 5.49412L17.7457 6.9362Z" fill="#6F6F6F"/>
</g>
<defs>
<clipPath id="clip0_205_61">
<rect width="24" height="24" fill="white"/>
</clipPath>
</defs>
</svg>
