<svg width="92" height="24" viewBox="0 0 92 24" fill="none" xmlns="http://www.w3.org/2000/svg">
<g clip-path="url(#clip0_206_112)">
<path d="M56.7731 23.9273C56.5349 23.9273 56.2916 23.9154 56.045 23.8918C55.7917 23.8664 55.54 23.8225 55.2934 23.76L55.5316 21.2608C55.7145 21.3233 55.9007 21.3673 56.092 21.3926C56.2614 21.4163 56.4326 21.4281 56.6054 21.4281C56.8637 21.4348 57.1221 21.3977 57.3687 21.3199C57.5684 21.2524 57.7479 21.1374 57.8939 20.9837C58.0482 20.8147 58.1757 20.6254 58.2747 20.4193C58.3854 20.1962 58.5062 19.9293 58.6321 19.6268L59.2042 18.1617L54.0351 6.63069H57.4644L60.6604 15.0154H60.7074L63.5462 6.63069H66.5275L61.1134 20.6356C60.9272 21.1205 60.7041 21.5903 60.4457 22.0415C60.2209 22.4335 59.9306 22.7833 59.5867 23.0739C59.2377 23.3612 58.8367 23.5775 58.4056 23.711C57.9543 23.8546 57.4056 23.9273 56.7715 23.9273H56.7731ZM9.01801 18.5943C4.68106 18.6535 0.953127 15.889 0.169623 11.5158C-0.15418 9.65202 -0.0350608 7.67329 0.706499 5.92099C1.83226 3.17341 4.40088 1.34844 7.2782 0.876995C9.03479 0.577904 10.8837 0.692809 12.5496 1.35689C13.5949 1.78441 14.6116 2.38935 15.2927 3.31535L13.0026 5.142C11.6 3.26803 8.81836 2.98753 6.77655 3.86959C4.54181 4.82601 3.27344 7.21874 3.31706 9.61146C3.27344 12.0008 4.39752 14.4746 6.68092 15.4243C8.82507 16.3385 11.7041 15.9295 13.1452 13.9103L15.5545 15.6153C13.9875 17.6413 11.538 18.6416 9.01969 18.5943H9.01801ZM70.9584 18.498C70.0692 18.498 69.1867 18.3307 68.3579 18.0063C67.9519 17.8491 67.5643 17.6497 67.2003 17.4081C66.8547 17.1783 66.5392 16.9062 66.2574 16.6004L68.1415 14.8227C68.477 15.2519 68.8998 15.6051 69.3813 15.8552C69.9031 16.1306 70.4853 16.2709 71.0742 16.2641C71.2872 16.2641 71.4986 16.2388 71.7067 16.1915C71.9147 16.1458 72.116 16.0681 72.3023 15.9633C72.4818 15.862 72.6328 15.7183 72.7435 15.5426C72.8593 15.3466 72.918 15.1218 72.9113 14.8937C72.9163 14.6757 72.861 14.4611 72.7469 14.2753C72.6244 14.0928 72.4549 13.9491 72.2553 13.8613C71.8208 13.6534 71.1581 13.4439 70.2873 13.236C69.8612 13.1414 69.4434 13.0164 69.0357 12.8643C68.6465 12.7207 68.2807 12.5179 67.9502 12.2644C67.6314 12.016 67.3714 11.7 67.1868 11.3401C66.9973 10.9734 66.9 10.5121 66.9 9.97139C66.9 9.33434 67.0325 8.77671 67.2942 8.31371C67.5492 7.85916 67.9032 7.46882 68.3311 7.17311C68.7757 6.87064 69.2672 6.64759 69.7857 6.51241C70.3309 6.36878 70.8913 6.29612 71.455 6.29612C72.2805 6.29612 73.1009 6.44313 73.876 6.7287C74.2518 6.86388 74.6075 7.04638 74.9346 7.2745C75.2417 7.49079 75.5168 7.75271 75.7483 8.05011L73.8877 9.70778C73.6025 9.34617 73.2452 9.04708 72.8375 8.83079C72.3929 8.58239 71.8912 8.45566 71.3829 8.45903C70.945 8.45397 70.5121 8.55366 70.1179 8.74799C69.9417 8.83248 69.7924 8.96597 69.6884 9.13157C69.5894 9.3073 69.539 9.5067 69.5457 9.70778C69.5407 9.91055 69.5944 10.1099 69.7035 10.2806C69.8226 10.4496 69.987 10.5797 70.1783 10.6557C70.596 10.8399 71.2185 11.0292 72.0271 11.2201C72.4684 11.3198 72.9029 11.4483 73.3274 11.6037C73.7535 11.7575 74.1545 11.9721 74.5202 12.2408C74.8759 12.5044 75.1729 12.8389 75.391 13.2259C75.6124 13.6162 75.7249 14.0978 75.7249 14.6555C75.7249 15.3567 75.5923 15.9583 75.3306 16.4449C75.0789 16.9198 74.7199 17.327 74.2803 17.6345C73.8173 17.9505 73.2989 18.1736 72.7536 18.2952C72.163 18.4321 71.559 18.5014 70.9517 18.4997L70.9584 18.498ZM28.0553 18.498C27.2181 18.5065 26.3859 18.3645 25.5991 18.0773C24.8793 17.8137 24.22 17.4098 23.6546 16.8877C23.0959 16.3588 22.6563 15.7166 22.3661 15.0019C22.0574 14.26 21.9014 13.4084 21.9014 12.4672C21.8913 11.6003 22.049 10.7385 22.3661 9.93252C22.9416 8.4641 24.1009 7.30492 25.5622 6.73715C26.3256 6.43637 27.1393 6.28598 27.9597 6.29274C28.713 6.28598 29.4612 6.41947 30.1659 6.68984C30.8303 6.94668 31.4275 7.34885 31.9191 7.86761C32.409 8.38637 32.7983 9.04032 33.0768 9.81424C33.3536 10.5865 33.4945 11.504 33.4945 12.5415V12.9268C33.4945 13.0552 33.4861 13.1837 33.471 13.3104H24.7653C24.7921 13.7092 24.9028 14.0978 25.0874 14.451C25.2686 14.7923 25.5169 15.0948 25.8155 15.3398C26.1225 15.5916 26.4698 15.7893 26.8406 15.9279C27.2215 16.0715 27.6258 16.1442 28.0335 16.1442C28.7465 16.1442 29.3555 16.0107 29.8454 15.7471C30.332 15.4868 30.7497 15.1117 31.0618 14.6538L32.9694 16.1915C32.6976 16.5649 32.3805 16.9029 32.0265 17.2003C31.6809 17.4875 31.3 17.7309 30.894 17.9201C30.4712 18.1161 30.0266 18.2614 29.5703 18.3527C29.072 18.4507 28.5637 18.4997 28.0553 18.498ZM27.9362 8.45565C27.5318 8.45228 27.1292 8.51818 26.7467 8.65167C26.3826 8.78178 26.0454 8.98118 25.7534 9.23802C25.4649 9.48642 25.23 9.78889 25.0589 10.1302C24.8911 10.4783 24.7904 10.8568 24.7636 11.2438H30.6306C30.6306 10.8856 30.5803 10.529 30.4763 10.1877C30.2766 9.51177 29.7867 8.9609 29.1408 8.68715C28.7599 8.52832 28.3489 8.45059 27.9362 8.45903V8.45565ZM38.6452 18.449C38.1586 18.4456 37.6738 18.3848 37.2023 18.2682C36.7091 18.1516 36.241 17.9488 35.8182 17.6683C35.392 17.3828 35.033 17.0042 34.7679 16.5632C34.4911 16.1087 34.3502 15.5392 34.3502 14.8701C34.3451 14.4746 34.4055 14.0792 34.533 13.7041C34.6488 13.3678 34.835 13.062 35.0783 12.8035C35.5615 12.2931 36.1906 11.8977 36.9507 11.6257C37.7728 11.3418 38.625 11.1593 39.4908 11.085C40.4169 10.9971 41.3363 10.9531 42.2221 10.9531V10.6642C42.2288 10.3398 42.1634 10.0187 42.0275 9.72468C41.8966 9.456 41.6953 9.22957 41.4453 9.06735C41.1836 8.89331 40.8967 8.76319 40.5964 8.6804C40.2709 8.59253 39.9354 8.54859 39.5981 8.55197C38.9975 8.55197 38.4036 8.68377 37.8566 8.93724C37.3433 9.16367 36.8752 9.48135 36.4725 9.87338L34.9944 8.11939C35.6454 7.51276 36.4121 7.04638 37.2476 6.75067C38.0781 6.44989 38.9539 6.29612 39.8364 6.29443C40.8497 6.29443 41.6953 6.43975 42.353 6.72701C43.009 7.01427 43.5358 7.39447 43.915 7.85578C44.2908 8.31202 44.5642 8.8443 44.7136 9.41714C44.8629 9.98153 44.9384 10.5628 44.94 11.1475V18.1617H42.2691V16.6967H42.1969C42.0493 16.9586 41.8597 17.1952 41.6366 17.3963C41.3883 17.6193 41.1115 17.8069 40.8145 17.9573C40.182 18.2834 39.4505 18.449 38.6435 18.449H38.6452ZM41.5795 12.8998C41.1198 12.8998 40.6299 12.9201 40.1249 12.9606C39.6468 12.9944 39.1753 13.084 38.7173 13.2242C38.3247 13.3408 37.959 13.5368 37.6436 13.8004C37.3584 14.0471 37.2141 14.3918 37.2141 14.8211C37.2057 15.0627 37.2678 15.2993 37.3936 15.5054C37.511 15.6879 37.6704 15.84 37.8583 15.9498C38.058 16.0647 38.2761 16.1458 38.5026 16.1898C38.7375 16.2371 38.9774 16.2607 39.2173 16.2624C39.6585 16.2709 40.0981 16.2033 40.5175 16.0647C40.8732 15.9431 41.1953 15.7403 41.4604 15.4699C41.7154 15.2029 41.9117 14.8836 42.0325 14.5338C42.1651 14.1401 42.2288 13.7244 42.2238 13.3087V12.8998H41.5812H41.5795ZM80.7782 18.4017C80.0182 18.4017 79.3924 18.2919 78.9176 18.0773C78.4696 17.8846 78.0804 17.5771 77.7851 17.1884C77.5033 16.8032 77.3086 16.3604 77.213 15.8907C77.1073 15.3736 77.0553 14.8464 77.0587 14.3175V3.29169H79.8739V6.63069H82.7361V8.93724H79.8739V14.2938C79.8739 14.8042 79.9662 15.2317 80.1474 15.5679C80.2464 15.742 80.4041 15.8772 80.592 15.9464C80.8436 16.0377 81.1087 16.0816 81.3755 16.0732C81.5835 16.0715 81.7916 16.0512 81.9962 16.0123C82.2009 15.9769 82.4023 15.916 82.5918 15.8315L82.6875 18.0891C82.3939 18.1955 82.0902 18.2716 81.7815 18.3172C81.451 18.3713 81.1154 18.4 80.7799 18.4017H80.7782ZM49.6948 18.1617H46.8325V6.63069H49.5756V8.55197H49.6226C49.9229 7.90141 50.3826 7.3404 50.9581 6.91796C51.4245 6.58 51.9714 6.37216 52.5436 6.3147L53.6542 8.94907V9.00652C53.4932 8.96428 53.3304 8.93217 53.166 8.91021C53.0351 8.895 52.9043 8.88655 52.7717 8.88655C52.1224 8.88655 51.5923 9.00821 51.198 9.24647C50.8272 9.46107 50.5101 9.75678 50.2669 10.1116C50.0538 10.4259 49.9011 10.7757 49.8139 11.1441C49.7451 11.4195 49.7048 11.7017 49.6948 11.9856V18.1601V18.1617ZM20.18 18.1617H17.3178V0H20.18V18.1617Z" fill="#263436"/>
<path d="M91.6355 4.27705C91.6406 4.78736 91.5466 5.2943 91.3621 5.77082C91.1876 6.21692 90.9259 6.62246 90.5903 6.96211C90.2531 7.30007 89.8504 7.56536 89.4075 7.73941C88.9361 7.92697 88.4327 8.01991 87.9244 8.01484C87.4177 8.01991 86.9144 7.92528 86.4412 7.73941C85.9983 7.56367 85.5957 7.30007 85.2584 6.96211C84.9229 6.62246 84.6595 6.21692 84.4867 5.77082C84.3005 5.29599 84.2082 4.78905 84.2132 4.27705C84.2082 3.76674 84.3021 3.2598 84.4867 2.78329C84.6612 2.33718 84.9229 1.93164 85.2584 1.59199C85.5957 1.25404 85.9983 0.988741 86.4412 0.814693C86.9127 0.627128 87.416 0.53419 87.9244 0.539259C88.431 0.53419 88.9344 0.628818 89.4075 0.814693C89.8504 0.99043 90.2531 1.25404 90.5903 1.59199C90.9259 1.93164 91.1893 2.33718 91.3621 2.78329C91.5483 3.25811 91.6406 3.76505 91.6355 4.27705ZM90.4393 4.27705C90.441 3.93572 90.3739 3.59945 90.2397 3.28515C90.1138 2.98606 89.9309 2.71232 89.7045 2.48251C89.4746 2.2527 89.2045 2.0702 88.9075 1.94347C88.5971 1.80828 88.2616 1.74069 87.9227 1.74238C87.5838 1.74069 87.2499 1.80828 86.9379 1.94347C86.6409 2.0702 86.3691 2.25439 86.1409 2.48251C85.9128 2.71401 85.7316 2.98606 85.6057 3.28515C85.4715 3.59776 85.4044 3.93572 85.4061 4.27705C85.4044 4.61839 85.4715 4.95465 85.6057 5.26895C85.7316 5.56804 85.9144 5.84179 86.1409 6.0716C86.3708 6.30141 86.6409 6.4839 86.9379 6.61064C87.2482 6.74582 87.5838 6.81341 87.9227 6.81172C88.2616 6.81341 88.5955 6.74582 88.9075 6.61064C89.2045 6.4839 89.4763 6.29972 89.7045 6.0716C89.9326 5.8401 90.1138 5.56804 90.2397 5.26895C90.3739 4.95634 90.441 4.61839 90.4393 4.27705Z" fill="#0B77BD"/>
</g>
<path d="M83.8927 17.3618H83.6582V17.2211H84.2909V17.3618H84.0564V18H83.8927V17.3618ZM84.3925 17.2211H84.5878L84.7819 17.8025L84.9816 17.2211H85.1714V18H85.0219V17.4807L84.8441 18H84.7176L84.5387 17.4818V18H84.3925V17.2211Z" fill="#263436"/>
<defs>
<clipPath id="clip0_206_112">
<rect width="91.6364" height="23.9273" fill="white"/>
</clipPath>
</defs>
</svg>
