<svg width="92" height="25" viewBox="0 0 92 25" fill="none" xmlns="http://www.w3.org/2000/svg">
<g clip-path="url(#clip0_208_509)">
<path d="M56.7731 24.1045C56.5349 24.1045 56.2916 24.0927 56.045 24.069C55.7917 24.0437 55.54 23.9998 55.2934 23.9372L55.5316 21.438C55.7145 21.5006 55.9007 21.5445 56.092 21.5698C56.2614 21.5935 56.4326 21.6053 56.6054 21.6053C56.8637 21.6121 57.1221 21.5749 57.3687 21.4972C57.5684 21.4296 57.7479 21.3147 57.8939 21.1609C58.0482 20.9919 58.1757 20.8027 58.2747 20.5965C58.3854 20.3735 58.5062 20.1065 58.6321 19.804L59.2042 18.339L54.0351 6.80794H57.4644L60.6604 15.1926H60.7074L63.5462 6.80794H66.5275L61.1134 20.8128C60.9272 21.2978 60.7041 21.7676 60.4457 22.2187C60.2209 22.6108 59.9306 22.9605 59.5867 23.2512C59.2377 23.5384 58.8367 23.7547 58.4056 23.8882C57.9543 24.0319 57.4056 24.1045 56.7715 24.1045H56.7731ZM9.01801 18.7716C4.68106 18.8307 0.953127 16.0662 0.169623 11.6931C-0.15418 9.82927 -0.0350608 7.85053 0.706499 6.09823C1.83226 3.35065 4.40088 1.52569 7.2782 1.05424C9.03479 0.755151 10.8837 0.870055 12.5496 1.53414C13.5949 1.96165 14.6116 2.56659 15.2927 3.49259L13.0026 5.31924C11.6 3.44528 8.81836 3.16478 6.77655 4.04684C4.54181 5.00326 3.27344 7.39598 3.31706 9.78871C3.27344 12.1781 4.39752 14.6519 6.68092 15.6016C8.82507 16.5157 11.7041 16.1068 13.1452 14.0875L15.5545 15.7925C13.9875 17.8185 11.538 18.8189 9.01969 18.7716H9.01801ZM70.9584 18.6753C70.0692 18.6753 69.1867 18.508 68.3579 18.1835C67.9519 18.0264 67.5643 17.827 67.2003 17.5853C66.8547 17.3555 66.5392 17.0835 66.2574 16.7776L68.1415 15C68.477 15.4292 68.8998 15.7824 69.3813 16.0324C69.9031 16.3079 70.4853 16.4481 71.0742 16.4414C71.2872 16.4414 71.4986 16.416 71.7067 16.3687C71.9147 16.3231 72.116 16.2454 72.3023 16.1406C72.4818 16.0392 72.6328 15.8956 72.7435 15.7198C72.8593 15.5238 72.918 15.2991 72.9113 15.071C72.9163 14.853 72.861 14.6384 72.7469 14.4525C72.6244 14.27 72.4549 14.1264 72.2553 14.0385C71.8208 13.8307 71.1581 13.6211 70.2873 13.4133C69.8612 13.3187 69.4434 13.1936 69.0357 13.0415C68.6465 12.8979 68.2807 12.6951 67.9502 12.4417C67.6314 12.1933 67.3714 11.8773 67.1868 11.5174C66.9973 11.1507 66.9 10.6894 66.9 10.1486C66.9 9.51159 67.0325 8.95396 67.2942 8.49096C67.5492 8.03641 67.9032 7.64607 68.3311 7.35036C68.7757 7.04789 69.2672 6.82484 69.7857 6.68966C70.3309 6.54602 70.8913 6.47336 71.455 6.47336C72.2805 6.47336 73.1009 6.62037 73.876 6.90595C74.2518 7.04113 74.6075 7.22362 74.9346 7.45174C75.2417 7.66804 75.5168 7.92995 75.7483 8.22735L73.8877 9.88503C73.6025 9.52341 73.2452 9.22432 72.8375 9.00803C72.3929 8.75963 71.8912 8.6329 71.3829 8.63628C70.945 8.63121 70.5121 8.73091 70.1179 8.92523C69.9417 9.00972 69.7924 9.14321 69.6884 9.30881C69.5894 9.48455 69.539 9.68394 69.5457 9.88503C69.5407 10.0878 69.5944 10.2872 69.7035 10.4579C69.8226 10.6268 69.987 10.757 70.1783 10.833C70.596 11.0172 71.2185 11.2064 72.0271 11.3974C72.4684 11.4971 72.9029 11.6255 73.3274 11.781C73.7535 11.9347 74.1545 12.1493 74.5202 12.418C74.8759 12.6816 75.1729 13.0162 75.391 13.4031C75.6124 13.7935 75.7249 14.2751 75.7249 14.8327C75.7249 15.534 75.5923 16.1355 75.3306 16.6222C75.0789 17.097 74.7199 17.5042 74.2803 17.8118C73.8173 18.1278 73.2989 18.3508 72.7536 18.4725C72.163 18.6094 71.559 18.6786 70.9517 18.6769L70.9584 18.6753ZM28.0553 18.6753C27.2181 18.6837 26.3859 18.5418 25.5991 18.2545C24.8793 17.9909 24.22 17.587 23.6546 17.0649C23.0959 16.536 22.6563 15.8939 22.3661 15.1791C22.0574 14.4373 21.9014 13.5856 21.9014 12.6444C21.8913 11.7776 22.049 10.9158 22.3661 10.1098C22.9416 8.64135 24.1009 7.48216 25.5622 6.9144C26.3256 6.61361 27.1393 6.46322 27.9597 6.46998C28.713 6.46322 29.4612 6.59672 30.1659 6.86708C30.8303 7.12393 31.4275 7.5261 31.9191 8.04486C32.409 8.56362 32.7983 9.21756 33.0768 9.99148C33.3536 10.7637 33.4945 11.6813 33.4945 12.7188V13.1041C33.4945 13.2325 33.4861 13.3609 33.471 13.4876H24.7653C24.7921 13.8864 24.9028 14.2751 25.0874 14.6282C25.2686 14.9696 25.5169 15.272 25.8155 15.5171C26.1225 15.7688 26.4698 15.9665 26.8406 16.1051C27.2215 16.2487 27.6258 16.3214 28.0335 16.3214C28.7465 16.3214 29.3555 16.1879 29.8454 15.9243C30.332 15.6641 30.7497 15.2889 31.0618 14.831L32.9694 16.3687C32.6976 16.7422 32.3805 17.0801 32.0265 17.3775C31.6809 17.6648 31.3 17.9081 30.894 18.0974C30.4712 18.2934 30.0266 18.4387 29.5703 18.5299C29.072 18.6279 28.5637 18.6769 28.0553 18.6753ZM27.9362 8.6329C27.5318 8.62952 27.1292 8.69542 26.7467 8.82892C26.3826 8.95903 26.0454 9.15842 25.7534 9.41527C25.4649 9.66367 25.23 9.96614 25.0589 10.3075C24.8911 10.6556 24.7904 11.0341 24.7636 11.421H30.6306C30.6306 11.0628 30.5803 10.7063 30.4763 10.3649C30.2766 9.68901 29.7867 9.13815 29.1408 8.8644C28.7599 8.70556 28.3489 8.62783 27.9362 8.63628V8.6329ZM38.6452 18.6263C38.1586 18.6229 37.6738 18.562 37.2023 18.4454C36.7091 18.3289 36.241 18.1261 35.8182 17.8456C35.392 17.56 35.033 17.1815 34.7679 16.7405C34.4911 16.2859 34.3502 15.7165 34.3502 15.0473C34.3451 14.6519 34.4055 14.2565 34.533 13.8814C34.6488 13.5451 34.835 13.2392 35.0783 12.9807C35.5615 12.4704 36.1906 12.075 36.9507 11.8029C37.7728 11.519 38.625 11.3365 39.4908 11.2622C40.4169 11.1743 41.3363 11.1304 42.2221 11.1304V10.8414C42.2288 10.517 42.1634 10.1959 42.0275 9.90193C41.8966 9.63325 41.6953 9.40682 41.4453 9.2446C41.1836 9.07055 40.8967 8.94044 40.5964 8.85764C40.2709 8.76977 39.9354 8.72584 39.5981 8.72922C38.9975 8.72922 38.4036 8.86102 37.8566 9.11449C37.3433 9.34092 36.8752 9.6586 36.4725 10.0506L34.9944 8.29663C35.6454 7.69 36.4121 7.22363 37.2476 6.92791C38.0781 6.62713 38.9539 6.47336 39.8364 6.47167C40.8497 6.47167 41.6953 6.61699 42.353 6.90426C43.009 7.19152 43.5358 7.57172 43.915 8.03303C44.2908 8.48927 44.5642 9.02155 44.7136 9.59439C44.8629 10.1588 44.9384 10.7401 44.94 11.3247V18.339H42.2691V16.874H42.1969C42.0493 17.1359 41.8597 17.3724 41.6366 17.5735C41.3883 17.7966 41.1115 17.9841 40.8145 18.1345C40.182 18.4607 39.4505 18.6263 38.6435 18.6263H38.6452ZM41.5795 13.077C41.1198 13.077 40.6299 13.0973 40.1249 13.1379C39.6468 13.1716 39.1753 13.2612 38.7173 13.4015C38.3247 13.5181 37.959 13.7141 37.6436 13.9777C37.3584 14.2244 37.2141 14.5691 37.2141 14.9983C37.2057 15.2399 37.2678 15.4765 37.3936 15.6827C37.511 15.8652 37.6704 16.0172 37.8583 16.1271C38.058 16.242 38.2761 16.3231 38.5026 16.367C38.7375 16.4143 38.9774 16.438 39.2173 16.4397C39.6585 16.4481 40.0981 16.3805 40.5175 16.242C40.8732 16.1203 41.1953 15.9175 41.4604 15.6472C41.7154 15.3802 41.9117 15.0608 42.0325 14.711C42.1651 14.3173 42.2288 13.9016 42.2238 13.4859V13.077H41.5812H41.5795ZM80.7782 18.5789C80.0182 18.5789 79.3924 18.4691 78.9176 18.2545C78.4696 18.0619 78.0804 17.7543 77.7851 17.3657C77.5033 16.9804 77.3086 16.5377 77.213 16.0679C77.1073 15.5509 77.0553 15.0236 77.0587 14.4947V3.46894H79.8739V6.80794H82.7361V9.11449H79.8739V14.4711C79.8739 14.9814 79.9662 15.4089 80.1474 15.7452C80.2464 15.9192 80.4041 16.0544 80.592 16.1237C80.8436 16.2149 81.1087 16.2589 81.3755 16.2504C81.5835 16.2487 81.7916 16.2285 81.9962 16.1896C82.2009 16.1541 82.4023 16.0933 82.5918 16.0088L82.6875 18.2663C82.3939 18.3728 82.0902 18.4488 81.7815 18.4945C81.451 18.5485 81.1154 18.5773 80.7799 18.5789H80.7782ZM49.6948 18.339H46.8325V6.80794H49.5756V8.72922H49.6226C49.9229 8.07865 50.3826 7.51765 50.9581 7.0952C51.4245 6.75725 51.9714 6.5494 52.5436 6.49195L53.6542 9.12632V9.18377C53.4932 9.14152 53.3304 9.10942 53.166 9.08745C53.0351 9.07224 52.9043 9.06379 52.7717 9.06379C52.1224 9.06379 51.5923 9.18546 51.198 9.42372C50.8272 9.63832 50.5101 9.93403 50.2669 10.2889C50.0538 10.6032 49.9011 10.953 49.8139 11.3213C49.7451 11.5968 49.7048 11.879 49.6948 12.1628V18.3373V18.339ZM20.18 18.339H17.3178V0.177246H20.18V18.339Z" fill="black"/>
<path d="M91.6355 4.4543C91.6406 4.96461 91.5466 5.47154 91.3621 5.94806C91.1876 6.39416 90.9259 6.79971 90.5903 7.13936C90.2531 7.47731 89.8504 7.74261 89.4075 7.91665C88.9361 8.10422 88.4327 8.19716 87.9244 8.19209C87.4177 8.19716 86.9144 8.10253 86.4412 7.91665C85.9983 7.74092 85.5957 7.47731 85.2584 7.13936C84.9229 6.79971 84.6595 6.39416 84.4867 5.94806C84.3005 5.47323 84.2082 4.9663 84.2132 4.4543C84.2082 3.94398 84.3021 3.43705 84.4867 2.96053C84.6612 2.51443 84.9229 2.10888 85.2584 1.76924C85.5957 1.43128 85.9983 1.16599 86.4412 0.991939C86.9127 0.804374 87.416 0.711436 87.9244 0.716505C88.431 0.711436 88.9344 0.806064 89.4075 0.991939C89.8504 1.16768 90.2531 1.43128 90.5903 1.76924C90.9259 2.10888 91.1893 2.51443 91.3621 2.96053C91.5483 3.43536 91.6406 3.94229 91.6355 4.4543ZM90.4393 4.4543C90.441 4.11296 90.3739 3.7767 90.2397 3.4624C90.1138 3.16331 89.9309 2.88956 89.7045 2.65975C89.4746 2.42994 89.2045 2.24745 88.9075 2.12071C88.5971 1.98553 88.2616 1.91794 87.9227 1.91963C87.5838 1.91794 87.2499 1.98553 86.9379 2.12071C86.6409 2.24745 86.3691 2.43163 86.1409 2.65975C85.9128 2.89125 85.7316 3.16331 85.6057 3.4624C85.4715 3.77501 85.4044 4.11296 85.4061 4.4543C85.4044 4.79563 85.4715 5.1319 85.6057 5.4462C85.7316 5.74529 85.9144 6.01903 86.1409 6.24884C86.3708 6.47865 86.6409 6.66115 86.9379 6.78788C87.2482 6.92306 87.5838 6.99066 87.9227 6.98897C88.2616 6.99066 88.5955 6.92306 88.9075 6.78788C89.2045 6.66115 89.4763 6.47696 89.7045 6.24884C89.9326 6.01734 90.1138 5.74529 90.2397 5.4462C90.3739 5.13359 90.441 4.79563 90.4393 4.4543Z" fill="black"/>
</g>
<path d="M83.8927 17.5391H83.6582V17.3983H84.2909V17.5391H84.0564V18.1772H83.8927V17.5391ZM84.3925 17.3983H84.5878L84.7819 17.9798L84.9816 17.3983H85.1714V18.1772H85.0219V17.658L84.8441 18.1772H84.7176L84.5387 17.6591V18.1772H84.3925V17.3983Z" fill="black"/>
<defs>
<clipPath id="clip0_208_509">
<rect width="91.6364" height="23.9273" fill="white" transform="translate(0 0.177246)"/>
</clipPath>
</defs>
</svg>
