<svg width="135" height="24" viewBox="0 0 135 24" fill="none" xmlns="http://www.w3.org/2000/svg">
<path fill-rule="evenodd" clip-rule="evenodd" d="M10.4304 0.922677C11.143 0.398112 12.1181 0.407489 12.8204 0.945662L19.9932 6.44198C21.027 7.23419 21.027 8.78771 19.9932 9.57992L17.2577 11.6761L20.0383 13.9037C21.0497 14.7139 21.0224 16.2574 19.983 17.0315L12.6203 22.5153C11.8638 23.0788 10.8138 23.0332 10.1093 22.4063L4.34828 17.2802L3.54263 16.5903C-0.0526221 13.5114 0.390572 7.84094 4.41313 5.35211L10.4304 0.922677ZM16.1959 10.8254L12.8519 8.14659C12.1379 7.57456 11.1239 7.56365 10.3976 8.12017L7.92337 10.0161C6.88952 10.8084 6.88952 12.3619 7.92337 13.1541L10.4158 15.064C11.1294 15.6108 12.1228 15.6108 12.8364 15.064L16.1777 12.5036L19.209 14.932C19.5461 15.2021 19.537 15.7166 19.1905 15.9747L11.8279 21.4585C11.5757 21.6463 11.2257 21.6311 10.9909 21.4221L5.22519 16.2918L4.40534 15.5895C1.48293 13.0869 1.8498 8.47338 5.13127 6.46078L5.1551 6.44616L11.2169 1.98398C11.4544 1.80912 11.7794 1.81225 12.0135 1.99164L19.1863 7.48796C19.5309 7.75203 19.5309 8.26987 19.1863 8.53394L16.1959 10.8254ZM15.1159 11.653L12.0295 14.018C11.7917 14.2003 11.4605 14.2003 11.2227 14.018L8.73023 12.1081C8.38562 11.844 8.38562 11.3262 8.73023 11.0621L11.2045 9.16615C11.4466 8.98064 11.7846 8.98428 12.0226 9.17496L15.1159 11.653Z" fill="#7C3AED" stroke="#7C3AED" stroke-width="0.5"/>
<path d="M43.2784 9.9375H40.7898C40.7443 9.61553 40.6515 9.32955 40.5114 9.07955C40.3712 8.82576 40.1913 8.60985 39.9716 8.43182C39.7519 8.25379 39.4981 8.11742 39.2102 8.02273C38.9261 7.92803 38.6174 7.88068 38.2841 7.88068C37.6818 7.88068 37.1572 8.0303 36.7102 8.32955C36.2633 8.625 35.9167 9.05682 35.6705 9.625C35.4242 10.1894 35.3011 10.875 35.3011 11.6818C35.3011 12.5114 35.4242 13.2083 35.6705 13.7727C35.9205 14.3371 36.2689 14.7633 36.7159 15.0511C37.1629 15.339 37.6799 15.483 38.267 15.483C38.5966 15.483 38.9015 15.4394 39.1818 15.3523C39.4659 15.2652 39.7178 15.1383 39.9375 14.9716C40.1572 14.8011 40.339 14.5947 40.483 14.3523C40.6307 14.1098 40.733 13.8333 40.7898 13.5227L43.2784 13.5341C43.214 14.0682 43.053 14.5833 42.7955 15.0795C42.5417 15.572 42.1989 16.0133 41.767 16.4034C41.339 16.7898 40.8277 17.0966 40.233 17.3239C39.642 17.5473 38.9735 17.6591 38.2273 17.6591C37.1894 17.6591 36.2614 17.4242 35.4432 16.9545C34.6288 16.4848 33.9848 15.8049 33.5114 14.9148C33.0417 14.0246 32.8068 12.947 32.8068 11.6818C32.8068 10.4129 33.0455 9.33333 33.5227 8.44318C34 7.55303 34.6477 6.875 35.4659 6.40909C36.2841 5.93939 37.2045 5.70455 38.2273 5.70455C38.9015 5.70455 39.5265 5.79924 40.1023 5.98864C40.6818 6.17803 41.1951 6.45455 41.642 6.81818C42.089 7.17803 42.4527 7.61932 42.733 8.14205C43.017 8.66477 43.1989 9.26326 43.2784 9.9375ZM48.9403 17.6705C48.0578 17.6705 47.2945 17.483 46.6506 17.108C46.0104 16.7292 45.5161 16.2027 45.1676 15.5284C44.8191 14.8504 44.6449 14.0644 44.6449 13.1705C44.6449 12.2689 44.8191 11.4811 45.1676 10.8068C45.5161 10.1288 46.0104 9.60227 46.6506 9.22727C47.2945 8.84848 48.0578 8.65909 48.9403 8.65909C49.8229 8.65909 50.5843 8.84848 51.2244 9.22727C51.8684 9.60227 52.3646 10.1288 52.7131 10.8068C53.0616 11.4811 53.2358 12.2689 53.2358 13.1705C53.2358 14.0644 53.0616 14.8504 52.7131 15.5284C52.3646 16.2027 51.8684 16.7292 51.2244 17.108C50.5843 17.483 49.8229 17.6705 48.9403 17.6705ZM48.9517 15.7955C49.3532 15.7955 49.6884 15.6818 49.9574 15.4545C50.2263 15.2235 50.429 14.9091 50.5653 14.5114C50.7055 14.1136 50.7756 13.661 50.7756 13.1534C50.7756 12.6458 50.7055 12.1932 50.5653 11.7955C50.429 11.3977 50.2263 11.0833 49.9574 10.8523C49.6884 10.6212 49.3532 10.5057 48.9517 10.5057C48.5464 10.5057 48.2055 10.6212 47.929 10.8523C47.6563 11.0833 47.4498 11.3977 47.3097 11.7955C47.1733 12.1932 47.1051 12.6458 47.1051 13.1534C47.1051 13.661 47.1733 14.1136 47.3097 14.5114C47.4498 14.9091 47.6563 15.2235 47.929 15.4545C48.2055 15.6818 48.5464 15.7955 48.9517 15.7955ZM57.2301 12.4545V17.5H54.8097V8.77273H57.1165V10.3125H57.2188C57.4119 9.80492 57.7358 9.40341 58.1903 9.10795C58.6449 8.80871 59.196 8.65909 59.8438 8.65909C60.4498 8.65909 60.9782 8.79167 61.429 9.05682C61.8797 9.32197 62.2301 9.70076 62.4801 10.1932C62.7301 10.6818 62.8551 11.2652 62.8551 11.9432V17.5H60.4347V12.375C60.4384 11.8409 60.3021 11.4242 60.0256 11.125C59.7491 10.822 59.3684 10.6705 58.8835 10.6705C58.5578 10.6705 58.2699 10.7405 58.0199 10.8807C57.7737 11.0208 57.5805 11.2254 57.4403 11.4943C57.304 11.7595 57.2339 12.0795 57.2301 12.4545ZM69.4048 8.77273V10.5909H64.1491V8.77273H69.4048ZM65.3423 6.68182H67.7628V14.8182C67.7628 15.0417 67.7969 15.2159 67.8651 15.3409C67.9332 15.4621 68.0279 15.5473 68.1491 15.5966C68.2741 15.6458 68.4181 15.6705 68.581 15.6705C68.6946 15.6705 68.8082 15.661 68.9219 15.642C69.0355 15.6193 69.1226 15.6023 69.1832 15.5909L69.5639 17.392C69.4427 17.4299 69.2723 17.4735 69.0526 17.5227C68.8329 17.5758 68.5658 17.608 68.2514 17.6193C67.6681 17.642 67.1567 17.5644 66.7173 17.3864C66.2817 17.2083 65.9427 16.9318 65.7003 16.5568C65.4579 16.1818 65.3385 15.7083 65.3423 15.1364V6.68182ZM74.8651 17.6705C73.9673 17.6705 73.1946 17.4886 72.5469 17.125C71.9029 16.7576 71.4067 16.2386 71.0582 15.5682C70.7098 14.8939 70.5355 14.0966 70.5355 13.1761C70.5355 12.2784 70.7098 11.4905 71.0582 10.8125C71.4067 10.1345 71.8973 9.60606 72.5298 9.22727C73.1662 8.84848 73.9124 8.65909 74.7685 8.65909C75.3442 8.65909 75.8802 8.75189 76.3764 8.9375C76.8764 9.11932 77.312 9.39394 77.6832 9.76136C78.0582 10.1288 78.3499 10.5909 78.5582 11.1477C78.7666 11.7008 78.8707 12.3485 78.8707 13.0909V13.7557H71.5014V12.2557H76.5923C76.5923 11.9072 76.5166 11.5985 76.3651 11.3295C76.2135 11.0606 76.0033 10.8504 75.7344 10.6989C75.4692 10.5436 75.1605 10.4659 74.8082 10.4659C74.4408 10.4659 74.1151 10.5511 73.831 10.7216C73.5507 10.8883 73.331 11.1136 73.1719 11.3977C73.0128 11.678 72.9313 11.9905 72.9276 12.3352V13.7614C72.9276 14.1932 73.0071 14.5663 73.1662 14.8807C73.3291 15.1951 73.5582 15.4375 73.8537 15.608C74.1491 15.7784 74.4995 15.8636 74.9048 15.8636C75.1738 15.8636 75.42 15.8258 75.6435 15.75C75.867 15.6742 76.0582 15.5606 76.2173 15.4091C76.3764 15.2576 76.4976 15.072 76.581 14.8523L78.8196 15C78.706 15.5379 78.473 16.0076 78.1207 16.4091C77.7723 16.8068 77.3215 17.1174 76.7685 17.3409C76.2192 17.5606 75.5848 17.6705 74.8651 17.6705ZM82.8707 12.4545V17.5H80.4503V8.77273H82.7571V10.3125H82.8594C83.0526 9.80492 83.3764 9.40341 83.831 9.10795C84.2855 8.80871 84.8366 8.65909 85.4844 8.65909C86.0904 8.65909 86.6188 8.79167 87.0696 9.05682C87.5204 9.32197 87.8707 9.70076 88.1207 10.1932C88.3707 10.6818 88.4957 11.2652 88.4957 11.9432V17.5H86.0753V12.375C86.0791 11.8409 85.9427 11.4242 85.6662 11.125C85.3897 10.822 85.009 10.6705 84.5241 10.6705C84.1984 10.6705 83.9105 10.7405 83.6605 10.8807C83.4143 11.0208 83.2211 11.2254 83.081 11.4943C82.9446 11.7595 82.8745 12.0795 82.8707 12.4545ZM95.0455 8.77273V10.5909H89.7898V8.77273H95.0455ZM90.983 6.68182H93.4034V14.8182C93.4034 15.0417 93.4375 15.2159 93.5057 15.3409C93.5739 15.4621 93.6686 15.5473 93.7898 15.5966C93.9148 15.6458 94.0587 15.6705 94.2216 15.6705C94.3352 15.6705 94.4489 15.661 94.5625 15.642C94.6761 15.6193 94.7633 15.6023 94.8239 15.5909L95.2045 17.392C95.0833 17.4299 94.9129 17.4735 94.6932 17.5227C94.4735 17.5758 94.2064 17.608 93.892 17.6193C93.3087 17.642 92.7973 17.5644 92.358 17.3864C91.9223 17.2083 91.5833 16.9318 91.3409 16.5568C91.0985 16.1818 90.9792 15.7083 90.983 15.1364V6.68182ZM99.2301 5.86364V17.5H96.8097V5.86364H99.2301ZM103.658 17.6648C103.101 17.6648 102.605 17.5682 102.169 17.375C101.733 17.178 101.389 16.8883 101.135 16.5057C100.885 16.1193 100.76 15.6383 100.76 15.0625C100.76 14.5777 100.849 14.1705 101.027 13.8409C101.205 13.5114 101.447 13.2462 101.754 13.0455C102.061 12.8447 102.41 12.6932 102.8 12.5909C103.194 12.4886 103.607 12.4167 104.038 12.375C104.546 12.322 104.955 12.2727 105.266 12.2273C105.576 12.178 105.802 12.1061 105.942 12.0114C106.082 11.9167 106.152 11.7765 106.152 11.5909V11.5568C106.152 11.197 106.038 10.9186 105.811 10.7216C105.588 10.5246 105.269 10.4261 104.857 10.4261C104.421 10.4261 104.074 10.5227 103.817 10.7159C103.559 10.9053 103.389 11.1439 103.305 11.4318L101.067 11.25C101.18 10.7197 101.404 10.2614 101.737 9.875C102.071 9.48485 102.5 9.18561 103.027 8.97727C103.557 8.76515 104.171 8.65909 104.868 8.65909C105.353 8.65909 105.817 8.71591 106.26 8.82955C106.707 8.94318 107.103 9.11932 107.447 9.35795C107.796 9.59659 108.071 9.90341 108.271 10.2784C108.472 10.6496 108.572 11.0947 108.572 11.6136V17.5H106.277V16.2898H106.209C106.069 16.5625 105.881 16.803 105.646 17.0114C105.411 17.2159 105.129 17.3769 104.8 17.4943C104.47 17.608 104.089 17.6648 103.658 17.6648ZM104.351 15.9943C104.707 15.9943 105.021 15.9242 105.294 15.7841C105.567 15.6402 105.781 15.447 105.936 15.2045C106.091 14.9621 106.169 14.6875 106.169 14.3807V13.4545C106.093 13.5038 105.989 13.5492 105.857 13.5909C105.728 13.6288 105.582 13.6648 105.419 13.6989C105.256 13.7292 105.093 13.7576 104.93 13.7841C104.768 13.8068 104.62 13.8277 104.487 13.8466C104.203 13.8883 103.955 13.9545 103.743 14.0455C103.531 14.1364 103.366 14.2595 103.249 14.4148C103.131 14.5663 103.072 14.7557 103.072 14.983C103.072 15.3125 103.192 15.5644 103.43 15.7386C103.673 15.9091 103.98 15.9943 104.351 15.9943ZM111.632 20.7727C111.325 20.7727 111.037 20.7481 110.768 20.6989C110.503 20.6534 110.284 20.5947 110.109 20.5227L110.655 18.7159C110.939 18.803 111.195 18.8504 111.422 18.858C111.653 18.8655 111.852 18.8125 112.018 18.6989C112.189 18.5852 112.327 18.392 112.433 18.1193L112.575 17.75L109.445 8.77273H111.99L113.797 15.1818H113.888L115.712 8.77273H118.274L114.882 18.4432C114.719 18.9129 114.498 19.322 114.217 19.6705C113.941 20.0227 113.59 20.2936 113.166 20.483C112.742 20.6761 112.231 20.7727 111.632 20.7727ZM123.209 17.6705C122.311 17.6705 121.538 17.4886 120.891 17.125C120.247 16.7576 119.75 16.2386 119.402 15.5682C119.054 14.8939 118.879 14.0966 118.879 13.1761C118.879 12.2784 119.054 11.4905 119.402 10.8125C119.75 10.1345 120.241 9.60606 120.874 9.22727C121.51 8.84848 122.256 8.65909 123.112 8.65909C123.688 8.65909 124.224 8.75189 124.72 8.9375C125.22 9.11932 125.656 9.39394 126.027 9.76136C126.402 10.1288 126.694 10.5909 126.902 11.1477C127.11 11.7008 127.214 12.3485 127.214 13.0909V13.7557H119.845V12.2557H124.936C124.936 11.9072 124.86 11.5985 124.709 11.3295C124.557 11.0606 124.347 10.8504 124.078 10.6989C123.813 10.5436 123.504 10.4659 123.152 10.4659C122.785 10.4659 122.459 10.5511 122.175 10.7216C121.894 10.8883 121.675 11.1136 121.516 11.3977C121.357 11.678 121.275 11.9905 121.271 12.3352V13.7614C121.271 14.1932 121.351 14.5663 121.51 14.8807C121.673 15.1951 121.902 15.4375 122.197 15.608C122.493 15.7784 122.843 15.8636 123.249 15.8636C123.518 15.8636 123.764 15.8258 123.987 15.75C124.211 15.6742 124.402 15.5606 124.561 15.4091C124.72 15.2576 124.841 15.072 124.925 14.8523L127.163 15C127.05 15.5379 126.817 16.0076 126.464 16.4091C126.116 16.8068 125.665 17.1174 125.112 17.3409C124.563 17.5606 123.929 17.6705 123.209 17.6705ZM128.794 17.5V8.77273H131.141V10.2955H131.232C131.391 9.75379 131.658 9.3447 132.033 9.06818C132.408 8.78788 132.839 8.64773 133.328 8.64773C133.449 8.64773 133.58 8.6553 133.72 8.67045C133.86 8.68561 133.983 8.70644 134.089 8.73295V10.8807C133.976 10.8466 133.819 10.8163 133.618 10.7898C133.417 10.7633 133.233 10.75 133.067 10.75C132.711 10.75 132.393 10.8277 132.112 10.983C131.836 11.1345 131.616 11.3466 131.453 11.6193C131.294 11.892 131.214 12.2064 131.214 12.5625V17.5H128.794Z" fill="#1F2937"/>
</svg>
