<svg width="84" height="24" viewBox="0 0 84 24" fill="none" xmlns="http://www.w3.org/2000/svg">
<g clip-path="url(#clip0_205_49)">
<path fill-rule="evenodd" clip-rule="evenodd" d="M21.9758 17.1804C22.3242 16.9835 22.4432 16.5471 22.2423 16.2058C22.0412 15.8648 21.5961 15.7478 21.2477 15.9447L11.7403 21.3237L2.2678 15.9647C1.91989 15.7677 1.47466 15.8844 1.27334 16.2258C1.07241 16.5672 1.19182 17.0034 1.53985 17.2003L11.3485 22.7495C11.4337 22.7978 11.5277 22.8287 11.6249 22.8403C11.722 22.8519 11.8206 22.8441 11.9147 22.8173C12.0035 22.8037 12.0891 22.7741 12.1674 22.7299L21.9758 17.1804Z" fill="#737373"/>
<path fill-rule="evenodd" clip-rule="evenodd" d="M22.9534 12.2409C23.0033 11.9398 22.8622 11.6261 22.5759 11.4649L12.2065 5.62661C12.1249 5.58066 12.0357 5.54976 11.9432 5.53538C11.8438 5.50704 11.7397 5.4987 11.637 5.51085C11.5343 5.523 11.4351 5.55539 11.3449 5.60616L0.974861 11.4447C0.673338 11.6146 0.533027 11.9537 0.607363 12.2688C0.574703 12.5285 0.676212 12.8003 0.978389 12.9712L11.3478 18.8378C11.438 18.8887 11.5373 18.9213 11.6401 18.9335C11.7429 18.9457 11.8471 18.9374 11.9466 18.9091C12.0404 18.895 12.1307 18.8638 12.2133 18.8171L22.583 12.9501C22.8878 12.7776 22.9886 12.5028 22.9533 12.241L22.9534 12.2409ZM20.8127 12.2098L11.7573 7.11128L2.70705 12.2071L11.7624 17.3303L20.8127 12.2098Z" fill="#404040"/>
<path fill-rule="evenodd" clip-rule="evenodd" d="M23.5033 7.74814C23.5221 7.45638 23.3746 7.16522 23.0978 7.00945L12.2048 0.876368C12.1191 0.828058 12.0254 0.795559 11.9283 0.780414C11.8238 0.750669 11.7144 0.741946 11.6065 0.754746C11.4986 0.767547 11.3943 0.801618 11.2996 0.855001L0.406235 6.98809C0.09666 7.16252 -0.0512832 7.50675 0.0151567 7.83148C-0.0148873 8.1313 0.132052 8.43491 0.415936 8.59527L11.3089 14.7581C11.4037 14.8116 11.508 14.8458 11.616 14.8586C11.724 14.8715 11.8334 14.8627 11.938 14.833C12.0365 14.8182 12.1314 14.7854 12.2182 14.7363L23.1112 8.57311C23.4144 8.40181 23.5614 8.06733 23.5033 7.74814Z" fill="black"/>
</g>
<path d="M31.05 19.75V5.05H39.66V7.696H33.99V10.993H39.555V13.555H33.99V17.104H39.702V19.75H31.05ZM42.3636 8.095C42.3636 5.89 43.7916 4.42 45.9966 4.42H47.1726V6.835H46.4376C45.5976 6.835 45.1986 7.276 45.1986 8.137V8.83H47.4246V11.245H45.1986V19.75H42.3636V11.245H40.8306V8.83H42.3636V8.095ZM49.3773 8.095C49.3773 5.89 50.8053 4.42 53.0103 4.42H54.1863V6.835H53.4513C52.6113 6.835 52.2123 7.276 52.2123 8.137V8.83H54.4383V11.245H52.2123V19.75H49.3773V11.245H47.8443V8.83H49.3773V8.095ZM60.0836 20.023C56.7026 20.023 54.4346 17.461 54.4346 14.311C54.4346 11.161 56.8076 8.557 60.0836 8.557C63.3596 8.557 65.6276 11.161 65.6276 14.311C65.6276 14.626 65.6066 14.962 65.5436 15.319H57.3746C57.6896 16.6 58.6556 17.503 60.0836 17.503C61.3016 17.503 62.2466 16.873 62.7506 16.033L64.9556 17.692C64.0736 19.057 62.2466 20.023 60.0836 20.023ZM57.3746 13.198H62.7716C62.4566 11.98 61.4276 10.993 60.0416 10.993C58.6976 10.993 57.6896 11.896 57.3746 13.198ZM71.9367 20.023C68.8077 20.023 66.3087 17.461 66.3087 14.29C66.3087 11.119 68.7447 8.578 72.0837 8.557C74.0787 8.536 75.6957 9.313 76.6197 10.594L74.4357 12.379C73.9317 11.623 73.0917 11.14 72.1257 11.14C70.3197 11.14 69.1437 12.589 69.1437 14.29C69.1437 15.991 70.3827 17.44 72.1887 17.44C73.2807 17.44 73.9947 16.894 74.5617 16.138L76.6197 17.923C75.5907 19.246 74.0787 20.023 71.9367 20.023ZM81.8784 19.75C79.7154 19.75 78.5394 18.742 78.5394 16.369V11.245H77.0064V8.83H78.5394V6.625L81.3744 6.331V8.83H83.6844V11.245H81.3744V16.222C81.3744 16.915 81.7104 17.23 82.2564 17.23H83.4324V19.75H81.8784Z" fill="black"/>
<defs>
<clipPath id="clip0_205_49">
<rect width="24" height="24" fill="white"/>
</clipPath>
</defs>
</svg>
