<svg width="84" height="25" viewBox="0 0 84 25" fill="none" xmlns="http://www.w3.org/2000/svg">
<g clip-path="url(#clip0_208_908)">
<path fill-rule="evenodd" clip-rule="evenodd" d="M21.9758 17.3576C22.3242 17.1607 22.4432 16.7244 22.2423 16.383C22.0412 16.0421 21.5961 15.925 21.2477 16.1219L11.7403 21.501L2.2678 16.142C1.91989 15.9449 1.47466 16.0616 1.27334 16.4031C1.07241 16.7444 1.19182 17.1807 1.53985 17.3776L11.3485 22.9268C11.4337 22.9751 11.5277 23.0059 11.6249 23.0176C11.722 23.0292 11.8206 23.0214 11.9147 22.9946C12.0035 22.981 12.0891 22.9514 12.1674 22.9071L21.9758 17.3576Z" fill="white"/>
<path fill-rule="evenodd" clip-rule="evenodd" d="M22.9534 12.4182C23.0033 12.1171 22.8622 11.8034 22.5759 11.6421L12.2065 5.80386C12.1249 5.75791 12.0357 5.72701 11.9432 5.71262C11.8438 5.68428 11.7397 5.67595 11.637 5.68809C11.5343 5.70024 11.4351 5.73263 11.3449 5.78341L0.974861 11.6219C0.673338 11.7918 0.533027 12.1309 0.607363 12.4461C0.574703 12.7058 0.676212 12.9775 0.978389 13.1484L11.3478 19.015C11.438 19.066 11.5373 19.0985 11.6401 19.1107C11.7429 19.123 11.8471 19.1147 11.9466 19.0863C12.0404 19.0722 12.1307 19.041 12.2133 18.9943L22.583 13.1273C22.8878 12.9548 22.9886 12.6801 22.9533 12.4183L22.9534 12.4182ZM20.8127 12.3871L11.7573 7.28853L2.70705 12.3843L11.7624 17.5075L20.8127 12.3871Z" fill="white"/>
<path fill-rule="evenodd" clip-rule="evenodd" d="M23.503 7.92372C23.5214 7.63227 23.3739 7.34156 23.0975 7.18597L12.2045 1.05288C12.1187 1.00457 12.0251 0.972073 11.9279 0.956927C11.8234 0.927182 11.714 0.918459 11.6062 0.93126C11.4983 0.94406 11.394 0.978131 11.2993 1.03151L0.405869 7.1646C0.0958366 7.33929 -0.052086 7.68428 0.0150863 8.00943C-0.0146565 8.30902 0.132275 8.61229 0.415936 8.77251L11.3089 14.9354C11.4037 14.9889 11.508 15.023 11.616 15.0359C11.724 15.0487 11.8334 15.04 11.938 15.0102C12.0365 14.9954 12.1314 14.9627 12.2182 14.9136L23.1112 8.75036C23.4149 8.57876 23.5619 8.24341 23.503 7.92372Z" fill="white"/>
</g>
<path d="M31.05 19.9272V5.22725H39.66V7.87325H33.99V11.1702H39.555V13.7322H33.99V17.2812H39.702V19.9272H31.05ZM42.3636 8.27225C42.3636 6.06725 43.7916 4.59725 45.9966 4.59725H47.1726V7.01225H46.4376C45.5976 7.01225 45.1986 7.45325 45.1986 8.31425V9.00725H47.4246V11.4222H45.1986V19.9272H42.3636V11.4222H40.8306V9.00725H42.3636V8.27225ZM49.3773 8.27225C49.3773 6.06725 50.8053 4.59725 53.0103 4.59725H54.1863V7.01225H53.4513C52.6113 7.01225 52.2123 7.45325 52.2123 8.31425V9.00725H54.4383V11.4222H52.2123V19.9272H49.3773V11.4222H47.8443V9.00725H49.3773V8.27225ZM60.0836 20.2002C56.7026 20.2002 54.4346 17.6382 54.4346 14.4882C54.4346 11.3382 56.8076 8.73425 60.0836 8.73425C63.3596 8.73425 65.6276 11.3382 65.6276 14.4882C65.6276 14.8032 65.6066 15.1392 65.5436 15.4962H57.3746C57.6896 16.7772 58.6556 17.6802 60.0836 17.6802C61.3016 17.6802 62.2466 17.0502 62.7506 16.2102L64.9556 17.8692C64.0736 19.2342 62.2466 20.2002 60.0836 20.2002ZM57.3746 13.3752H62.7716C62.4566 12.1572 61.4276 11.1702 60.0416 11.1702C58.6976 11.1702 57.6896 12.0732 57.3746 13.3752ZM71.9367 20.2002C68.8077 20.2002 66.3087 17.6382 66.3087 14.4672C66.3087 11.2962 68.7447 8.75525 72.0837 8.73425C74.0787 8.71325 75.6957 9.49025 76.6197 10.7712L74.4357 12.5562C73.9317 11.8002 73.0917 11.3172 72.1257 11.3172C70.3197 11.3172 69.1437 12.7662 69.1437 14.4672C69.1437 16.1682 70.3827 17.6172 72.1887 17.6172C73.2807 17.6172 73.9947 17.0712 74.5617 16.3152L76.6197 18.1002C75.5907 19.4232 74.0787 20.2002 71.9367 20.2002ZM81.8784 19.9272C79.7154 19.9272 78.5394 18.9192 78.5394 16.5462V11.4222H77.0064V9.00725H78.5394V6.80225L81.3744 6.50824V9.00725H83.6844V11.4222H81.3744V16.3992C81.3744 17.0922 81.7104 17.4072 82.2564 17.4072H83.4324V19.9272H81.8784Z" fill="white"/>
<defs>
<clipPath id="clip0_208_908">
<rect width="24" height="24" fill="white" transform="translate(0 0.177246)"/>
</clipPath>
</defs>
</svg>
