<svg width="59" height="24" viewBox="0 0 59 24" fill="none" xmlns="http://www.w3.org/2000/svg">
<g clip-path="url(#clip0_211_20)">
<mask id="mask0_211_20" style="mask-type:luminance" maskUnits="userSpaceOnUse" x="0" y="0" width="59" height="24">
<path d="M58.7943 0H0V23.8996H58.7943V0Z" fill="white"/>
</mask>
<g mask="url(#mask0_211_20)">
<path d="M13.4855 23.7745V17.7536L13.611 17.6279H14.8653L14.9908 17.7536V23.7745L14.8653 23.9001H13.611L13.4855 23.7745Z" fill="black"/>
<path d="M13.4855 6.14612V0.125557L13.611 0H14.8653L14.9908 0.125557V6.14612L14.8653 6.27168H13.611L13.4855 6.14612Z" fill="black"/>
<path d="M8.03303 19.434H7.85567L6.96887 18.5468V18.3694L9.03967 16.2991L9.97871 16.2996L10.1047 16.4246V17.3637L8.03303 19.434Z" fill="black"/>
<path d="M8.03205 4.46603H7.85469L6.9679 5.35328V5.53063L9.03869 7.601L9.97774 7.60056L10.1037 7.47544V6.53641L8.03205 4.46603Z" fill="black"/>
<path d="M0.125557 11.1974H8.65505L8.78061 11.3229V12.5771L8.65505 12.7028H0.125557L0 12.5771V11.3229L0.125557 11.1974Z" fill="black"/>
<path d="M50.641 11.1974H58.6691L58.7947 11.3229V12.5771L58.6691 12.7028H50.1397L50.014 12.5771L50.5154 11.3229L50.641 11.1974Z" fill="black"/>
<path d="M24.351 12.4854L24.2255 12.611H20.3345L20.209 12.7365C20.209 12.9877 20.4601 13.7405 21.4641 13.7405C21.8407 13.7405 22.2169 13.615 22.3425 13.3639L22.4681 13.2384H23.9743L24.0998 13.3639C23.9743 14.1168 23.347 15.2468 21.4641 15.2468C19.3305 15.2468 18.326 13.7405 18.326 11.9836C18.326 10.2267 19.33 8.72047 21.3385 8.72047C23.347 8.72047 24.351 10.2267 24.351 11.9836V12.4859V12.4854ZM22.4681 11.2303C22.4681 11.1047 22.3425 10.2263 21.3385 10.2263C20.3345 10.2263 20.209 11.1047 20.209 11.2303L20.3345 11.3558H22.3425L22.4681 11.2303Z" fill="black"/>
<path d="M27.8653 13.2384C27.8653 13.4894 27.9908 13.615 28.242 13.615H29.3714L29.4971 13.7405V14.9956L29.3714 15.1213H28.242C27.1123 15.1213 26.1084 14.619 26.1084 13.2384V10.477L25.9827 10.3514H25.1044L24.9788 10.2258V8.97071L25.1044 8.84515H25.9827L26.1084 8.7196V7.59003L26.2339 7.46447H27.7401L27.8656 7.59003V8.7196L27.9913 8.84515H29.3719L29.4975 8.97071V10.2258L29.3719 10.3514H27.9913L27.8656 10.477V13.2384H27.8653Z" fill="black"/>
<path d="M32.5091 15.1213H31.0028L30.8772 14.9956V6.46089L31.0028 6.33533H32.5091L32.6346 6.46089V14.9956L32.5091 15.1213Z" fill="black"/>
<path d="M35.8978 7.84158H34.3915L34.2659 7.71602V6.46089L34.3915 6.33533H35.8978L36.0233 6.46089V7.71602L35.8978 7.84158ZM35.8978 15.1213H34.3915L34.2659 14.9956V8.97114L34.3915 8.8456H35.8978L36.0233 8.97114V14.9956L35.8978 15.1213Z" fill="black"/>
<path d="M41.7967 6.46089V7.71602L41.6711 7.84158H40.5416C40.2905 7.84158 40.1648 7.96714 40.1648 8.21824V8.72048L40.2905 8.84603H41.5456L41.6711 8.97159V10.2267L41.5456 10.3523H40.2905L40.1648 10.4778V14.9961L40.0393 15.1216H38.5331L38.4076 14.9961V10.4778L38.2819 10.3523H37.4036L37.278 10.2267V8.97159L37.4036 8.84603H38.2819L38.4076 8.72048V8.21824C38.4076 6.83757 39.4115 6.33533 40.5411 6.33533H41.6706L41.7963 6.46089H41.7967Z" fill="black"/>
<path d="M46.4405 15.2468C45.9383 16.5019 45.4366 17.2549 43.6792 17.2549H43.0514L42.9259 17.1292V15.8741L43.0514 15.7486H43.6792C44.3065 15.7486 44.432 15.623 44.5576 15.2463V15.1208L42.5496 10.2258V8.9707L42.6752 8.84515H43.8047L43.9303 8.9707L45.4366 13.2384H45.5621L47.0683 8.9707L47.1938 8.84515H48.3235L48.449 8.9707V10.2258L46.441 15.2463L46.4405 15.2468Z" fill="black"/>
<path d="M15.5546 15.1213L15.4291 14.9956L15.4299 11.3589C15.4299 10.7316 15.1832 10.2451 14.4259 10.2293C14.0365 10.2192 13.5909 10.2285 13.115 10.2487L13.0439 10.3215L13.0448 14.9956L12.9192 15.1213H11.4134L11.2878 14.9956V8.90398L11.4134 8.77842L14.8021 8.74769C16.4998 8.74769 17.1868 9.91413 17.1868 11.2307V14.9956L17.0613 15.1213H15.5546Z" fill="black"/>
</g>
</g>
<defs>
<clipPath id="clip0_211_20">
<rect width="58.7943" height="24" fill="white"/>
</clipPath>
</defs>
</svg>
