<svg width="47" height="24" viewBox="0 0 47 24" fill="none" xmlns="http://www.w3.org/2000/svg">
<g clip-path="url(#clip0_206_125)">
<path opacity="0.239216" d="M1.99921 0L2.0521 0.010582L1.99921 0.021164V0Z" fill="#71717A" stroke="#71717A" stroke-width="0.0813954"/>
<path opacity="0.239216" d="M44.3538 0L44.4067 0.010582L44.3538 0.021164V0Z" fill="#71717A" stroke="#71717A" stroke-width="0.0813954"/>
<path opacity="0.239216" d="M45.4116 0.359792L45.4327 0.40212L45.4116 0.359792Z" fill="#71717A" stroke="#71717A" stroke-width="0.0813954"/>
<path opacity="0.239216" d="M0.920326 0.402135L0.89917 0.444463L0.920326 0.402135Z" fill="#71717A" stroke="#71717A" stroke-width="0.0813954"/>
<path opacity="0.239216" d="M45.4962 0.423266L45.5173 0.465594L45.4962 0.423266Z" fill="#71717A" stroke="#71717A" stroke-width="0.0813954"/>
<path opacity="0.239216" d="M0.83564 0.465609L0.814484 0.507937L0.83564 0.465609Z" fill="#71717A" stroke="#71717A" stroke-width="0.0813954"/>
<path opacity="0.239216" d="M45.5809 0.486767L45.6232 0.550259L45.5809 0.486767Z" fill="#71717A" stroke="#71717A" stroke-width="0.0813954"/>
<path opacity="0.239216" d="M0.708785 0.571425L0.581848 0.719574L0.708785 0.571425Z" fill="#71717A" stroke="#71717A" stroke-width="0.0813954"/>
<path opacity="0.239216" d="M45.8559 0.7619L45.8982 0.825392L45.8559 0.7619Z" fill="#71717A" stroke="#71717A" stroke-width="0.0813954"/>
<path opacity="0.239216" d="M0.4972 0.804216L0.476044 0.846544L0.4972 0.804216Z" fill="#71717A" stroke="#71717A" stroke-width="0.0813954"/>
<path opacity="0.239216" d="M45.9405 0.867717L45.9616 0.910045L45.9405 0.867717Z" fill="#71717A" stroke="#71717A" stroke-width="0.0813954"/>
<path opacity="0.239216" d="M0.433693 0.888875L0.412537 0.931203L0.433693 0.888875Z" fill="#71717A" stroke="#71717A" stroke-width="0.0813954"/>
<path opacity="0.239216" d="M0.0105781 1.98941L0.0211561 2.04232H0L0.0105781 1.98941Z" fill="#71717A" stroke="#71717A" stroke-width="0.0813954"/>
<path opacity="0.239216" d="M46.3848 2.07407L46.3954 21.9153H46.3742L46.3848 2.07407Z" fill="#71717A" stroke="#71717A" stroke-width="0.0813954"/>
<path opacity="0.239216" d="M33.1622 4.95238L33.1833 4.99471L33.1622 4.95238Z" fill="#71717A" stroke="#71717A" stroke-width="0.0813954"/>
<path opacity="0.239216" d="M31.7659 4.9947L31.7448 5.03702L31.7659 4.9947Z" fill="#71717A" stroke="#71717A" stroke-width="0.0813954"/>
<path opacity="0.239216" d="M33.2257 4.9947L33.268 5.05819L33.2257 4.9947Z" fill="#71717A" stroke="#71717A" stroke-width="0.0813954"/>
<path opacity="0.239216" d="M8.74808 5.10054L8.90675 5.11112L8.74808 5.1217V5.10054Z" fill="#71717A" stroke="#71717A" stroke-width="0.0813954"/>
<path opacity="0.239216" d="M8.36722 5.1217L8.42011 5.13228L8.36722 5.14286V5.1217Z" fill="#71717A" stroke="#71717A" stroke-width="0.0813954"/>
<path opacity="0.239216" d="M33.4161 5.18517L33.4372 5.2275L33.4161 5.18517Z" fill="#71717A" stroke="#71717A" stroke-width="0.0813954"/>
<path opacity="0.239216" d="M31.5543 5.20635L31.5332 5.24868L31.5543 5.20635Z" fill="#71717A" stroke="#71717A" stroke-width="0.0813954"/>
<path opacity="0.239216" d="M33.4796 5.26986L33.5007 5.31218L33.4796 5.26986Z" fill="#71717A" stroke="#71717A" stroke-width="0.0813954"/>
<path opacity="0.239216" d="M23.6208 5.29101L23.6419 5.33334L23.6208 5.29101Z" fill="#71717A" stroke="#71717A" stroke-width="0.0813954"/>
<path opacity="0.239216" d="M23.6843 5.33333L23.7054 5.37566L23.6843 5.33333Z" fill="#71717A" stroke="#71717A" stroke-width="0.0813954"/>
<path opacity="0.239216" d="M31.4697 5.33333L31.4485 5.37566L31.4697 5.33333Z" fill="#71717A" stroke="#71717A" stroke-width="0.0813954"/>
<path opacity="0.239216" d="M23.8112 5.43915L23.8535 5.50264L23.8112 5.43915Z" fill="#71717A" stroke="#71717A" stroke-width="0.0813954"/>
<path opacity="0.239216" d="M23.917 5.56612L23.9381 5.60845L23.917 5.56612Z" fill="#71717A" stroke="#71717A" stroke-width="0.0813954"/>
<path opacity="0.239216" d="M31.3005 5.8201L31.3111 5.87301H31.2899L31.3005 5.8201Z" fill="#71717A" stroke="#71717A" stroke-width="0.0813954"/>
<path opacity="0.239216" d="M6.23048 5.86244L6.20932 5.90477L6.23048 5.86244Z" fill="#71717A" stroke="#71717A" stroke-width="0.0813954"/>
<path opacity="0.239216" d="M33.6911 5.86244L33.7016 12.2434H33.6805L33.6911 5.86244Z" fill="#71717A" stroke="#71717A" stroke-width="0.0813954"/>
<path opacity="0.239216" d="M6.167 5.90475L6.14584 5.94708L6.167 5.90475Z" fill="#71717A" stroke="#71717A" stroke-width="0.0813954"/>
<path opacity="0.239216" d="M6.0189 6.01057L5.99774 6.0529L6.0189 6.01057Z" fill="#71717A" stroke="#71717A" stroke-width="0.0813954"/>
<path opacity="0.239216" d="M5.93427 6.07407L5.91312 6.1164L5.93427 6.07407Z" fill="#71717A" stroke="#71717A" stroke-width="0.0813954"/>
<path opacity="0.239216" d="M5.84969 6.13755L5.80737 6.20104L5.84969 6.13755Z" fill="#71717A" stroke="#71717A" stroke-width="0.0813954"/>
<path opacity="0.239216" d="M24.1708 6.22223L24.1814 6.40213H24.1602L24.1708 6.22223Z" fill="#71717A" stroke="#71717A" stroke-width="0.0813954"/>
<path opacity="0.239216" d="M5.72268 6.24339L5.65921 6.32804L5.72268 6.24339Z" fill="#71717A" stroke="#71717A" stroke-width="0.0813954"/>
<path opacity="0.239216" d="M5.51115 6.43386L5.38422 6.58201L5.51115 6.43386Z" fill="#71717A" stroke="#71717A" stroke-width="0.0813954"/>
<path opacity="0.239216" d="M5.25732 6.709L5.19385 6.79365L5.25732 6.709Z" fill="#71717A" stroke="#71717A" stroke-width="0.0813954"/>
<path opacity="0.239216" d="M5.13039 6.85713L5.08807 6.92062L5.13039 6.85713Z" fill="#71717A" stroke="#71717A" stroke-width="0.0813954"/>
<path opacity="0.239216" d="M5.04575 6.96297L5.0246 7.0053L5.04575 6.96297Z" fill="#71717A" stroke="#71717A" stroke-width="0.0813954"/>
<path opacity="0.239216" d="M23.9805 6.96297L23.9593 7.0053L23.9805 6.96297Z" fill="#71717A" stroke="#71717A" stroke-width="0.0813954"/>
<path opacity="0.239216" d="M23.9382 7.02647L23.8958 7.08997L23.9382 7.02647Z" fill="#71717A" stroke="#71717A" stroke-width="0.0813954"/>
<path opacity="0.239216" d="M4.98228 7.04761L4.96112 7.08993L4.98228 7.04761Z" fill="#71717A" stroke="#71717A" stroke-width="0.0813954"/>
<path opacity="0.239216" d="M23.7266 7.23808L23.7054 7.28041L23.7266 7.23808Z" fill="#71717A" stroke="#71717A" stroke-width="0.0813954"/>
<path opacity="0.239216" d="M8.55765 7.51324L8.61054 7.52382L8.55765 7.5344V7.51324Z" fill="#71717A" stroke="#71717A" stroke-width="0.0813954"/>
<path opacity="0.239216" d="M7.45753 7.93651L7.43637 7.97883L7.45753 7.93651Z" fill="#71717A" stroke="#71717A" stroke-width="0.0813954"/>
<path opacity="0.239216" d="M7.3729 7.99998L7.35175 8.04231L7.3729 7.99998Z" fill="#71717A" stroke="#71717A" stroke-width="0.0813954"/>
<path opacity="0.239216" d="M7.26711 8.08467L7.03439 8.33863L7.26711 8.08467Z" fill="#71717A" stroke="#71717A" stroke-width="0.0813954"/>
<path opacity="0.239216" d="M6.97089 8.40212L6.94974 8.44444L6.97089 8.40212Z" fill="#71717A" stroke="#71717A" stroke-width="0.0813954"/>
<path opacity="0.239216" d="M6.90748 8.48677L6.88632 8.5291L6.90748 8.48677Z" fill="#71717A" stroke="#71717A" stroke-width="0.0813954"/>
<path opacity="0.239216" d="M6.82285 8.61375L6.8017 8.65608L6.82285 8.61375Z" fill="#71717A" stroke="#71717A" stroke-width="0.0813954"/>
<path opacity="0.239216" d="M4.07253 9.46033L4.08311 9.51324H4.06195L4.07253 9.46033Z" fill="#71717A" stroke="#71717A" stroke-width="0.0813954"/>
<path opacity="0.239216" d="M6.46321 9.65081L6.47379 9.70372H6.45264L6.46321 9.65081Z" fill="#71717A" stroke="#71717A" stroke-width="0.0813954"/>
<path opacity="0.239216" d="M6.46321 10.0529L6.47379 10.1058H6.45264L6.46321 10.0529Z" fill="#71717A" stroke="#71717A" stroke-width="0.0813954"/>
<path opacity="0.239216" d="M4.07253 10.2434L4.08311 10.2963H4.06195L4.07253 10.2434Z" fill="#71717A" stroke="#71717A" stroke-width="0.0813954"/>
<path opacity="0.239216" d="M6.8017 11.1111L6.82285 11.1534L6.8017 11.1111Z" fill="#71717A" stroke="#71717A" stroke-width="0.0813954"/>
<path opacity="0.239216" d="M6.88632 11.2381L6.90748 11.2804L6.88632 11.2381Z" fill="#71717A" stroke="#71717A" stroke-width="0.0813954"/>
<path opacity="0.239216" d="M6.94974 11.3228L6.97089 11.3651L6.94974 11.3228Z" fill="#71717A" stroke="#71717A" stroke-width="0.0813954"/>
<path opacity="0.239216" d="M7.03439 11.4286L7.26711 11.6826L7.03439 11.4286Z" fill="#71717A" stroke="#71717A" stroke-width="0.0813954"/>
<path opacity="0.239216" d="M7.35175 11.7249L7.39406 11.7883L7.35175 11.7249Z" fill="#71717A" stroke="#71717A" stroke-width="0.0813954"/>
<path opacity="0.239216" d="M40.2495 12.254L40.3024 12.2645L40.2495 12.2751V12.254Z" fill="#71717A" stroke="#71717A" stroke-width="0.0813954"/>
<path opacity="0.239216" d="M4.7496 12.3598L4.77076 12.4021L4.7496 12.3598Z" fill="#71717A" stroke="#71717A" stroke-width="0.0813954"/>
<path opacity="0.239216" d="M40.7996 12.4233L40.8207 12.4656L40.7996 12.4233Z" fill="#71717A" stroke="#71717A" stroke-width="0.0813954"/>
<path opacity="0.239216" d="M40.863 12.4656L40.8842 12.5079L40.863 12.4656Z" fill="#71717A" stroke="#71717A" stroke-width="0.0813954"/>
<path opacity="0.239216" d="M40.9688 12.5503L41.0746 12.6773L40.9688 12.5503Z" fill="#71717A" stroke="#71717A" stroke-width="0.0813954"/>
<path opacity="0.239216" d="M4.91879 12.6138L4.93995 12.6561L4.91879 12.6138Z" fill="#71717A" stroke="#71717A" stroke-width="0.0813954"/>
<path opacity="0.239216" d="M4.96112 12.6773L4.98228 12.7196L4.96112 12.6773Z" fill="#71717A" stroke="#71717A" stroke-width="0.0813954"/>
<path opacity="0.239216" d="M41.1169 12.7196L41.138 12.7619L41.1169 12.7196Z" fill="#71717A" stroke="#71717A" stroke-width="0.0813954"/>
<path opacity="0.239216" d="M5.0246 12.7619L5.06691 12.8254L5.0246 12.7619Z" fill="#71717A" stroke="#71717A" stroke-width="0.0813954"/>
<path opacity="0.239216" d="M5.10916 12.8677L5.15147 12.9312L5.10916 12.8677Z" fill="#71717A" stroke="#71717A" stroke-width="0.0813954"/>
<path opacity="0.239216" d="M5.21497 12.9947L5.27843 13.0794L5.21497 12.9947Z" fill="#71717A" stroke="#71717A" stroke-width="0.0813954"/>
<path opacity="0.239216" d="M5.63812 13.418L5.70159 13.5027L5.63812 13.418Z" fill="#71717A" stroke="#71717A" stroke-width="0.0813954"/>
<path opacity="0.239216" d="M5.78616 13.545L5.82848 13.6085L5.78616 13.545Z" fill="#71717A" stroke="#71717A" stroke-width="0.0813954"/>
<path opacity="0.239216" d="M5.89197 13.6296L5.93428 13.6931L5.89197 13.6296Z" fill="#71717A" stroke="#71717A" stroke-width="0.0813954"/>
<path opacity="0.239216" d="M5.99774 13.7143L6.0189 13.7566L5.99774 13.7143Z" fill="#71717A" stroke="#71717A" stroke-width="0.0813954"/>
<path opacity="0.239216" d="M6.06122 13.7566L6.08237 13.799L6.06122 13.7566Z" fill="#71717A" stroke="#71717A" stroke-width="0.0813954"/>
<path opacity="0.239216" d="M6.31506 13.9259L6.33622 13.9682L6.31506 13.9259Z" fill="#71717A" stroke="#71717A" stroke-width="0.0813954"/>
<path opacity="0.239216" d="M41.1804 14.0952L41.1592 14.1376L41.1804 14.0952Z" fill="#71717A" stroke="#71717A" stroke-width="0.0813954"/>
<path opacity="0.239216" d="M41.138 14.1587L41.1169 14.201L41.138 14.1587Z" fill="#71717A" stroke="#71717A" stroke-width="0.0813954"/>
<path opacity="0.239216" d="M41.0323 14.2857L41.0111 14.328L41.0323 14.2857Z" fill="#71717A" stroke="#71717A" stroke-width="0.0813954"/>
<path opacity="0.239216" d="M40.9053 14.3915L40.8842 14.4339L40.9053 14.3915Z" fill="#71717A" stroke="#71717A" stroke-width="0.0813954"/>
<path opacity="0.239216" d="M40.7784 14.4762L40.7573 14.5185L40.7784 14.4762Z" fill="#71717A" stroke="#71717A" stroke-width="0.0813954"/>
<path opacity="0.239216" d="M8.19803 14.6032L8.25092 14.6137L8.19803 14.6243V14.6032Z" fill="#71717A" stroke="#71717A" stroke-width="0.0813954"/>
<path opacity="0.239216" d="M8.40955 14.6243L8.46244 14.6349L8.40955 14.6455V14.6243Z" fill="#71717A" stroke="#71717A" stroke-width="0.0813954"/>
<path opacity="0.239216" d="M8.74808 14.6455L31.2899 14.6561L8.74808 14.6667V14.6455Z" fill="#71717A" stroke="#71717A" stroke-width="0.0813954"/>
<path opacity="0.239216" d="M33.7122 14.6455L40.2389 14.6561L33.7016 14.6667L33.6911 19.2381L33.6805 14.6773L33.7122 14.6455Z" fill="#71717A" stroke="#71717A" stroke-width="0.0813954"/>
<path opacity="0.239216" d="M24.9113 16.8889L24.9642 16.8995L24.9113 16.9101V16.8889Z" fill="#71717A" stroke="#71717A" stroke-width="0.0813954"/>
<path opacity="0.239216" d="M25.2287 16.8889L25.2816 16.8995L25.2287 16.9101V16.8889Z" fill="#71717A" stroke="#71717A" stroke-width="0.0813954"/>
<path opacity="0.239216" d="M24.3612 17.1217L24.3401 17.164L24.3612 17.1217Z" fill="#71717A" stroke="#71717A" stroke-width="0.0813954"/>
<path opacity="0.239216" d="M25.821 17.1217L25.8634 17.1852L25.821 17.1217Z" fill="#71717A" stroke="#71717A" stroke-width="0.0813954"/>
<path opacity="0.239216" d="M26.0115 17.3122L26.0326 17.3545L26.0115 17.3122Z" fill="#71717A" stroke="#71717A" stroke-width="0.0813954"/>
<path opacity="0.239216" d="M24.1497 17.3333L24.1285 17.3757L24.1497 17.3333Z" fill="#71717A" stroke="#71717A" stroke-width="0.0813954"/>
<path opacity="0.239216" d="M26.0749 17.3968L26.096 17.4391L26.0749 17.3968Z" fill="#71717A" stroke="#71717A" stroke-width="0.0813954"/>
<path opacity="0.239216" d="M23.8958 17.9471L23.9064 18H23.8853L23.8958 17.9471Z" fill="#71717A" stroke="#71717A" stroke-width="0.0813954"/>
<path opacity="0.239216" d="M26.2865 17.9894L26.297 18.2116H26.2759L26.2865 17.9894Z" fill="#71717A" stroke="#71717A" stroke-width="0.0813954"/>
<path opacity="0.239216" d="M26.2653 18.5185L26.2759 18.5714H26.2547L26.2653 18.5185Z" fill="#71717A" stroke="#71717A" stroke-width="0.0813954"/>
<path opacity="0.239216" d="M26.2442 18.7302L26.2547 18.7831H26.2336L26.2442 18.7302Z" fill="#71717A" stroke="#71717A" stroke-width="0.0813954"/>
<path opacity="0.239216" d="M33.6911 19.2804L33.7016 19.3968H33.6805L33.6911 19.2804Z" fill="#71717A" stroke="#71717A" stroke-width="0.0813954"/>
<path opacity="0.239216" d="M31.3005 19.4709L31.3111 19.5661H31.2899L31.3005 19.4709Z" fill="#71717A" stroke="#71717A" stroke-width="0.0813954"/>
<path opacity="0.239216" d="M31.3216 19.746L31.3322 19.7989H31.311L31.3216 19.746Z" fill="#71717A" stroke="#71717A" stroke-width="0.0813954"/>
<path opacity="0.239216" d="M23.3246 19.9577L23.3035 20L23.3246 19.9577Z" fill="#71717A" stroke="#71717A" stroke-width="0.0813954"/>
<path opacity="0.239216" d="M23.2823 20.0211L23.2611 20.0635L23.2823 20.0211Z" fill="#71717A" stroke="#71717A" stroke-width="0.0813954"/>
<path opacity="0.239216" d="M23.24 20.0847L23.2188 20.127L23.24 20.0847Z" fill="#71717A" stroke="#71717A" stroke-width="0.0813954"/>
<path opacity="0.239216" d="M23.1765 20.1693L23.1554 20.2116L23.1765 20.1693Z" fill="#71717A" stroke="#71717A" stroke-width="0.0813954"/>
<path opacity="0.239216" d="M23.0919 20.2751L23.0496 20.3386L23.0919 20.2751Z" fill="#71717A" stroke="#71717A" stroke-width="0.0813954"/>
<path opacity="0.239216" d="M22.9861 20.4021L22.7111 20.6984L22.9861 20.4021Z" fill="#71717A" stroke="#71717A" stroke-width="0.0813954"/>
<path opacity="0.239216" d="M34.0508 20.4868L34.0719 20.5291L34.0508 20.4868Z" fill="#71717A" stroke="#71717A" stroke-width="0.0813954"/>
<path opacity="0.239216" d="M34.0931 20.5503L34.1143 20.5926L34.0931 20.5503Z" fill="#71717A" stroke="#71717A" stroke-width="0.0813954"/>
<path opacity="0.239216" d="M34.1565 20.6349L34.1777 20.6772L34.1565 20.6349Z" fill="#71717A" stroke="#71717A" stroke-width="0.0813954"/>
<path opacity="0.239216" d="M34.22 20.7196L34.2623 20.7831L34.22 20.7196Z" fill="#71717A" stroke="#71717A" stroke-width="0.0813954"/>
<path opacity="0.239216" d="M22.6053 20.7619L22.563 20.8254L22.6053 20.7619Z" fill="#71717A" stroke="#71717A" stroke-width="0.0813954"/>
<path opacity="0.239216" d="M22.4995 20.8466L22.4784 20.8889L22.4995 20.8466Z" fill="#71717A" stroke="#71717A" stroke-width="0.0813954"/>
<path opacity="0.239216" d="M22.4149 20.9101L22.3938 20.9524L22.4149 20.9101Z" fill="#71717A" stroke="#71717A" stroke-width="0.0813954"/>
<path opacity="0.239216" d="M34.5162 21.0159L34.5585 21.0794L34.5162 21.0159Z" fill="#71717A" stroke="#71717A" stroke-width="0.0813954"/>
<path opacity="0.239216" d="M34.6431 21.1217L34.6643 21.164L34.6431 21.1217Z" fill="#71717A" stroke="#71717A" stroke-width="0.0813954"/>
<path opacity="0.239216" d="M34.7066 21.164L34.7278 21.2064L34.7066 21.164Z" fill="#71717A" stroke="#71717A" stroke-width="0.0813954"/>
<path opacity="0.239216" d="M25.3768 21.2064L25.3556 21.2487L25.3768 21.2064Z" fill="#71717A" stroke="#71717A" stroke-width="0.0813954"/>
<path opacity="0.239216" d="M25.2498 21.3968L25.2287 21.4392L25.2498 21.3968Z" fill="#71717A" stroke="#71717A" stroke-width="0.0813954"/>
<path opacity="0.239216" d="M25.2075 21.4603L25.1864 21.5026L25.2075 21.4603Z" fill="#71717A" stroke="#71717A" stroke-width="0.0813954"/>
<path opacity="0.239216" d="M25.1441 21.545L25.1229 21.5873L25.1441 21.545Z" fill="#71717A" stroke="#71717A" stroke-width="0.0813954"/>
<path opacity="0.239216" d="M20.4474 21.5873L20.5638 21.5979L20.4474 21.6085V21.5873Z" fill="#71717A" stroke="#71717A" stroke-width="0.0813954"/>
<path opacity="0.239216" d="M35.8279 21.5873L35.8807 21.5979L35.8279 21.6085V21.5873Z" fill="#71717A" stroke="#71717A" stroke-width="0.0813954"/>
<path opacity="0.239216" d="M25.1017 21.6085L25.0594 21.6719L25.1017 21.6085Z" fill="#71717A" stroke="#71717A" stroke-width="0.0813954"/>
<path opacity="0.239216" d="M31.9352 21.6296L31.9563 21.672L31.9352 21.6296Z" fill="#71717A" stroke="#71717A" stroke-width="0.0813954"/>
<path opacity="0.239216" d="M25.0171 21.7143L24.9959 21.7566L25.0171 21.7143Z" fill="#71717A" stroke="#71717A" stroke-width="0.0813954"/>
<path opacity="0.239216" d="M31.9986 21.7355L32.0198 21.7778L31.9986 21.7355Z" fill="#71717A" stroke="#71717A" stroke-width="0.0813954"/>
<path opacity="0.239216" d="M24.9324 21.8201L24.8901 21.8836L24.9324 21.8201Z" fill="#71717A" stroke="#71717A" stroke-width="0.0813954"/>
<path opacity="0.239216" d="M32.1255 21.9259L32.1467 21.9683L32.1255 21.9259Z" fill="#71717A" stroke="#71717A" stroke-width="0.0813954"/>
<path opacity="0.239216" d="M24.8267 21.9471L24.7421 22.0529L24.8267 21.9471Z" fill="#71717A" stroke="#71717A" stroke-width="0.0813954"/>
<path opacity="0.239216" d="M0.0105781 21.9683L0.0211561 22.0212H0L0.0105781 21.9683Z" fill="#71717A" stroke="#71717A" stroke-width="0.0813954"/>
<path opacity="0.239216" d="M32.1679 21.9894L32.1891 22.0317L32.1679 21.9894Z" fill="#71717A" stroke="#71717A" stroke-width="0.0813954"/>
<path opacity="0.239216" d="M32.2313 22.0741L32.2525 22.1164L32.2313 22.0741Z" fill="#71717A" stroke="#71717A" stroke-width="0.0813954"/>
<path opacity="0.239216" d="M32.2948 22.1587L32.316 22.2011L32.2948 22.1587Z" fill="#71717A" stroke="#71717A" stroke-width="0.0813954"/>
<path opacity="0.239216" d="M32.3794 22.2645L32.4217 22.328L32.3794 22.2645Z" fill="#71717A" stroke="#71717A" stroke-width="0.0813954"/>
<path opacity="0.239216" d="M32.5063 22.4127L32.6333 22.5608L32.5063 22.4127Z" fill="#71717A" stroke="#71717A" stroke-width="0.0813954"/>
<path opacity="0.239216" d="M24.3189 22.455L24.2555 22.5397L24.3189 22.455Z" fill="#71717A" stroke="#71717A" stroke-width="0.0813954"/>
<path opacity="0.239216" d="M24.1497 22.6032L24.1074 22.6667L24.1497 22.6032Z" fill="#71717A" stroke="#71717A" stroke-width="0.0813954"/>
<path opacity="0.239216" d="M32.7391 22.6455L32.866 22.7937L32.7391 22.6455Z" fill="#71717A" stroke="#71717A" stroke-width="0.0813954"/>
<path opacity="0.239216" d="M24.0439 22.6878L24.0016 22.7513L24.0439 22.6878Z" fill="#71717A" stroke="#71717A" stroke-width="0.0813954"/>
<path opacity="0.239216" d="M23.9381 22.7725L23.917 22.8148L23.9381 22.7725Z" fill="#71717A" stroke="#71717A" stroke-width="0.0813954"/>
<path opacity="0.239216" d="M23.8535 22.836L23.8324 22.8783L23.8535 22.836Z" fill="#71717A" stroke="#71717A" stroke-width="0.0813954"/>
<path opacity="0.239216" d="M32.9718 22.8571L33.0141 22.9206L32.9718 22.8571Z" fill="#71717A" stroke="#71717A" stroke-width="0.0813954"/>
<path opacity="0.239216" d="M23.79 22.8783L23.7689 22.9207L23.79 22.8783Z" fill="#71717A" stroke="#71717A" stroke-width="0.0813954"/>
<path opacity="0.239216" d="M46.0674 22.9418L46.0462 22.9841L46.0674 22.9418Z" fill="#71717A" stroke="#71717A" stroke-width="0.0813954"/>
<path opacity="0.239216" d="M33.0988 22.963L33.1199 23.0053L33.0988 22.963Z" fill="#71717A" stroke="#71717A" stroke-width="0.0813954"/>
<path opacity="0.239216" d="M0.349121 22.9841L0.370277 23.0264L0.349121 22.9841Z" fill="#71717A" stroke="#71717A" stroke-width="0.0813954"/>
<path opacity="0.239216" d="M46.0251 23.0053L46.004 23.0476L46.0251 23.0053Z" fill="#71717A" stroke="#71717A" stroke-width="0.0813954"/>
<path opacity="0.239216" d="M33.1834 23.0265L33.2045 23.0688L33.1834 23.0265Z" fill="#71717A" stroke="#71717A" stroke-width="0.0813954"/>
<path opacity="0.239216" d="M0.391357 23.0476L0.412514 23.0899L0.391357 23.0476Z" fill="#71717A" stroke="#71717A" stroke-width="0.0813954"/>
<path opacity="0.239216" d="M45.9828 23.0688L45.9617 23.1111L45.9828 23.0688Z" fill="#71717A" stroke="#71717A" stroke-width="0.0813954"/>
<path opacity="0.239216" d="M23.4727 23.0899L23.4516 23.1323L23.4727 23.0899Z" fill="#71717A" stroke="#71717A" stroke-width="0.0813954"/>
<path opacity="0.239216" d="M33.2679 23.0899L33.2891 23.1323L33.2679 23.0899Z" fill="#71717A" stroke="#71717A" stroke-width="0.0813954"/>
<path opacity="0.239216" d="M0.454834 23.1323L0.47599 23.1746L0.454834 23.1323Z" fill="#71717A" stroke="#71717A" stroke-width="0.0813954"/>
<path opacity="0.239216" d="M45.9193 23.1534L45.8982 23.1958L45.9193 23.1534Z" fill="#71717A" stroke="#71717A" stroke-width="0.0813954"/>
<path opacity="0.239216" d="M0.518311 23.2169L0.602935 23.3228L0.518311 23.2169Z" fill="#71717A" stroke="#71717A" stroke-width="0.0813954"/>
<path opacity="0.239216" d="M45.8136 23.2804L45.6655 23.4497L45.8136 23.2804Z" fill="#71717A" stroke="#71717A" stroke-width="0.0813954"/>
<path opacity="0.239216" d="M0.687592 23.3863L0.772216 23.4921L0.687592 23.3863Z" fill="#71717A" stroke="#71717A" stroke-width="0.0813954"/>
<path opacity="0.239216" d="M45.5808 23.4921L45.5385 23.5556L45.5808 23.4921Z" fill="#71717A" stroke="#71717A" stroke-width="0.0813954"/>
<path opacity="0.239216" d="M0.856842 23.5344L0.877998 23.5767L0.856842 23.5344Z" fill="#71717A" stroke="#71717A" stroke-width="0.0813954"/>
<path opacity="0.239216" d="M45.4751 23.5767L45.4539 23.6191L45.4751 23.5767Z" fill="#71717A" stroke="#71717A" stroke-width="0.0813954"/>
<path opacity="0.239216" d="M45.4116 23.619L45.3904 23.6614L45.4116 23.619Z" fill="#71717A" stroke="#71717A" stroke-width="0.0813954"/>
<path opacity="0.239216" d="M20.9128 23.9577L20.9657 23.9683L20.9128 23.9788V23.9577Z" fill="#71717A" stroke="#71717A" stroke-width="0.0813954"/>
<path opacity="0.239216" d="M35.6586 23.9788L35.7326 23.9894L35.6586 24V23.9788Z" fill="#71717A" stroke="#71717A" stroke-width="0.0813954"/>
<path opacity="0.509804" d="M0.772224 0.529109L0.751068 0.571437L0.772224 0.529109Z" fill="#71717A" stroke="#71717A" stroke-width="0.0813954"/>
<path opacity="0.509804" d="M45.6867 0.59261L45.7925 0.719594L45.6867 0.59261Z" fill="#71717A" stroke="#71717A" stroke-width="0.0813954"/>
<path opacity="0.509804" d="M0.560646 0.740743L0.53949 0.783071L0.560646 0.740743Z" fill="#71717A" stroke="#71717A" stroke-width="0.0813954"/>
<path opacity="0.509804" d="M31.6813 5.07938L31.6179 5.16404L31.6813 5.07938Z" fill="#71717A" stroke="#71717A" stroke-width="0.0813954"/>
<path opacity="0.509804" d="M23.7477 5.39683L23.7689 5.43916L23.7477 5.39683Z" fill="#71717A" stroke="#71717A" stroke-width="0.0813954"/>
<path opacity="0.509804" d="M23.8535 5.50265L23.8747 5.54497L23.8535 5.50265Z" fill="#71717A" stroke="#71717A" stroke-width="0.0813954"/>
<path opacity="0.509804" d="M5.59581 6.37036L5.5535 6.43386L5.59581 6.37036Z" fill="#71717A" stroke="#71717A" stroke-width="0.0813954"/>
<path opacity="0.509804" d="M5.38421 6.582L5.32074 6.66665L5.38421 6.582Z" fill="#71717A" stroke="#71717A" stroke-width="0.0813954"/>
<path opacity="0.509804" d="M23.8535 7.11111L23.79 7.19576L23.8535 7.11111Z" fill="#71717A" stroke="#71717A" stroke-width="0.0813954"/>
<path opacity="0.509804" d="M5.36307 13.1429L5.55347 13.3545L5.36307 13.1429Z" fill="#71717A" stroke="#71717A" stroke-width="0.0813954"/>
<path opacity="0.509804" d="M41.0746 14.2222L41.0534 14.2645L41.0746 14.2222Z" fill="#71717A" stroke="#71717A" stroke-width="0.0813954"/>
<path opacity="0.509804" d="M40.9688 14.3281L40.9477 14.3704L40.9688 14.3281Z" fill="#71717A" stroke="#71717A" stroke-width="0.0813954"/>
<path opacity="0.509804" d="M24.2978 17.1852L24.192 17.3122L24.2978 17.1852Z" fill="#71717A" stroke="#71717A" stroke-width="0.0813954"/>
<path opacity="0.509804" d="M25.9268 17.2275L25.948 17.2699L25.9268 17.2275Z" fill="#71717A" stroke="#71717A" stroke-width="0.0813954"/>
<path opacity="0.509804" d="M23.0496 20.3386L23.0285 20.381L23.0496 20.3386Z" fill="#71717A" stroke="#71717A" stroke-width="0.0813954"/>
<path opacity="0.509804" d="M34.2835 20.8042L34.3046 20.8466L34.2835 20.8042Z" fill="#71717A" stroke="#71717A" stroke-width="0.0813954"/>
<path opacity="0.509804" d="M24.6786 22.0952L24.4036 22.3915L24.6786 22.0952Z" fill="#71717A" stroke="#71717A" stroke-width="0.0813954"/>
<path opacity="0.509804" d="M32.9083 22.7936L32.9295 22.836L32.9083 22.7936Z" fill="#71717A" stroke="#71717A" stroke-width="0.0813954"/>
<path opacity="0.784314" d="M45.5597 0.486767L45.5808 0.529095L45.5597 0.486767Z" fill="#71717A" stroke="#71717A" stroke-width="0.0813954"/>
<path opacity="0.784314" d="M0.729941 0.571425L0.581848 0.740738L0.729941 0.571425Z" fill="#71717A" stroke="#71717A" stroke-width="0.0813954"/>
<path opacity="0.784314" d="M45.877 0.804216L45.8982 0.846544L45.877 0.804216Z" fill="#71717A" stroke="#71717A" stroke-width="0.0813954"/>
<path opacity="0.784314" d="M46.3636 1.94709L46.3742 2H46.353L46.3636 1.94709Z" fill="#71717A" stroke="#71717A" stroke-width="0.0813954"/>
<path opacity="0.784314" d="M31.7871 4.9947L31.7659 5.03702L31.7871 4.9947Z" fill="#71717A" stroke="#71717A" stroke-width="0.0813954"/>
<path opacity="0.784314" d="M8.51532 5.1217L8.58937 5.13228L8.51532 5.14286V5.1217Z" fill="#71717A" stroke="#71717A" stroke-width="0.0813954"/>
<path opacity="0.784314" d="M23.0496 5.1217L23.1025 5.13228L23.0496 5.14286V5.1217Z" fill="#71717A" stroke="#71717A" stroke-width="0.0813954"/>
<path opacity="0.784314" d="M31.5543 5.22751L31.5332 5.26984L31.5543 5.22751Z" fill="#71717A" stroke="#71717A" stroke-width="0.0813954"/>
<path opacity="0.784314" d="M23.6631 5.33333L23.6843 5.37566L23.6631 5.33333Z" fill="#71717A" stroke="#71717A" stroke-width="0.0813954"/>
<path opacity="0.784314" d="M23.79 5.43915L23.8324 5.50264L23.79 5.43915Z" fill="#71717A" stroke="#71717A" stroke-width="0.0813954"/>
<path opacity="0.784314" d="M5.7439 6.24339L5.72275 6.28572L5.7439 6.24339Z" fill="#71717A" stroke="#71717A" stroke-width="0.0813954"/>
<path opacity="0.784314" d="M5.53236 6.43386L5.40543 6.58201L5.53236 6.43386Z" fill="#71717A" stroke="#71717A" stroke-width="0.0813954"/>
<path opacity="0.784314" d="M5.215 6.77247L5.19385 6.8148L5.215 6.77247Z" fill="#71717A" stroke="#71717A" stroke-width="0.0813954"/>
<path opacity="0.784314" d="M5.04575 6.98413L5.0246 7.02646L5.04575 6.98413Z" fill="#71717A" stroke="#71717A" stroke-width="0.0813954"/>
<path opacity="0.784314" d="M4.98228 7.06879L4.96112 7.11112L4.98228 7.06879Z" fill="#71717A" stroke="#71717A" stroke-width="0.0813954"/>
<path opacity="0.784314" d="M8.66339 7.49206L8.77975 7.50264L8.66339 7.51322V7.49206Z" fill="#71717A" stroke="#71717A" stroke-width="0.0813954"/>
<path opacity="0.784314" d="M8.8327 7.49206L23.0602 7.50264L8.8327 7.51322V7.49206Z" fill="#71717A" stroke="#71717A" stroke-width="0.0813954"/>
<path opacity="0.784314" d="M7.35175 7.99998L7.3306 8.04231L7.35175 7.99998Z" fill="#71717A" stroke="#71717A" stroke-width="0.0813954"/>
<path opacity="0.784314" d="M7.20363 8.12698L7.07669 8.27513L7.20363 8.12698Z" fill="#71717A" stroke="#71717A" stroke-width="0.0813954"/>
<path opacity="0.784314" d="M6.97089 8.38093L6.94974 8.42326L6.97089 8.38093Z" fill="#71717A" stroke="#71717A" stroke-width="0.0813954"/>
<path opacity="0.784314" d="M6.90748 8.46562L6.88632 8.50794L6.90748 8.46562Z" fill="#71717A" stroke="#71717A" stroke-width="0.0813954"/>
<path opacity="0.784314" d="M4.09368 9.35449L4.10426 9.4074H4.0831L4.09368 9.35449Z" fill="#71717A" stroke="#71717A" stroke-width="0.0813954"/>
<path opacity="0.784314" d="M4.07253 9.62962L4.08311 9.74603H4.06195L4.07253 9.62962Z" fill="#71717A" stroke="#71717A" stroke-width="0.0813954"/>
<path opacity="0.784314" d="M6.44201 9.79894L6.45258 9.95767H6.43143L6.44201 9.79894Z" fill="#71717A" stroke="#71717A" stroke-width="0.0813954"/>
<path opacity="0.784314" d="M4.07253 10.0106L4.08311 10.127H4.06195L4.07253 10.0106Z" fill="#71717A" stroke="#71717A" stroke-width="0.0813954"/>
<path opacity="0.784314" d="M4.09368 10.3492L4.10426 10.4021H4.0831L4.09368 10.3492Z" fill="#71717A" stroke="#71717A" stroke-width="0.0813954"/>
<path opacity="0.784314" d="M6.88632 11.2593L6.90748 11.3016L6.88632 11.2593Z" fill="#71717A" stroke="#71717A" stroke-width="0.0813954"/>
<path opacity="0.784314" d="M6.94974 11.3439L6.97089 11.3862L6.94974 11.3439Z" fill="#71717A" stroke="#71717A" stroke-width="0.0813954"/>
<path opacity="0.784314" d="M7.07669 11.4921L7.22478 11.6614L7.07669 11.4921Z" fill="#71717A" stroke="#71717A" stroke-width="0.0813954"/>
<path opacity="0.784314" d="M8.62112 12.254L8.69517 12.2645L8.62112 12.2751V12.254Z" fill="#71717A" stroke="#71717A" stroke-width="0.0813954"/>
<path opacity="0.784314" d="M40.8419 12.4656L40.863 12.5079L40.8419 12.4656Z" fill="#71717A" stroke="#71717A" stroke-width="0.0813954"/>
<path opacity="0.784314" d="M40.9477 12.5503L41.0746 12.6984L40.9477 12.5503Z" fill="#71717A" stroke="#71717A" stroke-width="0.0813954"/>
<path opacity="0.784314" d="M5.10916 12.8466L5.13032 12.8889L5.10916 12.8466Z" fill="#71717A" stroke="#71717A" stroke-width="0.0813954"/>
<path opacity="0.784314" d="M5.21497 12.9735L5.23612 13.0159L5.21497 12.9735Z" fill="#71717A" stroke="#71717A" stroke-width="0.0813954"/>
<path opacity="0.784314" d="M41.3496 13.3122L41.3602 13.3651H41.339L41.3496 13.3122Z" fill="#71717A" stroke="#71717A" stroke-width="0.0813954"/>
<path opacity="0.784314" d="M5.7016 13.4603L5.72276 13.5026L5.7016 13.4603Z" fill="#71717A" stroke="#71717A" stroke-width="0.0813954"/>
<path opacity="0.784314" d="M5.82855 13.5662L5.84971 13.6085L5.82855 13.5662Z" fill="#71717A" stroke="#71717A" stroke-width="0.0813954"/>
<path opacity="0.784314" d="M41.138 14.1376L41.1169 14.1799L41.138 14.1376Z" fill="#71717A" stroke="#71717A" stroke-width="0.0813954"/>
<path opacity="0.784314" d="M41.0323 14.2646L40.99 14.328L41.0323 14.2646Z" fill="#71717A" stroke="#71717A" stroke-width="0.0813954"/>
<path opacity="0.784314" d="M8.55765 14.6243L8.65285 14.6349L8.55765 14.6455V14.6243Z" fill="#71717A" stroke="#71717A" stroke-width="0.0813954"/>
<path opacity="0.784314" d="M25.0383 16.8889L25.1546 16.8995L25.0383 16.9101V16.8889Z" fill="#71717A" stroke="#71717A" stroke-width="0.0813954"/>
<path opacity="0.784314" d="M25.7999 17.1217L25.8211 17.164L25.7999 17.1217Z" fill="#71717A" stroke="#71717A" stroke-width="0.0813954"/>
<path opacity="0.784314" d="M23.8958 18.1799L23.9064 18.2751H23.8853L23.8958 18.1799Z" fill="#71717A" stroke="#71717A" stroke-width="0.0813954"/>
<path opacity="0.784314" d="M26.2653 18.3492L26.2759 18.4233H26.2547L26.2653 18.3492Z" fill="#71717A" stroke="#71717A" stroke-width="0.0813954"/>
<path opacity="0.784314" d="M26.2442 18.6243L26.2547 18.6773H26.2336L26.2442 18.6243Z" fill="#71717A" stroke="#71717A" stroke-width="0.0813954"/>
<path opacity="0.784314" d="M31.3005 19.1746L31.3111 19.3122H31.2899L31.3005 19.1746Z" fill="#71717A" stroke="#71717A" stroke-width="0.0813954"/>
<path opacity="0.784314" d="M22.9227 20.4868L22.7957 20.6349L22.9227 20.4868Z" fill="#71717A" stroke="#71717A" stroke-width="0.0813954"/>
<path opacity="0.784314" d="M22.6265 20.7619L22.6053 20.8042L22.6265 20.7619Z" fill="#71717A" stroke="#71717A" stroke-width="0.0813954"/>
<path opacity="0.784314" d="M34.2412 20.7619L34.2623 20.8042L34.2412 20.7619Z" fill="#71717A" stroke="#71717A" stroke-width="0.0813954"/>
<path opacity="0.784314" d="M22.5207 20.8466L22.4995 20.8889L22.5207 20.8466Z" fill="#71717A" stroke="#71717A" stroke-width="0.0813954"/>
<path opacity="0.784314" d="M22.436 20.9101L22.4149 20.9524L22.436 20.9101Z" fill="#71717A" stroke="#71717A" stroke-width="0.0813954"/>
<path opacity="0.784314" d="M34.4951 21.0159L34.5162 21.0582L34.4951 21.0159Z" fill="#71717A" stroke="#71717A" stroke-width="0.0813954"/>
<path opacity="0.784314" d="M25.2075 21.4392L25.1864 21.4815L25.2075 21.4392Z" fill="#71717A" stroke="#71717A" stroke-width="0.0813954"/>
<path opacity="0.784314" d="M20.6378 21.5873L20.6907 21.5979L20.6378 21.6085V21.5873Z" fill="#71717A" stroke="#71717A" stroke-width="0.0813954"/>
<path opacity="0.784314" d="M2.40121 21.6085L20.3733 21.619L2.40121 21.6296V21.6085Z" fill="#71717A" stroke="#71717A" stroke-width="0.0813954"/>
<path opacity="0.784314" d="M35.976 21.6085L44.0047 21.619L35.976 21.6296V21.6085Z" fill="#71717A" stroke="#71717A" stroke-width="0.0813954"/>
<path opacity="0.784314" d="M24.9325 21.7989L24.9113 21.8413L24.9325 21.7989Z" fill="#71717A" stroke="#71717A" stroke-width="0.0813954"/>
<path opacity="0.784314" d="M24.8267 21.9259L24.7844 21.9894L24.8267 21.9259Z" fill="#71717A" stroke="#71717A" stroke-width="0.0813954"/>
<path opacity="0.784314" d="M46.3636 21.9894L46.3742 22.0423H46.353L46.3636 21.9894Z" fill="#71717A" stroke="#71717A" stroke-width="0.0813954"/>
<path opacity="0.784314" d="M32.2948 22.1376L32.316 22.1799L32.2948 22.1376Z" fill="#71717A" stroke="#71717A" stroke-width="0.0813954"/>
<path opacity="0.784314" d="M32.3794 22.2434L32.4006 22.2857L32.3794 22.2434Z" fill="#71717A" stroke="#71717A" stroke-width="0.0813954"/>
<path opacity="0.784314" d="M32.5063 22.3915L32.5486 22.455L32.5063 22.3915Z" fill="#71717A" stroke="#71717A" stroke-width="0.0813954"/>
<path opacity="0.784314" d="M24.2555 22.4974L24.2343 22.5397L24.2555 22.4974Z" fill="#71717A" stroke="#71717A" stroke-width="0.0813954"/>
<path opacity="0.784314" d="M32.8448 22.7302L32.8872 22.7937L32.8448 22.7302Z" fill="#71717A" stroke="#71717A" stroke-width="0.0813954"/>
<path opacity="0.784314" d="M23.917 22.7725L23.8958 22.8148L23.917 22.7725Z" fill="#71717A" stroke="#71717A" stroke-width="0.0813954"/>
<path opacity="0.784314" d="M33.0141 22.8783L33.0353 22.9207L33.0141 22.8783Z" fill="#71717A" stroke="#71717A" stroke-width="0.0813954"/>
<path opacity="0.784314" d="M45.9193 23.1323L45.8982 23.1746L45.9193 23.1323Z" fill="#71717A" stroke="#71717A" stroke-width="0.0813954"/>
<path opacity="0.784314" d="M0.53949 23.2169L0.560646 23.2593L0.53949 23.2169Z" fill="#71717A" stroke="#71717A" stroke-width="0.0813954"/>
<path opacity="0.784314" d="M45.8135 23.2593L45.6443 23.4498L45.8135 23.2593Z" fill="#71717A" stroke="#71717A" stroke-width="0.0813954"/>
<path opacity="0.784314" d="M0.772217 23.4498L0.793373 23.4921L0.772217 23.4498Z" fill="#71717A" stroke="#71717A" stroke-width="0.0813954"/>
<path opacity="0.784314" d="M45.5385 23.5132L45.5173 23.5556L45.5385 23.5132Z" fill="#71717A" stroke="#71717A" stroke-width="0.0813954"/>
<path opacity="0.784314" d="M0.877991 23.5344L0.899147 23.5767L0.877991 23.5344Z" fill="#71717A" stroke="#71717A" stroke-width="0.0813954"/>
<path opacity="0.784314" d="M20.7859 23.9577L20.8388 23.9683L20.7647 24L20.7859 23.9577Z" fill="#71717A" stroke="#71717A" stroke-width="0.0813954"/>
<path opacity="0.784314" d="M35.5529 23.9577L35.6057 23.9683L35.5529 23.9788V23.9577Z" fill="#71717A" stroke="#71717A" stroke-width="0.0813954"/>
<path opacity="0.784314" d="M2.0416 23.9788L2.11564 23.9894L2.0416 24V23.9788Z" fill="#71717A" stroke="#71717A" stroke-width="0.0813954"/>
<path opacity="0.784314" d="M35.8279 23.9788L35.8807 23.9894L35.8279 24V23.9788Z" fill="#71717A" stroke="#71717A" stroke-width="0.0813954"/>
<path opacity="0.784314" d="M44.2903 23.9788L44.3644 23.9894L44.2903 24V23.9788Z" fill="#71717A" stroke="#71717A" stroke-width="0.0813954"/>
<path d="M1.95693 0.0211849H44.4384C45.0646 0.128416 45.5406 0.385912 45.8664 0.793672C46.0033 0.953107 46.1161 1.13653 46.2049 1.34394L46.2896 1.57674L46.3742 2.02118V21.9789L46.353 22V22.1482L46.3107 22.3598C46.2501 22.5813 46.1654 22.7789 46.0568 22.9524C45.9186 23.1669 45.7529 23.3538 45.5597 23.5132C45.4045 23.6402 45.2282 23.7461 45.0308 23.8307L44.7134 23.9365L44.4807 23.9789H44.2903L44.2692 24H35.8913L35.8702 23.9789H35.6163L35.5952 23.9577L35.2778 23.9365L34.8758 23.8519L34.3469 23.6826L34.0508 23.5556C33.4668 23.279 32.9697 22.9157 32.5592 22.4656C32.2405 22.1214 31.9725 21.7263 31.7553 21.2804L31.5014 20.6244L31.3534 19.9683L31.3322 19.6508L31.311 19.6296V14.6455H8.66342L8.64226 14.6244H8.34608L8.32492 14.6032H8.17683L7.81718 14.5397L7.47868 14.455L6.90746 14.2434C6.24598 13.9457 5.6924 13.5401 5.24671 13.0265C4.86026 12.5947 4.55702 12.0797 4.337 11.4815L4.16775 10.8889L4.10428 10.5291L4.06197 9.76722L4.08312 9.74605L4.10428 9.23812L4.16775 8.87833L4.25237 8.5397L4.44278 8.0106C4.74883 7.32207 5.16843 6.74711 5.70156 6.28573C6.06263 5.96969 6.4787 5.70866 6.94978 5.50267L7.79602 5.22753L8.15567 5.16404H8.30377L8.32492 5.14288H8.5788L8.59995 5.12171H23.0284L23.0496 5.14288L23.2823 5.16404L23.6208 5.31219L23.9276 5.5979L24.118 5.97886L24.1603 6.1905V6.44447L24.118 6.65611L24.0333 6.86775C23.9487 7.02295 23.8394 7.15346 23.7054 7.25928C23.5672 7.37498 23.3909 7.45258 23.1765 7.49208H8.66342L8.64226 7.51325H8.47302L8.26145 7.55558L7.88064 7.68256C7.56048 7.82789 7.28898 8.02189 7.06613 8.26457C6.84752 8.49738 6.67827 8.77956 6.55839 9.11113L6.45261 9.55558L6.43145 9.95769L6.45261 9.97886L6.47376 10.3386L6.64301 10.8677C6.78828 11.181 6.98221 11.4455 7.2248 11.6614C7.41098 11.8349 7.62959 11.976 7.88064 12.0847L8.17683 12.1905L8.62111 12.2752H31.311V5.80954C31.3703 5.46669 31.5148 5.20919 31.7447 5.03706C31.8505 4.94535 31.9775 4.8748 32.1255 4.82542L32.316 4.78309H32.6756C33.0056 4.84799 33.256 4.99261 33.4266 5.21695L33.6171 5.55558L33.6805 5.83071V12.2752H40.3341C40.691 12.3429 40.9554 12.5016 41.1275 12.7513L41.2967 13.0688L41.3602 13.3863V13.5344L41.3179 13.7672L41.1698 14.1058L40.8842 14.4127L40.5668 14.582L40.2918 14.6455H33.6805V19.5027L33.744 19.8413L33.9767 20.4127C34.122 20.6625 34.3018 20.8776 34.5162 21.0582C34.7207 21.2346 34.9605 21.3757 35.2355 21.4815L35.5105 21.5662L35.7432 21.6085H35.9548L35.976 21.6296H44.0047V2.39156H2.39063V21.6296H20.3628L20.3839 21.6085H20.6801L20.7012 21.5873L21.0821 21.545L21.6956 21.3545C22.1836 21.1443 22.5961 20.8586 22.9332 20.4974C23.2097 20.2095 23.4353 19.8709 23.6102 19.4815C23.723 19.2275 23.8077 18.9453 23.8641 18.6349L23.9276 17.8095C24.0051 17.5203 24.1497 17.2981 24.3613 17.1429C24.5644 16.958 24.8746 16.8804 25.2921 16.9101C25.6109 16.9792 25.8542 17.1238 26.022 17.3439L26.2336 17.7461L26.2759 17.9577V18.3386L26.2547 18.3598V18.6138L26.2336 18.6349L26.2124 18.9524L26.0855 19.5662C25.9853 19.9386 25.8584 20.2843 25.7047 20.6032C25.3422 21.3482 24.8662 21.9796 24.2766 22.4974C23.8056 22.9221 23.2555 23.2677 22.6265 23.5344C22.319 23.6642 21.9875 23.77 21.6321 23.8519L21.1455 23.9365H21.0186L20.9974 23.9577H20.7859L20.7436 24H2.12618L2.10503 23.9789L1.76653 23.9577L1.36456 23.8307C1.04863 23.6953 0.784179 23.5083 0.571208 23.2699C0.416063 23.1005 0.289126 22.903 0.190398 22.6773L0.084617 22.381L0.0211487 22.0635V1.95769L0.105773 1.55558L0.275022 1.15346C0.421704 0.889615 0.608583 0.667393 0.835659 0.486793C1.00632 0.347111 1.20378 0.234236 1.42803 0.148169L1.70306 0.063513L1.93578 0.0423489L1.95693 0.0211849Z" fill="#71717A" stroke="#71717A" stroke-width="0.0813954"/>
<path opacity="0.501961" d="M2.06274 0L44.3432 0.010582L2.06274 0.021164V0Z" fill="#71717A" stroke="#71717A" stroke-width="0.0813954"/>
<path opacity="0.501961" d="M45.6443 0.550267L45.6654 0.592595L45.6443 0.550267Z" fill="#71717A" stroke="#71717A" stroke-width="0.0813954"/>
<path opacity="0.501961" d="M45.8136 0.719584L45.8347 0.761913L45.8136 0.719584Z" fill="#71717A" stroke="#71717A" stroke-width="0.0813954"/>
<path opacity="0.501961" d="M0.0105781 2.05291L0.0211561 2.16931H0L0.0105781 2.05291Z" fill="#71717A" stroke="#71717A" stroke-width="0.0813954"/>
<path opacity="0.501961" d="M0.0105781 2.2222L0.0211561 21.9577H0L0.0105781 2.2222Z" fill="#71717A" stroke="#71717A" stroke-width="0.0813954"/>
<path opacity="0.501961" d="M43.9941 2.39154L44.0047 21.5979H43.9836L43.9941 2.39154Z" fill="#71717A" stroke="#71717A" stroke-width="0.0813954"/>
<path opacity="0.501961" d="M32.3794 4.7619L32.6227 4.77249L32.3794 4.78307V4.7619Z" fill="#71717A" stroke="#71717A" stroke-width="0.0813954"/>
<path opacity="0.501961" d="M31.7236 5.03704L31.7024 5.07937L31.7236 5.03704Z" fill="#71717A" stroke="#71717A" stroke-width="0.0813954"/>
<path opacity="0.501961" d="M33.2891 5.0582L33.3949 5.18518L33.2891 5.0582Z" fill="#71717A" stroke="#71717A" stroke-width="0.0813954"/>
<path opacity="0.501961" d="M8.43069 5.1217L8.48358 5.13228L8.43069 5.14286V5.1217Z" fill="#71717A" stroke="#71717A" stroke-width="0.0813954"/>
<path opacity="0.501961" d="M31.5966 5.16404L31.5755 5.20637L31.5966 5.16404Z" fill="#71717A" stroke="#71717A" stroke-width="0.0813954"/>
<path opacity="0.501961" d="M31.3005 5.8836L31.311 12.2434L31.2793 12.2751H8.7269V12.254H31.2793L31.2899 12.2434L31.3005 5.8836Z" fill="#71717A" stroke="#71717A" stroke-width="0.0813954"/>
<path opacity="0.501961" d="M5.6381 6.32802L5.61694 6.37035L5.6381 6.32802Z" fill="#71717A" stroke="#71717A" stroke-width="0.0813954"/>
<path opacity="0.501961" d="M5.29963 6.66665L5.27847 6.70898L5.29963 6.66665Z" fill="#71717A" stroke="#71717A" stroke-width="0.0813954"/>
<path opacity="0.501961" d="M23.7689 7.19576L23.7477 7.23809L23.7689 7.19576Z" fill="#71717A" stroke="#71717A" stroke-width="0.0813954"/>
<path opacity="0.501961" d="M4.07253 9.52381L4.08311 9.59788H4.06195L4.07253 9.52381Z" fill="#71717A" stroke="#71717A" stroke-width="0.0813954"/>
<path opacity="0.501961" d="M4.07253 10.1587L4.08311 10.2328H4.06195L4.07253 10.1587Z" fill="#71717A" stroke="#71717A" stroke-width="0.0813954"/>
<path opacity="0.501961" d="M7.28827 11.6825L7.30943 11.7249L7.28827 11.6825Z" fill="#71717A" stroke="#71717A" stroke-width="0.0813954"/>
<path opacity="0.501961" d="M33.7123 12.254L40.2389 12.2645L33.7123 12.2751V12.254Z" fill="#71717A" stroke="#71717A" stroke-width="0.0813954"/>
<path opacity="0.501961" d="M5.29965 13.0794L5.34196 13.1429L5.29965 13.0794Z" fill="#71717A" stroke="#71717A" stroke-width="0.0813954"/>
<path opacity="0.501961" d="M5.57465 13.3545L5.61696 13.418L5.57465 13.3545Z" fill="#71717A" stroke="#71717A" stroke-width="0.0813954"/>
<path opacity="0.501961" d="M8.47302 14.6243L8.52591 14.6349L8.47302 14.6455V14.6243Z" fill="#71717A" stroke="#71717A" stroke-width="0.0813954"/>
<path opacity="0.501961" d="M31.3005 14.6667L31.3111 19.1429H31.2899L31.3005 14.6667Z" fill="#71717A" stroke="#71717A" stroke-width="0.0813954"/>
<path opacity="0.501961" d="M25.8845 17.1852L25.9057 17.2275L25.8845 17.1852Z" fill="#71717A" stroke="#71717A" stroke-width="0.0813954"/>
<path opacity="0.501961" d="M25.9691 17.2698L25.9903 17.3122L25.9691 17.2698Z" fill="#71717A" stroke="#71717A" stroke-width="0.0813954"/>
<path opacity="0.501961" d="M23.8958 18.0106L23.9064 18.1693H23.8853L23.8958 18.0106Z" fill="#71717A" stroke="#71717A" stroke-width="0.0813954"/>
<path opacity="0.501961" d="M23.8747 18.3915L23.8853 18.4444H23.8641L23.8747 18.3915Z" fill="#71717A" stroke="#71717A" stroke-width="0.0813954"/>
<path opacity="0.501961" d="M26.2653 18.455L26.2759 18.5079H26.2547L26.2653 18.455Z" fill="#71717A" stroke="#71717A" stroke-width="0.0813954"/>
<path opacity="0.501961" d="M31.3005 19.3227L31.3111 19.4603H31.2899L31.3005 19.3227Z" fill="#71717A" stroke="#71717A" stroke-width="0.0813954"/>
<path opacity="0.501961" d="M22.6899 20.6984L22.6688 20.7407L22.6899 20.6984Z" fill="#71717A" stroke="#71717A" stroke-width="0.0813954"/>
<path opacity="0.501961" d="M34.3258 20.8466L34.4527 20.9947L34.3258 20.8466Z" fill="#71717A" stroke="#71717A" stroke-width="0.0813954"/>
<path opacity="0.501961" d="M20.5743 21.5873L20.6272 21.5979L20.5743 21.6085V21.5873Z" fill="#71717A" stroke="#71717A" stroke-width="0.0813954"/>
<path opacity="0.501961" d="M24.7209 22.0529L24.6997 22.0952L24.7209 22.0529Z" fill="#71717A" stroke="#71717A" stroke-width="0.0813954"/>
<path opacity="0.501961" d="M32.4429 22.328L32.4641 22.3704L32.4429 22.328Z" fill="#71717A" stroke="#71717A" stroke-width="0.0813954"/>
<path opacity="0.501961" d="M24.3824 22.3915L24.3401 22.455L24.3824 22.3915Z" fill="#71717A" stroke="#71717A" stroke-width="0.0813954"/>
<path opacity="0.501961" d="M24.192 22.5608L24.1708 22.6032L24.192 22.5608Z" fill="#71717A" stroke="#71717A" stroke-width="0.0813954"/>
<path opacity="0.501961" d="M32.6545 22.5608L32.7179 22.6455L32.6545 22.5608Z" fill="#71717A" stroke="#71717A" stroke-width="0.0813954"/>
<path opacity="0.501961" d="M45.877 23.1958L45.8559 23.2381L45.877 23.1958Z" fill="#71717A" stroke="#71717A" stroke-width="0.0813954"/>
<path opacity="0.501961" d="M0.624115 23.3227L0.666427 23.3862L0.624115 23.3227Z" fill="#71717A" stroke="#71717A" stroke-width="0.0813954"/>
<path opacity="0.501961" d="M20.8494 23.9577L20.9023 23.9683L20.8494 23.9788V23.9577Z" fill="#71717A" stroke="#71717A" stroke-width="0.0813954"/>
<path opacity="0.501961" d="M35.7432 23.9788L35.8173 23.9894L35.7432 24V23.9788Z" fill="#71717A" stroke="#71717A" stroke-width="0.0813954"/>
<path opacity="0.501961" d="M44.3749 23.9788L44.4278 23.9894L44.3749 24V23.9788Z" fill="#71717A" stroke="#71717A" stroke-width="0.0813954"/>
</g>
<defs>
<clipPath id="clip0_206_125">
<rect width="46.3954" height="24" fill="white"/>
</clipPath>
</defs>
</svg>
