<svg width="47" height="25" viewBox="0 0 47 25" fill="none" xmlns="http://www.w3.org/2000/svg">
<g clip-path="url(#clip0_208_957)">
<path opacity="0.239216" d="M1.99921 0.177246L2.0521 0.187828L1.99921 0.19841V0.177246Z" fill="white" stroke="white" stroke-width="0.0813954"/>
<path opacity="0.239216" d="M44.3538 0.177246L44.4067 0.187828L44.3538 0.19841V0.177246Z" fill="white" stroke="white" stroke-width="0.0813954"/>
<path opacity="0.239216" d="M45.4116 0.537033L45.4327 0.579361L45.4116 0.537033Z" fill="white" stroke="white" stroke-width="0.0813954"/>
<path opacity="0.239216" d="M0.920326 0.579376L0.89917 0.621704L0.920326 0.579376Z" fill="white" stroke="white" stroke-width="0.0813954"/>
<path opacity="0.239216" d="M45.4962 0.60051L45.5173 0.642838L45.4962 0.60051Z" fill="white" stroke="white" stroke-width="0.0813954"/>
<path opacity="0.239216" d="M0.83564 0.642853L0.814484 0.685181L0.83564 0.642853Z" fill="white" stroke="white" stroke-width="0.0813954"/>
<path opacity="0.239216" d="M45.5809 0.664017L45.6232 0.727509L45.5809 0.664017Z" fill="white" stroke="white" stroke-width="0.0813954"/>
<path opacity="0.239216" d="M0.708785 0.748672L0.581848 0.896821L0.708785 0.748672Z" fill="white" stroke="white" stroke-width="0.0813954"/>
<path opacity="0.239216" d="M45.8559 0.939148L45.8982 1.00264L45.8559 0.939148Z" fill="white" stroke="white" stroke-width="0.0813954"/>
<path opacity="0.239216" d="M0.4972 0.981461L0.476044 1.02379L0.4972 0.981461Z" fill="white" stroke="white" stroke-width="0.0813954"/>
<path opacity="0.239216" d="M45.9405 1.04497L45.9616 1.0873L45.9405 1.04497Z" fill="white" stroke="white" stroke-width="0.0813954"/>
<path opacity="0.239216" d="M0.433693 1.06612L0.412537 1.10844L0.433693 1.06612Z" fill="white" stroke="white" stroke-width="0.0813954"/>
<path opacity="0.239216" d="M0.0105781 2.16666L0.0211561 2.21957H0L0.0105781 2.16666Z" fill="white" stroke="white" stroke-width="0.0813954"/>
<path opacity="0.239216" d="M46.3848 2.25131L46.3954 22.0926H46.3742L46.3848 2.25131Z" fill="white" stroke="white" stroke-width="0.0813954"/>
<path opacity="0.239216" d="M33.1622 5.12962L33.1833 5.17195L33.1622 5.12962Z" fill="white" stroke="white" stroke-width="0.0813954"/>
<path opacity="0.239216" d="M31.7659 5.17194L31.7448 5.21426L31.7659 5.17194Z" fill="white" stroke="white" stroke-width="0.0813954"/>
<path opacity="0.239216" d="M33.2257 5.17194L33.268 5.23543L33.2257 5.17194Z" fill="white" stroke="white" stroke-width="0.0813954"/>
<path opacity="0.239216" d="M8.74808 5.27779L8.90675 5.28837L8.74808 5.29895V5.27779Z" fill="white" stroke="white" stroke-width="0.0813954"/>
<path opacity="0.239216" d="M8.36722 5.29893L8.42011 5.30952L8.36722 5.3201V5.29893Z" fill="white" stroke="white" stroke-width="0.0813954"/>
<path opacity="0.239216" d="M33.4161 5.36241L33.4372 5.40474L33.4161 5.36241Z" fill="white" stroke="white" stroke-width="0.0813954"/>
<path opacity="0.239216" d="M31.5543 5.38361L31.5332 5.42593L31.5543 5.38361Z" fill="white" stroke="white" stroke-width="0.0813954"/>
<path opacity="0.239216" d="M33.4796 5.4471L33.5007 5.48943L33.4796 5.4471Z" fill="white" stroke="white" stroke-width="0.0813954"/>
<path opacity="0.239216" d="M23.6208 5.46826L23.6419 5.51059L23.6208 5.46826Z" fill="white" stroke="white" stroke-width="0.0813954"/>
<path opacity="0.239216" d="M23.6843 5.51057L23.7054 5.5529L23.6843 5.51057Z" fill="white" stroke="white" stroke-width="0.0813954"/>
<path opacity="0.239216" d="M31.4697 5.51057L31.4485 5.5529L31.4697 5.51057Z" fill="white" stroke="white" stroke-width="0.0813954"/>
<path opacity="0.239216" d="M23.8112 5.61639L23.8535 5.67989L23.8112 5.61639Z" fill="white" stroke="white" stroke-width="0.0813954"/>
<path opacity="0.239216" d="M23.917 5.74336L23.9381 5.78569L23.917 5.74336Z" fill="white" stroke="white" stroke-width="0.0813954"/>
<path opacity="0.239216" d="M31.3005 5.99734L31.3111 6.05026H31.2899L31.3005 5.99734Z" fill="white" stroke="white" stroke-width="0.0813954"/>
<path opacity="0.239216" d="M6.23048 6.03969L6.20932 6.08202L6.23048 6.03969Z" fill="white" stroke="white" stroke-width="0.0813954"/>
<path opacity="0.239216" d="M33.6911 6.03969L33.7016 12.4206H33.6805L33.6911 6.03969Z" fill="white" stroke="white" stroke-width="0.0813954"/>
<path opacity="0.239216" d="M6.167 6.082L6.14584 6.12433L6.167 6.082Z" fill="white" stroke="white" stroke-width="0.0813954"/>
<path opacity="0.239216" d="M6.0189 6.18782L5.99774 6.23015L6.0189 6.18782Z" fill="white" stroke="white" stroke-width="0.0813954"/>
<path opacity="0.239216" d="M5.93427 6.25131L5.91312 6.29364L5.93427 6.25131Z" fill="white" stroke="white" stroke-width="0.0813954"/>
<path opacity="0.239216" d="M5.84969 6.31479L5.80737 6.37828L5.84969 6.31479Z" fill="white" stroke="white" stroke-width="0.0813954"/>
<path opacity="0.239216" d="M24.1708 6.39948L24.1814 6.57937H24.1602L24.1708 6.39948Z" fill="white" stroke="white" stroke-width="0.0813954"/>
<path opacity="0.239216" d="M5.72268 6.42064L5.65921 6.5053L5.72268 6.42064Z" fill="white" stroke="white" stroke-width="0.0813954"/>
<path opacity="0.239216" d="M5.51115 6.61111L5.38422 6.75926L5.51115 6.61111Z" fill="white" stroke="white" stroke-width="0.0813954"/>
<path opacity="0.239216" d="M5.25732 6.88625L5.19385 6.9709L5.25732 6.88625Z" fill="white" stroke="white" stroke-width="0.0813954"/>
<path opacity="0.239216" d="M5.13039 7.03438L5.08807 7.09787L5.13039 7.03438Z" fill="white" stroke="white" stroke-width="0.0813954"/>
<path opacity="0.239216" d="M5.04575 7.14021L5.0246 7.18254L5.04575 7.14021Z" fill="white" stroke="white" stroke-width="0.0813954"/>
<path opacity="0.239216" d="M23.9805 7.14021L23.9593 7.18254L23.9805 7.14021Z" fill="white" stroke="white" stroke-width="0.0813954"/>
<path opacity="0.239216" d="M23.9382 7.20372L23.8958 7.26721L23.9382 7.20372Z" fill="white" stroke="white" stroke-width="0.0813954"/>
<path opacity="0.239216" d="M4.98228 7.22485L4.96112 7.26718L4.98228 7.22485Z" fill="white" stroke="white" stroke-width="0.0813954"/>
<path opacity="0.239216" d="M23.7266 7.41533L23.7054 7.45766L23.7266 7.41533Z" fill="white" stroke="white" stroke-width="0.0813954"/>
<path opacity="0.239216" d="M8.55765 7.69049L8.61054 7.70107L8.55765 7.71165V7.69049Z" fill="white" stroke="white" stroke-width="0.0813954"/>
<path opacity="0.239216" d="M7.45753 8.11375L7.43637 8.15608L7.45753 8.11375Z" fill="white" stroke="white" stroke-width="0.0813954"/>
<path opacity="0.239216" d="M7.3729 8.17723L7.35175 8.21956L7.3729 8.17723Z" fill="white" stroke="white" stroke-width="0.0813954"/>
<path opacity="0.239216" d="M7.26711 8.26192L7.03439 8.51589L7.26711 8.26192Z" fill="white" stroke="white" stroke-width="0.0813954"/>
<path opacity="0.239216" d="M6.97089 8.57936L6.94974 8.62169L6.97089 8.57936Z" fill="white" stroke="white" stroke-width="0.0813954"/>
<path opacity="0.239216" d="M6.90748 8.66402L6.88632 8.70634L6.90748 8.66402Z" fill="white" stroke="white" stroke-width="0.0813954"/>
<path opacity="0.239216" d="M6.82285 8.791L6.8017 8.83333L6.82285 8.791Z" fill="white" stroke="white" stroke-width="0.0813954"/>
<path opacity="0.239216" d="M4.07253 9.63757L4.08311 9.69048H4.06195L4.07253 9.63757Z" fill="white" stroke="white" stroke-width="0.0813954"/>
<path opacity="0.239216" d="M6.46321 9.82805L6.47379 9.88096H6.45264L6.46321 9.82805Z" fill="white" stroke="white" stroke-width="0.0813954"/>
<path opacity="0.239216" d="M6.46321 10.2301L6.47379 10.283H6.45264L6.46321 10.2301Z" fill="white" stroke="white" stroke-width="0.0813954"/>
<path opacity="0.239216" d="M4.07253 10.4206L4.08311 10.4735H4.06195L4.07253 10.4206Z" fill="white" stroke="white" stroke-width="0.0813954"/>
<path opacity="0.239216" d="M6.8017 11.2884L6.82285 11.3307L6.8017 11.2884Z" fill="white" stroke="white" stroke-width="0.0813954"/>
<path opacity="0.239216" d="M6.88632 11.4154L6.90748 11.4577L6.88632 11.4154Z" fill="white" stroke="white" stroke-width="0.0813954"/>
<path opacity="0.239216" d="M6.94974 11.5L6.97089 11.5423L6.94974 11.5Z" fill="white" stroke="white" stroke-width="0.0813954"/>
<path opacity="0.239216" d="M7.03439 11.6058L7.26711 11.8598L7.03439 11.6058Z" fill="white" stroke="white" stroke-width="0.0813954"/>
<path opacity="0.239216" d="M7.35175 11.9021L7.39406 11.9656L7.35175 11.9021Z" fill="white" stroke="white" stroke-width="0.0813954"/>
<path opacity="0.239216" d="M40.2495 12.4312L40.3024 12.4418L40.2495 12.4524V12.4312Z" fill="white" stroke="white" stroke-width="0.0813954"/>
<path opacity="0.239216" d="M4.7496 12.537L4.77076 12.5793L4.7496 12.537Z" fill="white" stroke="white" stroke-width="0.0813954"/>
<path opacity="0.239216" d="M40.7996 12.6005L40.8207 12.6429L40.7996 12.6005Z" fill="white" stroke="white" stroke-width="0.0813954"/>
<path opacity="0.239216" d="M40.863 12.6429L40.8842 12.6852L40.863 12.6429Z" fill="white" stroke="white" stroke-width="0.0813954"/>
<path opacity="0.239216" d="M40.9688 12.7275L41.0746 12.8545L40.9688 12.7275Z" fill="white" stroke="white" stroke-width="0.0813954"/>
<path opacity="0.239216" d="M4.91879 12.791L4.93995 12.8334L4.91879 12.791Z" fill="white" stroke="white" stroke-width="0.0813954"/>
<path opacity="0.239216" d="M4.96112 12.8545L4.98228 12.8968L4.96112 12.8545Z" fill="white" stroke="white" stroke-width="0.0813954"/>
<path opacity="0.239216" d="M41.1169 12.8968L41.138 12.9391L41.1169 12.8968Z" fill="white" stroke="white" stroke-width="0.0813954"/>
<path opacity="0.239216" d="M5.0246 12.9392L5.06691 13.0027L5.0246 12.9392Z" fill="white" stroke="white" stroke-width="0.0813954"/>
<path opacity="0.239216" d="M5.10916 13.045L5.15147 13.1085L5.10916 13.045Z" fill="white" stroke="white" stroke-width="0.0813954"/>
<path opacity="0.239216" d="M5.21497 13.172L5.27843 13.2566L5.21497 13.172Z" fill="white" stroke="white" stroke-width="0.0813954"/>
<path opacity="0.239216" d="M5.63812 13.5952L5.70159 13.6799L5.63812 13.5952Z" fill="white" stroke="white" stroke-width="0.0813954"/>
<path opacity="0.239216" d="M5.78616 13.7222L5.82848 13.7857L5.78616 13.7222Z" fill="white" stroke="white" stroke-width="0.0813954"/>
<path opacity="0.239216" d="M5.89197 13.8069L5.93428 13.8704L5.89197 13.8069Z" fill="white" stroke="white" stroke-width="0.0813954"/>
<path opacity="0.239216" d="M5.99774 13.8915L6.0189 13.9339L5.99774 13.8915Z" fill="white" stroke="white" stroke-width="0.0813954"/>
<path opacity="0.239216" d="M6.06122 13.9339L6.08237 13.9762L6.06122 13.9339Z" fill="white" stroke="white" stroke-width="0.0813954"/>
<path opacity="0.239216" d="M6.31506 14.1032L6.33622 14.1455L6.31506 14.1032Z" fill="white" stroke="white" stroke-width="0.0813954"/>
<path opacity="0.239216" d="M41.1804 14.2725L41.1592 14.3148L41.1804 14.2725Z" fill="white" stroke="white" stroke-width="0.0813954"/>
<path opacity="0.239216" d="M41.138 14.336L41.1169 14.3783L41.138 14.336Z" fill="white" stroke="white" stroke-width="0.0813954"/>
<path opacity="0.239216" d="M41.0323 14.463L41.0111 14.5053L41.0323 14.463Z" fill="white" stroke="white" stroke-width="0.0813954"/>
<path opacity="0.239216" d="M40.9053 14.5688L40.8842 14.6111L40.9053 14.5688Z" fill="white" stroke="white" stroke-width="0.0813954"/>
<path opacity="0.239216" d="M40.7784 14.6534L40.7573 14.6958L40.7784 14.6534Z" fill="white" stroke="white" stroke-width="0.0813954"/>
<path opacity="0.239216" d="M8.19803 14.7804L8.25092 14.791L8.19803 14.8016V14.7804Z" fill="white" stroke="white" stroke-width="0.0813954"/>
<path opacity="0.239216" d="M8.40955 14.8016L8.46244 14.8122L8.40955 14.8228V14.8016Z" fill="white" stroke="white" stroke-width="0.0813954"/>
<path opacity="0.239216" d="M8.74808 14.8228L31.2899 14.8333L8.74808 14.8439V14.8228Z" fill="white" stroke="white" stroke-width="0.0813954"/>
<path opacity="0.239216" d="M33.7122 14.8228L40.2389 14.8333L33.7016 14.8439L33.6911 19.4153L33.6805 14.8545L33.7122 14.8228Z" fill="white" stroke="white" stroke-width="0.0813954"/>
<path opacity="0.239216" d="M24.9113 17.0661L24.9642 17.0767L24.9113 17.0873V17.0661Z" fill="white" stroke="white" stroke-width="0.0813954"/>
<path opacity="0.239216" d="M25.2287 17.0661L25.2816 17.0767L25.2287 17.0873V17.0661Z" fill="white" stroke="white" stroke-width="0.0813954"/>
<path opacity="0.239216" d="M24.3612 17.2989L24.3401 17.3412L24.3612 17.2989Z" fill="white" stroke="white" stroke-width="0.0813954"/>
<path opacity="0.239216" d="M25.821 17.2989L25.8634 17.3624L25.821 17.2989Z" fill="white" stroke="white" stroke-width="0.0813954"/>
<path opacity="0.239216" d="M26.0115 17.4894L26.0326 17.5317L26.0115 17.4894Z" fill="white" stroke="white" stroke-width="0.0813954"/>
<path opacity="0.239216" d="M24.1497 17.5106L24.1285 17.5529L24.1497 17.5106Z" fill="white" stroke="white" stroke-width="0.0813954"/>
<path opacity="0.239216" d="M26.0749 17.5741L26.096 17.6164L26.0749 17.5741Z" fill="white" stroke="white" stroke-width="0.0813954"/>
<path opacity="0.239216" d="M23.8958 18.1243L23.9064 18.1772H23.8853L23.8958 18.1243Z" fill="white" stroke="white" stroke-width="0.0813954"/>
<path opacity="0.239216" d="M26.2865 18.1667L26.297 18.3889H26.2759L26.2865 18.1667Z" fill="white" stroke="white" stroke-width="0.0813954"/>
<path opacity="0.239216" d="M26.2653 18.6958L26.2759 18.7487H26.2547L26.2653 18.6958Z" fill="white" stroke="white" stroke-width="0.0813954"/>
<path opacity="0.239216" d="M26.2442 18.9074L26.2547 18.9603H26.2336L26.2442 18.9074Z" fill="white" stroke="white" stroke-width="0.0813954"/>
<path opacity="0.239216" d="M33.6911 19.4577L33.7016 19.5741H33.6805L33.6911 19.4577Z" fill="white" stroke="white" stroke-width="0.0813954"/>
<path opacity="0.239216" d="M31.3005 19.6482L31.3111 19.7434H31.2899L31.3005 19.6482Z" fill="white" stroke="white" stroke-width="0.0813954"/>
<path opacity="0.239216" d="M31.3216 19.9233L31.3322 19.9762H31.311L31.3216 19.9233Z" fill="white" stroke="white" stroke-width="0.0813954"/>
<path opacity="0.239216" d="M23.3246 20.1349L23.3035 20.1772L23.3246 20.1349Z" fill="white" stroke="white" stroke-width="0.0813954"/>
<path opacity="0.239216" d="M23.2823 20.1984L23.2611 20.2407L23.2823 20.1984Z" fill="white" stroke="white" stroke-width="0.0813954"/>
<path opacity="0.239216" d="M23.24 20.2619L23.2188 20.3042L23.24 20.2619Z" fill="white" stroke="white" stroke-width="0.0813954"/>
<path opacity="0.239216" d="M23.1765 20.3466L23.1554 20.3889L23.1765 20.3466Z" fill="white" stroke="white" stroke-width="0.0813954"/>
<path opacity="0.239216" d="M23.0919 20.4524L23.0496 20.5159L23.0919 20.4524Z" fill="white" stroke="white" stroke-width="0.0813954"/>
<path opacity="0.239216" d="M22.9861 20.5794L22.7111 20.8757L22.9861 20.5794Z" fill="white" stroke="white" stroke-width="0.0813954"/>
<path opacity="0.239216" d="M34.0508 20.664L34.0719 20.7064L34.0508 20.664Z" fill="white" stroke="white" stroke-width="0.0813954"/>
<path opacity="0.239216" d="M34.0931 20.7275L34.1143 20.7698L34.0931 20.7275Z" fill="white" stroke="white" stroke-width="0.0813954"/>
<path opacity="0.239216" d="M34.1565 20.8122L34.1777 20.8545L34.1565 20.8122Z" fill="white" stroke="white" stroke-width="0.0813954"/>
<path opacity="0.239216" d="M34.22 20.8968L34.2623 20.9603L34.22 20.8968Z" fill="white" stroke="white" stroke-width="0.0813954"/>
<path opacity="0.239216" d="M22.6053 20.9392L22.563 21.0027L22.6053 20.9392Z" fill="white" stroke="white" stroke-width="0.0813954"/>
<path opacity="0.239216" d="M22.4995 21.0238L22.4784 21.0661L22.4995 21.0238Z" fill="white" stroke="white" stroke-width="0.0813954"/>
<path opacity="0.239216" d="M22.4149 21.0873L22.3938 21.1296L22.4149 21.0873Z" fill="white" stroke="white" stroke-width="0.0813954"/>
<path opacity="0.239216" d="M34.5162 21.1931L34.5585 21.2566L34.5162 21.1931Z" fill="white" stroke="white" stroke-width="0.0813954"/>
<path opacity="0.239216" d="M34.6431 21.2989L34.6643 21.3413L34.6431 21.2989Z" fill="white" stroke="white" stroke-width="0.0813954"/>
<path opacity="0.239216" d="M34.7066 21.3413L34.7278 21.3836L34.7066 21.3413Z" fill="white" stroke="white" stroke-width="0.0813954"/>
<path opacity="0.239216" d="M25.3768 21.3836L25.3556 21.4259L25.3768 21.3836Z" fill="white" stroke="white" stroke-width="0.0813954"/>
<path opacity="0.239216" d="M25.2498 21.5741L25.2287 21.6164L25.2498 21.5741Z" fill="white" stroke="white" stroke-width="0.0813954"/>
<path opacity="0.239216" d="M25.2075 21.6376L25.1864 21.6799L25.2075 21.6376Z" fill="white" stroke="white" stroke-width="0.0813954"/>
<path opacity="0.239216" d="M25.1441 21.7222L25.1229 21.7646L25.1441 21.7222Z" fill="white" stroke="white" stroke-width="0.0813954"/>
<path opacity="0.239216" d="M20.4474 21.7646L20.5638 21.7751L20.4474 21.7857V21.7646Z" fill="white" stroke="white" stroke-width="0.0813954"/>
<path opacity="0.239216" d="M35.8279 21.7646L35.8807 21.7751L35.8279 21.7857V21.7646Z" fill="white" stroke="white" stroke-width="0.0813954"/>
<path opacity="0.239216" d="M25.1017 21.7857L25.0594 21.8492L25.1017 21.7857Z" fill="white" stroke="white" stroke-width="0.0813954"/>
<path opacity="0.239216" d="M31.9352 21.8069L31.9563 21.8492L31.9352 21.8069Z" fill="white" stroke="white" stroke-width="0.0813954"/>
<path opacity="0.239216" d="M25.0171 21.8915L24.9959 21.9339L25.0171 21.8915Z" fill="white" stroke="white" stroke-width="0.0813954"/>
<path opacity="0.239216" d="M31.9986 21.9127L32.0198 21.955L31.9986 21.9127Z" fill="white" stroke="white" stroke-width="0.0813954"/>
<path opacity="0.239216" d="M24.9324 21.9974L24.8901 22.0609L24.9324 21.9974Z" fill="white" stroke="white" stroke-width="0.0813954"/>
<path opacity="0.239216" d="M32.1255 22.1032L32.1467 22.1455L32.1255 22.1032Z" fill="white" stroke="white" stroke-width="0.0813954"/>
<path opacity="0.239216" d="M24.8267 22.1243L24.7421 22.2301L24.8267 22.1243Z" fill="white" stroke="white" stroke-width="0.0813954"/>
<path opacity="0.239216" d="M0.0105781 22.1455L0.0211561 22.1984H0L0.0105781 22.1455Z" fill="white" stroke="white" stroke-width="0.0813954"/>
<path opacity="0.239216" d="M32.1679 22.1666L32.1891 22.209L32.1679 22.1666Z" fill="white" stroke="white" stroke-width="0.0813954"/>
<path opacity="0.239216" d="M32.2313 22.2513L32.2525 22.2936L32.2313 22.2513Z" fill="white" stroke="white" stroke-width="0.0813954"/>
<path opacity="0.239216" d="M32.2948 22.336L32.316 22.3783L32.2948 22.336Z" fill="white" stroke="white" stroke-width="0.0813954"/>
<path opacity="0.239216" d="M32.3794 22.4418L32.4217 22.5053L32.3794 22.4418Z" fill="white" stroke="white" stroke-width="0.0813954"/>
<path opacity="0.239216" d="M32.5063 22.5899L32.6333 22.7381L32.5063 22.5899Z" fill="white" stroke="white" stroke-width="0.0813954"/>
<path opacity="0.239216" d="M24.3189 22.6323L24.2555 22.7169L24.3189 22.6323Z" fill="white" stroke="white" stroke-width="0.0813954"/>
<path opacity="0.239216" d="M24.1497 22.7804L24.1074 22.8439L24.1497 22.7804Z" fill="white" stroke="white" stroke-width="0.0813954"/>
<path opacity="0.239216" d="M32.7391 22.8228L32.866 22.9709L32.7391 22.8228Z" fill="white" stroke="white" stroke-width="0.0813954"/>
<path opacity="0.239216" d="M24.0439 22.8651L24.0016 22.9286L24.0439 22.8651Z" fill="white" stroke="white" stroke-width="0.0813954"/>
<path opacity="0.239216" d="M23.9381 22.9497L23.917 22.9921L23.9381 22.9497Z" fill="white" stroke="white" stroke-width="0.0813954"/>
<path opacity="0.239216" d="M23.8535 23.0132L23.8324 23.0556L23.8535 23.0132Z" fill="white" stroke="white" stroke-width="0.0813954"/>
<path opacity="0.239216" d="M32.9718 23.0344L33.0141 23.0979L32.9718 23.0344Z" fill="white" stroke="white" stroke-width="0.0813954"/>
<path opacity="0.239216" d="M23.79 23.0556L23.7689 23.0979L23.79 23.0556Z" fill="white" stroke="white" stroke-width="0.0813954"/>
<path opacity="0.239216" d="M46.0674 23.119L46.0462 23.1614L46.0674 23.119Z" fill="white" stroke="white" stroke-width="0.0813954"/>
<path opacity="0.239216" d="M33.0988 23.1402L33.1199 23.1825L33.0988 23.1402Z" fill="white" stroke="white" stroke-width="0.0813954"/>
<path opacity="0.239216" d="M0.349121 23.1614L0.370277 23.2037L0.349121 23.1614Z" fill="white" stroke="white" stroke-width="0.0813954"/>
<path opacity="0.239216" d="M46.0251 23.1826L46.004 23.2249L46.0251 23.1826Z" fill="white" stroke="white" stroke-width="0.0813954"/>
<path opacity="0.239216" d="M33.1834 23.2037L33.2045 23.246L33.1834 23.2037Z" fill="white" stroke="white" stroke-width="0.0813954"/>
<path opacity="0.239216" d="M0.391357 23.2249L0.412514 23.2672L0.391357 23.2249Z" fill="white" stroke="white" stroke-width="0.0813954"/>
<path opacity="0.239216" d="M45.9828 23.246L45.9617 23.2884L45.9828 23.246Z" fill="white" stroke="white" stroke-width="0.0813954"/>
<path opacity="0.239216" d="M23.4727 23.2672L23.4516 23.3095L23.4727 23.2672Z" fill="white" stroke="white" stroke-width="0.0813954"/>
<path opacity="0.239216" d="M33.2679 23.2672L33.2891 23.3095L33.2679 23.2672Z" fill="white" stroke="white" stroke-width="0.0813954"/>
<path opacity="0.239216" d="M0.454834 23.3095L0.47599 23.3519L0.454834 23.3095Z" fill="white" stroke="white" stroke-width="0.0813954"/>
<path opacity="0.239216" d="M45.9193 23.3307L45.8982 23.373L45.9193 23.3307Z" fill="white" stroke="white" stroke-width="0.0813954"/>
<path opacity="0.239216" d="M0.518311 23.3942L0.602935 23.5L0.518311 23.3942Z" fill="white" stroke="white" stroke-width="0.0813954"/>
<path opacity="0.239216" d="M45.8136 23.4577L45.6655 23.627L45.8136 23.4577Z" fill="white" stroke="white" stroke-width="0.0813954"/>
<path opacity="0.239216" d="M0.687592 23.5635L0.772216 23.6693L0.687592 23.5635Z" fill="white" stroke="white" stroke-width="0.0813954"/>
<path opacity="0.239216" d="M45.5808 23.6693L45.5385 23.7328L45.5808 23.6693Z" fill="white" stroke="white" stroke-width="0.0813954"/>
<path opacity="0.239216" d="M0.856842 23.7116L0.877998 23.754L0.856842 23.7116Z" fill="white" stroke="white" stroke-width="0.0813954"/>
<path opacity="0.239216" d="M45.4751 23.754L45.4539 23.7963L45.4751 23.754Z" fill="white" stroke="white" stroke-width="0.0813954"/>
<path opacity="0.239216" d="M45.4116 23.7963L45.3904 23.8386L45.4116 23.7963Z" fill="white" stroke="white" stroke-width="0.0813954"/>
<path opacity="0.239216" d="M20.9128 24.1349L20.9657 24.1455L20.9128 24.1561V24.1349Z" fill="white" stroke="white" stroke-width="0.0813954"/>
<path opacity="0.239216" d="M35.6586 24.1561L35.7326 24.1667L35.6586 24.1772V24.1561Z" fill="white" stroke="white" stroke-width="0.0813954"/>
<path opacity="0.509804" d="M0.772224 0.70636L0.751068 0.748688L0.772224 0.70636Z" fill="white" stroke="white" stroke-width="0.0813954"/>
<path opacity="0.509804" d="M45.6867 0.769852L45.7925 0.896836L45.6867 0.769852Z" fill="white" stroke="white" stroke-width="0.0813954"/>
<path opacity="0.509804" d="M0.560646 0.917984L0.53949 0.960312L0.560646 0.917984Z" fill="white" stroke="white" stroke-width="0.0813954"/>
<path opacity="0.509804" d="M31.6813 5.25662L31.6179 5.34128L31.6813 5.25662Z" fill="white" stroke="white" stroke-width="0.0813954"/>
<path opacity="0.509804" d="M23.7477 5.57408L23.7689 5.61641L23.7477 5.57408Z" fill="white" stroke="white" stroke-width="0.0813954"/>
<path opacity="0.509804" d="M23.8535 5.67989L23.8747 5.72221L23.8535 5.67989Z" fill="white" stroke="white" stroke-width="0.0813954"/>
<path opacity="0.509804" d="M5.59581 6.54761L5.5535 6.6111L5.59581 6.54761Z" fill="white" stroke="white" stroke-width="0.0813954"/>
<path opacity="0.509804" d="M5.38421 6.75925L5.32074 6.8439L5.38421 6.75925Z" fill="white" stroke="white" stroke-width="0.0813954"/>
<path opacity="0.509804" d="M23.8535 7.28835L23.79 7.373L23.8535 7.28835Z" fill="white" stroke="white" stroke-width="0.0813954"/>
<path opacity="0.509804" d="M5.36307 13.3201L5.55347 13.5318L5.36307 13.3201Z" fill="white" stroke="white" stroke-width="0.0813954"/>
<path opacity="0.509804" d="M41.0746 14.3995L41.0534 14.4418L41.0746 14.3995Z" fill="white" stroke="white" stroke-width="0.0813954"/>
<path opacity="0.509804" d="M40.9688 14.5053L40.9477 14.5476L40.9688 14.5053Z" fill="white" stroke="white" stroke-width="0.0813954"/>
<path opacity="0.509804" d="M24.2978 17.3624L24.192 17.4894L24.2978 17.3624Z" fill="white" stroke="white" stroke-width="0.0813954"/>
<path opacity="0.509804" d="M25.9268 17.4048L25.948 17.4471L25.9268 17.4048Z" fill="white" stroke="white" stroke-width="0.0813954"/>
<path opacity="0.509804" d="M23.0496 20.5159L23.0285 20.5582L23.0496 20.5159Z" fill="white" stroke="white" stroke-width="0.0813954"/>
<path opacity="0.509804" d="M34.2835 20.9815L34.3046 21.0238L34.2835 20.9815Z" fill="white" stroke="white" stroke-width="0.0813954"/>
<path opacity="0.509804" d="M24.6786 22.2725L24.4036 22.5688L24.6786 22.2725Z" fill="white" stroke="white" stroke-width="0.0813954"/>
<path opacity="0.509804" d="M32.9083 22.9709L32.9295 23.0132L32.9083 22.9709Z" fill="white" stroke="white" stroke-width="0.0813954"/>
<path opacity="0.784314" d="M45.5597 0.664017L45.5808 0.706345L45.5597 0.664017Z" fill="white" stroke="white" stroke-width="0.0813954"/>
<path opacity="0.784314" d="M0.729941 0.748672L0.581848 0.917985L0.729941 0.748672Z" fill="white" stroke="white" stroke-width="0.0813954"/>
<path opacity="0.784314" d="M45.877 0.981461L45.8982 1.02379L45.877 0.981461Z" fill="white" stroke="white" stroke-width="0.0813954"/>
<path opacity="0.784314" d="M46.3636 2.12434L46.3742 2.17725H46.353L46.3636 2.12434Z" fill="white" stroke="white" stroke-width="0.0813954"/>
<path opacity="0.784314" d="M31.7871 5.17194L31.7659 5.21426L31.7871 5.17194Z" fill="white" stroke="white" stroke-width="0.0813954"/>
<path opacity="0.784314" d="M8.51532 5.29893L8.58937 5.30952L8.51532 5.3201V5.29893Z" fill="white" stroke="white" stroke-width="0.0813954"/>
<path opacity="0.784314" d="M23.0496 5.29893L23.1025 5.30952L23.0496 5.3201V5.29893Z" fill="white" stroke="white" stroke-width="0.0813954"/>
<path opacity="0.784314" d="M31.5543 5.40475L31.5332 5.44708L31.5543 5.40475Z" fill="white" stroke="white" stroke-width="0.0813954"/>
<path opacity="0.784314" d="M23.6631 5.51057L23.6843 5.5529L23.6631 5.51057Z" fill="white" stroke="white" stroke-width="0.0813954"/>
<path opacity="0.784314" d="M23.79 5.61639L23.8324 5.67989L23.79 5.61639Z" fill="white" stroke="white" stroke-width="0.0813954"/>
<path opacity="0.784314" d="M5.7439 6.42064L5.72275 6.46297L5.7439 6.42064Z" fill="white" stroke="white" stroke-width="0.0813954"/>
<path opacity="0.784314" d="M5.53236 6.61111L5.40543 6.75926L5.53236 6.61111Z" fill="white" stroke="white" stroke-width="0.0813954"/>
<path opacity="0.784314" d="M5.215 6.94972L5.19385 6.99205L5.215 6.94972Z" fill="white" stroke="white" stroke-width="0.0813954"/>
<path opacity="0.784314" d="M5.04575 7.16138L5.0246 7.2037L5.04575 7.16138Z" fill="white" stroke="white" stroke-width="0.0813954"/>
<path opacity="0.784314" d="M4.98228 7.24603L4.96112 7.28836L4.98228 7.24603Z" fill="white" stroke="white" stroke-width="0.0813954"/>
<path opacity="0.784314" d="M8.66339 7.6693L8.77975 7.67988L8.66339 7.69046V7.6693Z" fill="white" stroke="white" stroke-width="0.0813954"/>
<path opacity="0.784314" d="M8.8327 7.6693L23.0602 7.67988L8.8327 7.69046V7.6693Z" fill="white" stroke="white" stroke-width="0.0813954"/>
<path opacity="0.784314" d="M7.35175 8.17723L7.3306 8.21956L7.35175 8.17723Z" fill="white" stroke="white" stroke-width="0.0813954"/>
<path opacity="0.784314" d="M7.20363 8.30423L7.07669 8.45238L7.20363 8.30423Z" fill="white" stroke="white" stroke-width="0.0813954"/>
<path opacity="0.784314" d="M6.97089 8.55818L6.94974 8.60051L6.97089 8.55818Z" fill="white" stroke="white" stroke-width="0.0813954"/>
<path opacity="0.784314" d="M6.90748 8.64287L6.88632 8.6852L6.90748 8.64287Z" fill="white" stroke="white" stroke-width="0.0813954"/>
<path opacity="0.784314" d="M4.09368 9.53174L4.10426 9.58465H4.0831L4.09368 9.53174Z" fill="white" stroke="white" stroke-width="0.0813954"/>
<path opacity="0.784314" d="M4.07253 9.80687L4.08311 9.92327H4.06195L4.07253 9.80687Z" fill="white" stroke="white" stroke-width="0.0813954"/>
<path opacity="0.784314" d="M6.44201 9.97618L6.45258 10.1349H6.43143L6.44201 9.97618Z" fill="white" stroke="white" stroke-width="0.0813954"/>
<path opacity="0.784314" d="M4.07253 10.1878L4.08311 10.3042H4.06195L4.07253 10.1878Z" fill="white" stroke="white" stroke-width="0.0813954"/>
<path opacity="0.784314" d="M4.09368 10.5265L4.10426 10.5794H4.0831L4.09368 10.5265Z" fill="white" stroke="white" stroke-width="0.0813954"/>
<path opacity="0.784314" d="M6.88632 11.4365L6.90748 11.4788L6.88632 11.4365Z" fill="white" stroke="white" stroke-width="0.0813954"/>
<path opacity="0.784314" d="M6.94974 11.5211L6.97089 11.5635L6.94974 11.5211Z" fill="white" stroke="white" stroke-width="0.0813954"/>
<path opacity="0.784314" d="M7.07669 11.6693L7.22478 11.8386L7.07669 11.6693Z" fill="white" stroke="white" stroke-width="0.0813954"/>
<path opacity="0.784314" d="M8.62112 12.4312L8.69517 12.4418L8.62112 12.4524V12.4312Z" fill="white" stroke="white" stroke-width="0.0813954"/>
<path opacity="0.784314" d="M40.8419 12.6429L40.863 12.6852L40.8419 12.6429Z" fill="white" stroke="white" stroke-width="0.0813954"/>
<path opacity="0.784314" d="M40.9477 12.7275L41.0746 12.8757L40.9477 12.7275Z" fill="white" stroke="white" stroke-width="0.0813954"/>
<path opacity="0.784314" d="M5.10916 13.0238L5.13032 13.0661L5.10916 13.0238Z" fill="white" stroke="white" stroke-width="0.0813954"/>
<path opacity="0.784314" d="M5.21497 13.1508L5.23612 13.1931L5.21497 13.1508Z" fill="white" stroke="white" stroke-width="0.0813954"/>
<path opacity="0.784314" d="M41.3496 13.4894L41.3602 13.5423H41.339L41.3496 13.4894Z" fill="white" stroke="white" stroke-width="0.0813954"/>
<path opacity="0.784314" d="M5.7016 13.6376L5.72276 13.6799L5.7016 13.6376Z" fill="white" stroke="white" stroke-width="0.0813954"/>
<path opacity="0.784314" d="M5.82855 13.7434L5.84971 13.7857L5.82855 13.7434Z" fill="white" stroke="white" stroke-width="0.0813954"/>
<path opacity="0.784314" d="M41.138 14.3148L41.1169 14.3571L41.138 14.3148Z" fill="white" stroke="white" stroke-width="0.0813954"/>
<path opacity="0.784314" d="M41.0323 14.4418L40.99 14.5053L41.0323 14.4418Z" fill="white" stroke="white" stroke-width="0.0813954"/>
<path opacity="0.784314" d="M8.55765 14.8016L8.65285 14.8122L8.55765 14.8228V14.8016Z" fill="white" stroke="white" stroke-width="0.0813954"/>
<path opacity="0.784314" d="M25.0383 17.0661L25.1546 17.0767L25.0383 17.0873V17.0661Z" fill="white" stroke="white" stroke-width="0.0813954"/>
<path opacity="0.784314" d="M25.7999 17.2989L25.8211 17.3412L25.7999 17.2989Z" fill="white" stroke="white" stroke-width="0.0813954"/>
<path opacity="0.784314" d="M23.8958 18.3571L23.9064 18.4524H23.8853L23.8958 18.3571Z" fill="white" stroke="white" stroke-width="0.0813954"/>
<path opacity="0.784314" d="M26.2653 18.5265L26.2759 18.6005H26.2547L26.2653 18.5265Z" fill="white" stroke="white" stroke-width="0.0813954"/>
<path opacity="0.784314" d="M26.2442 18.8016L26.2547 18.8545H26.2336L26.2442 18.8016Z" fill="white" stroke="white" stroke-width="0.0813954"/>
<path opacity="0.784314" d="M31.3005 19.3518L31.3111 19.4894H31.2899L31.3005 19.3518Z" fill="white" stroke="white" stroke-width="0.0813954"/>
<path opacity="0.784314" d="M22.9227 20.664L22.7957 20.8122L22.9227 20.664Z" fill="white" stroke="white" stroke-width="0.0813954"/>
<path opacity="0.784314" d="M22.6265 20.9392L22.6053 20.9815L22.6265 20.9392Z" fill="white" stroke="white" stroke-width="0.0813954"/>
<path opacity="0.784314" d="M34.2412 20.9392L34.2623 20.9815L34.2412 20.9392Z" fill="white" stroke="white" stroke-width="0.0813954"/>
<path opacity="0.784314" d="M22.5207 21.0238L22.4995 21.0661L22.5207 21.0238Z" fill="white" stroke="white" stroke-width="0.0813954"/>
<path opacity="0.784314" d="M22.436 21.0873L22.4149 21.1296L22.436 21.0873Z" fill="white" stroke="white" stroke-width="0.0813954"/>
<path opacity="0.784314" d="M34.4951 21.1931L34.5162 21.2355L34.4951 21.1931Z" fill="white" stroke="white" stroke-width="0.0813954"/>
<path opacity="0.784314" d="M25.2075 21.6164L25.1864 21.6587L25.2075 21.6164Z" fill="white" stroke="white" stroke-width="0.0813954"/>
<path opacity="0.784314" d="M20.6378 21.7646L20.6907 21.7751L20.6378 21.7857V21.7646Z" fill="white" stroke="white" stroke-width="0.0813954"/>
<path opacity="0.784314" d="M2.40121 21.7857L20.3733 21.7963L2.40121 21.8069V21.7857Z" fill="white" stroke="white" stroke-width="0.0813954"/>
<path opacity="0.784314" d="M35.976 21.7857L44.0047 21.7963L35.976 21.8069V21.7857Z" fill="white" stroke="white" stroke-width="0.0813954"/>
<path opacity="0.784314" d="M24.9325 21.9762L24.9113 22.0185L24.9325 21.9762Z" fill="white" stroke="white" stroke-width="0.0813954"/>
<path opacity="0.784314" d="M24.8267 22.1032L24.7844 22.1667L24.8267 22.1032Z" fill="white" stroke="white" stroke-width="0.0813954"/>
<path opacity="0.784314" d="M46.3636 22.1666L46.3742 22.2196H46.353L46.3636 22.1666Z" fill="white" stroke="white" stroke-width="0.0813954"/>
<path opacity="0.784314" d="M32.2948 22.3148L32.316 22.3571L32.2948 22.3148Z" fill="white" stroke="white" stroke-width="0.0813954"/>
<path opacity="0.784314" d="M32.3794 22.4206L32.4006 22.463L32.3794 22.4206Z" fill="white" stroke="white" stroke-width="0.0813954"/>
<path opacity="0.784314" d="M32.5063 22.5688L32.5486 22.6323L32.5063 22.5688Z" fill="white" stroke="white" stroke-width="0.0813954"/>
<path opacity="0.784314" d="M24.2555 22.6746L24.2343 22.7169L24.2555 22.6746Z" fill="white" stroke="white" stroke-width="0.0813954"/>
<path opacity="0.784314" d="M32.8448 22.9074L32.8872 22.9709L32.8448 22.9074Z" fill="white" stroke="white" stroke-width="0.0813954"/>
<path opacity="0.784314" d="M23.917 22.9497L23.8958 22.9921L23.917 22.9497Z" fill="white" stroke="white" stroke-width="0.0813954"/>
<path opacity="0.784314" d="M33.0141 23.0556L33.0353 23.0979L33.0141 23.0556Z" fill="white" stroke="white" stroke-width="0.0813954"/>
<path opacity="0.784314" d="M45.9193 23.3095L45.8982 23.3519L45.9193 23.3095Z" fill="white" stroke="white" stroke-width="0.0813954"/>
<path opacity="0.784314" d="M0.53949 23.3942L0.560646 23.4365L0.53949 23.3942Z" fill="white" stroke="white" stroke-width="0.0813954"/>
<path opacity="0.784314" d="M45.8135 23.4365L45.6443 23.627L45.8135 23.4365Z" fill="white" stroke="white" stroke-width="0.0813954"/>
<path opacity="0.784314" d="M0.772217 23.627L0.793373 23.6693L0.772217 23.627Z" fill="white" stroke="white" stroke-width="0.0813954"/>
<path opacity="0.784314" d="M45.5385 23.6905L45.5173 23.7328L45.5385 23.6905Z" fill="white" stroke="white" stroke-width="0.0813954"/>
<path opacity="0.784314" d="M0.877991 23.7116L0.899147 23.754L0.877991 23.7116Z" fill="white" stroke="white" stroke-width="0.0813954"/>
<path opacity="0.784314" d="M20.7859 24.1349L20.8388 24.1455L20.7647 24.1772L20.7859 24.1349Z" fill="white" stroke="white" stroke-width="0.0813954"/>
<path opacity="0.784314" d="M35.5529 24.1349L35.6057 24.1455L35.5529 24.1561V24.1349Z" fill="white" stroke="white" stroke-width="0.0813954"/>
<path opacity="0.784314" d="M2.0416 24.1561L2.11564 24.1667L2.0416 24.1772V24.1561Z" fill="white" stroke="white" stroke-width="0.0813954"/>
<path opacity="0.784314" d="M35.8279 24.1561L35.8807 24.1667L35.8279 24.1772V24.1561Z" fill="white" stroke="white" stroke-width="0.0813954"/>
<path opacity="0.784314" d="M44.2903 24.1561L44.3644 24.1667L44.2903 24.1772V24.1561Z" fill="white" stroke="white" stroke-width="0.0813954"/>
<path d="M1.95693 0.198425H44.4384C45.0646 0.305656 45.5406 0.563152 45.8664 0.970912C46.0033 1.13035 46.1161 1.31377 46.2049 1.52118L46.2896 1.75398L46.3742 2.19843V22.1561L46.353 22.1773V22.3254L46.3107 22.537C46.2501 22.7586 46.1654 22.9561 46.0568 23.1296C45.9186 23.3441 45.7529 23.5311 45.5597 23.6905C45.4045 23.8175 45.2282 23.9233 45.0308 24.0079L44.7134 24.1138L44.4807 24.1561H44.2903L44.2692 24.1773H35.8913L35.8702 24.1561H35.6163L35.5952 24.1349L35.2778 24.1138L34.8758 24.0291L34.3469 23.8598L34.0508 23.7328C33.4668 23.4563 32.9697 23.093 32.5592 22.6429C32.2405 22.2986 31.9725 21.9035 31.7553 21.4577L31.5014 20.8016L31.3534 20.1455L31.3322 19.8281L31.311 19.8069V14.8228H8.66342L8.64226 14.8016H8.34608L8.32492 14.7804H8.17683L7.81718 14.7169L7.47868 14.6323L6.90746 14.4206C6.24598 14.1229 5.6924 13.7173 5.24671 13.2037C4.86026 12.772 4.55702 12.257 4.337 11.6587L4.16775 11.0661L4.10428 10.7064L4.06197 9.94446L4.08312 9.92329L4.10428 9.41536L4.16775 9.05557L4.25237 8.71694L4.44278 8.18784C4.74883 7.49931 5.16843 6.92435 5.70156 6.46298C6.06263 6.14693 6.4787 5.8859 6.94978 5.67991L7.79602 5.40477L8.15567 5.34128H8.30377L8.32492 5.32012H8.5788L8.59995 5.29895H23.0284L23.0496 5.32012L23.2823 5.34128L23.6208 5.48943L23.9276 5.77514L24.118 6.1561L24.1603 6.36774V6.62171L24.118 6.83335L24.0333 7.04499C23.9487 7.20019 23.8394 7.3307 23.7054 7.43652C23.5672 7.55222 23.3909 7.62982 23.1765 7.66932H8.66342L8.64226 7.69049H8.47302L8.26145 7.73282L7.88064 7.8598C7.56048 8.00513 7.28898 8.19913 7.06613 8.44181C6.84752 8.67462 6.67827 8.9568 6.55839 9.28837L6.45261 9.73282L6.43145 10.1349L6.45261 10.1561L6.47376 10.5159L6.64301 11.045C6.78828 11.3582 6.98221 11.6228 7.2248 11.8386C7.41098 12.0122 7.62959 12.1533 7.88064 12.2619L8.17683 12.3677L8.62111 12.4524H31.311V5.98678C31.3703 5.64393 31.5148 5.38643 31.7447 5.2143C31.8505 5.12259 31.9775 5.05204 32.1255 5.00266L32.316 4.96033H32.6756C33.0056 5.02523 33.256 5.16985 33.4266 5.39419L33.6171 5.73282L33.6805 6.00795V12.4524H40.3341C40.691 12.5201 40.9554 12.6788 41.1275 12.9286L41.2967 13.246L41.3602 13.5635V13.7117L41.3179 13.9445L41.1698 14.2831L40.8842 14.59L40.5668 14.7593L40.2918 14.8228H33.6805V19.6799L33.744 20.0185L33.9767 20.59C34.122 20.8397 34.3018 21.0549 34.5162 21.2355C34.7207 21.4118 34.9605 21.5529 35.2355 21.6587L35.5105 21.7434L35.7432 21.7857H35.9548L35.976 21.8069H44.0047V2.5688H2.39063V21.8069H20.3628L20.3839 21.7857H20.6801L20.7012 21.7646L21.0821 21.7222L21.6956 21.5318C22.1836 21.3215 22.5961 21.0358 22.9332 20.6746C23.2097 20.3868 23.4353 20.0482 23.6102 19.6587C23.723 19.4048 23.8077 19.1226 23.8641 18.8122L23.9276 17.9868C24.0051 17.6975 24.1497 17.4753 24.3613 17.3201C24.5644 17.1353 24.8746 17.0577 25.2921 17.0873C25.6109 17.1564 25.8542 17.3011 26.022 17.5212L26.2336 17.9233L26.2759 18.1349V18.5159L26.2547 18.537V18.791L26.2336 18.8122L26.2124 19.1296L26.0855 19.7434C25.9853 20.1159 25.8584 20.4616 25.7047 20.7804C25.3422 21.5254 24.8662 22.1568 24.2766 22.6746C23.8056 23.0993 23.2555 23.445 22.6265 23.7117C22.319 23.8415 21.9875 23.9473 21.6321 24.0291L21.1455 24.1138H21.0186L20.9974 24.1349H20.7859L20.7436 24.1773H2.12618L2.10503 24.1561L1.76653 24.1349L1.36456 24.0079C1.04863 23.8725 0.784179 23.6855 0.571208 23.4471C0.416063 23.2778 0.289126 23.0803 0.190398 22.8545L0.084617 22.5582L0.0211487 22.2408V2.13493L0.105773 1.73282L0.275022 1.3307C0.421704 1.06686 0.608583 0.844633 0.835659 0.664034C1.00632 0.524351 1.20378 0.411476 1.42803 0.325409L1.70306 0.240753L1.93578 0.219589L1.95693 0.198425Z" fill="white" stroke="white" stroke-width="0.0813954"/>
<path opacity="0.501961" d="M2.06274 0.177246L44.3432 0.187828L2.06274 0.19841V0.177246Z" fill="white" stroke="white" stroke-width="0.0813954"/>
<path opacity="0.501961" d="M45.6443 0.727509L45.6654 0.769837L45.6443 0.727509Z" fill="white" stroke="white" stroke-width="0.0813954"/>
<path opacity="0.501961" d="M45.8136 0.896835L45.8347 0.939163L45.8136 0.896835Z" fill="white" stroke="white" stroke-width="0.0813954"/>
<path opacity="0.501961" d="M0.0105781 2.23016L0.0211561 2.34657H0L0.0105781 2.23016Z" fill="white" stroke="white" stroke-width="0.0813954"/>
<path opacity="0.501961" d="M0.0105781 2.39944L0.0211561 22.1349H0L0.0105781 2.39944Z" fill="white" stroke="white" stroke-width="0.0813954"/>
<path opacity="0.501961" d="M43.9941 2.56879L44.0047 21.7751H43.9836L43.9941 2.56879Z" fill="white" stroke="white" stroke-width="0.0813954"/>
<path opacity="0.501961" d="M32.3794 4.93915L32.6227 4.94973L32.3794 4.96031V4.93915Z" fill="white" stroke="white" stroke-width="0.0813954"/>
<path opacity="0.501961" d="M31.7236 5.21428L31.7024 5.25661L31.7236 5.21428Z" fill="white" stroke="white" stroke-width="0.0813954"/>
<path opacity="0.501961" d="M33.2891 5.23544L33.3949 5.36243L33.2891 5.23544Z" fill="white" stroke="white" stroke-width="0.0813954"/>
<path opacity="0.501961" d="M8.43069 5.29893L8.48358 5.30952L8.43069 5.3201V5.29893Z" fill="white" stroke="white" stroke-width="0.0813954"/>
<path opacity="0.501961" d="M31.5966 5.34128L31.5755 5.38361L31.5966 5.34128Z" fill="white" stroke="white" stroke-width="0.0813954"/>
<path opacity="0.501961" d="M31.3005 6.06084L31.311 12.4206L31.2793 12.4524H8.7269V12.4312H31.2793L31.2899 12.4206L31.3005 6.06084Z" fill="white" stroke="white" stroke-width="0.0813954"/>
<path opacity="0.501961" d="M5.6381 6.50526L5.61694 6.54759L5.6381 6.50526Z" fill="white" stroke="white" stroke-width="0.0813954"/>
<path opacity="0.501961" d="M5.29963 6.8439L5.27847 6.88623L5.29963 6.8439Z" fill="white" stroke="white" stroke-width="0.0813954"/>
<path opacity="0.501961" d="M23.7689 7.37302L23.7477 7.41534L23.7689 7.37302Z" fill="white" stroke="white" stroke-width="0.0813954"/>
<path opacity="0.501961" d="M4.07253 9.70105L4.08311 9.77512H4.06195L4.07253 9.70105Z" fill="white" stroke="white" stroke-width="0.0813954"/>
<path opacity="0.501961" d="M4.07253 10.336L4.08311 10.4101H4.06195L4.07253 10.336Z" fill="white" stroke="white" stroke-width="0.0813954"/>
<path opacity="0.501961" d="M7.28827 11.8598L7.30943 11.9021L7.28827 11.8598Z" fill="white" stroke="white" stroke-width="0.0813954"/>
<path opacity="0.501961" d="M33.7123 12.4312L40.2389 12.4418L33.7123 12.4524V12.4312Z" fill="white" stroke="white" stroke-width="0.0813954"/>
<path opacity="0.501961" d="M5.29965 13.2566L5.34196 13.3201L5.29965 13.2566Z" fill="white" stroke="white" stroke-width="0.0813954"/>
<path opacity="0.501961" d="M5.57465 13.5317L5.61696 13.5952L5.57465 13.5317Z" fill="white" stroke="white" stroke-width="0.0813954"/>
<path opacity="0.501961" d="M8.47302 14.8016L8.52591 14.8122L8.47302 14.8228V14.8016Z" fill="white" stroke="white" stroke-width="0.0813954"/>
<path opacity="0.501961" d="M31.3005 14.8439L31.3111 19.3201H31.2899L31.3005 14.8439Z" fill="white" stroke="white" stroke-width="0.0813954"/>
<path opacity="0.501961" d="M25.8845 17.3624L25.9057 17.4048L25.8845 17.3624Z" fill="white" stroke="white" stroke-width="0.0813954"/>
<path opacity="0.501961" d="M25.9691 17.4471L25.9903 17.4894L25.9691 17.4471Z" fill="white" stroke="white" stroke-width="0.0813954"/>
<path opacity="0.501961" d="M23.8958 18.1878L23.9064 18.3466H23.8853L23.8958 18.1878Z" fill="white" stroke="white" stroke-width="0.0813954"/>
<path opacity="0.501961" d="M23.8747 18.5688L23.8853 18.6217H23.8641L23.8747 18.5688Z" fill="white" stroke="white" stroke-width="0.0813954"/>
<path opacity="0.501961" d="M26.2653 18.6322L26.2759 18.6852H26.2547L26.2653 18.6322Z" fill="white" stroke="white" stroke-width="0.0813954"/>
<path opacity="0.501961" d="M31.3005 19.5L31.3111 19.6376H31.2899L31.3005 19.5Z" fill="white" stroke="white" stroke-width="0.0813954"/>
<path opacity="0.501961" d="M22.6899 20.8757L22.6688 20.918L22.6899 20.8757Z" fill="white" stroke="white" stroke-width="0.0813954"/>
<path opacity="0.501961" d="M34.3258 21.0238L34.4527 21.172L34.3258 21.0238Z" fill="white" stroke="white" stroke-width="0.0813954"/>
<path opacity="0.501961" d="M20.5743 21.7646L20.6272 21.7751L20.5743 21.7857V21.7646Z" fill="white" stroke="white" stroke-width="0.0813954"/>
<path opacity="0.501961" d="M24.7209 22.2301L24.6997 22.2725L24.7209 22.2301Z" fill="white" stroke="white" stroke-width="0.0813954"/>
<path opacity="0.501961" d="M32.4429 22.5053L32.4641 22.5476L32.4429 22.5053Z" fill="white" stroke="white" stroke-width="0.0813954"/>
<path opacity="0.501961" d="M24.3824 22.5688L24.3401 22.6323L24.3824 22.5688Z" fill="white" stroke="white" stroke-width="0.0813954"/>
<path opacity="0.501961" d="M24.192 22.7381L24.1708 22.7804L24.192 22.7381Z" fill="white" stroke="white" stroke-width="0.0813954"/>
<path opacity="0.501961" d="M32.6545 22.7381L32.7179 22.8227L32.6545 22.7381Z" fill="white" stroke="white" stroke-width="0.0813954"/>
<path opacity="0.501961" d="M45.877 23.373L45.8559 23.4153L45.877 23.373Z" fill="white" stroke="white" stroke-width="0.0813954"/>
<path opacity="0.501961" d="M0.624115 23.5L0.666427 23.5635L0.624115 23.5Z" fill="white" stroke="white" stroke-width="0.0813954"/>
<path opacity="0.501961" d="M20.8494 24.1349L20.9023 24.1455L20.8494 24.1561V24.1349Z" fill="white" stroke="white" stroke-width="0.0813954"/>
<path opacity="0.501961" d="M35.7432 24.1561L35.8173 24.1667L35.7432 24.1772V24.1561Z" fill="white" stroke="white" stroke-width="0.0813954"/>
<path opacity="0.501961" d="M44.3749 24.1561L44.4278 24.1667L44.3749 24.1772V24.1561Z" fill="white" stroke="white" stroke-width="0.0813954"/>
</g>
<defs>
<clipPath id="clip0_208_957">
<rect width="46.3954" height="24" fill="white" transform="translate(0 0.177246)"/>
</clipPath>
</defs>
</svg>
