<svg width="102" height="25" viewBox="0 0 102 25" fill="none" xmlns="http://www.w3.org/2000/svg">
<path d="M17.3467 18.5416C16.6965 18.0543 16.2947 17.2873 16.3653 16.1674C16.4047 15.5321 16.6449 14.9294 16.8323 14.3199C17.4838 12.2009 16.144 9.90133 15.5902 7.89363C15.1137 6.16422 14.9698 3.17371 17.2734 2.73525C19.1739 2.3728 21.168 4.46602 22.0843 5.9063C23.2992 7.8149 23.8979 10.1891 23.8572 12.4452C23.8205 14.4977 23.287 17.533 21.373 18.7059C20.7621 19.0833 20.0522 19.2694 19.3347 19.2401C18.6172 19.2109 17.9249 18.9676 17.3467 18.5416ZM19.14 6.30675C18.9128 6.16288 18.6419 6.10465 18.3757 6.1425C17.211 6.27824 17.8531 8.40404 18.0866 8.97825C18.4096 9.77237 18.8834 10.428 19.0368 11.2941C19.1418 11.9119 19.1633 12.5411 19.1006 13.1647C19.0476 13.7579 18.8128 14.4258 18.9458 15.0176C19.0001 15.2466 19.1323 15.4495 19.3198 15.5916C19.5073 15.7338 19.7384 15.8063 19.9734 15.7968C21.8739 15.7968 21.6676 12.6597 21.5685 11.4176C21.4327 9.65291 20.9291 7.92893 19.5974 6.6787C19.4543 6.54361 19.3014 6.41929 19.14 6.30675Z" fill="black"/>
<path d="M14.2436 17.9321C13.7568 18.4922 13.0945 18.8707 12.3648 19.0059C10.611 19.3561 9.01865 18.3448 8.3114 16.7538C7.38968 14.6796 8.57068 13.0221 8.69014 10.9534C8.75123 9.89046 8.20824 8.93888 8.2829 7.88005C8.37656 6.54294 9.35802 5.32801 10.7101 5.1176C11.9779 4.91941 13.6965 5.79633 13.8865 7.15381C13.9362 7.5982 13.9458 8.04616 13.915 8.49227C13.8662 9.61218 14.3331 10.5963 14.6766 11.6307C15.02 12.6651 15.2712 13.766 15.2644 14.8751C15.2521 16.0276 14.9223 17.1394 14.2436 17.9321ZM10.8499 9.07055C10.7533 9.15493 10.6762 9.25938 10.6242 9.37661C10.5721 9.49385 10.5463 9.62104 10.5485 9.74929C10.5716 10.3547 10.7616 10.9194 10.7847 11.514C10.8241 12.5878 10.2091 13.5991 10.4467 14.6769C10.63 15.5117 11.5218 16.3167 12.3757 15.6706C12.9716 15.2199 13.0123 14.2805 12.9064 13.6113C12.749 12.6163 12.153 11.7421 12.1055 10.7348C12.0892 10.3887 12.1055 10.0398 12.0838 9.69363C12.0878 9.56281 12.0619 9.43281 12.008 9.31353C11.9542 9.19426 11.8738 9.08886 11.773 9.00539C11.4567 8.76105 11.0915 8.84385 10.839 9.07055H10.8499Z" fill="black"/>
<path d="M1.17247 10.7688C1.33738 10.5985 1.51579 10.4419 1.70596 10.3004C2.20822 9.92712 2.84351 9.77645 3.29827 9.33663C3.86569 8.79364 4.03673 8.24386 3.91727 7.47825C3.72858 6.26874 3.9485 4.4443 4.60551 3.33118C5.58017 1.67914 6.80868 0.958318 8.62226 0.470987C10.053 0.0868226 12.1055 0.00130249 13.4616 0.696327C14.2653 1.10357 14.2992 2.10538 13.5621 2.58321C12.6322 3.18593 11.4485 2.68231 10.4304 2.80855C9.1381 2.96873 7.96118 3.48729 7.2105 4.58684C6.41502 5.75562 6.0485 7.314 6.42859 8.6959C6.57751 9.15657 6.6419 9.64037 6.61864 10.124C6.51411 11.2398 5.37655 11.59 4.48605 12.0733C3.18152 12.7819 3.20596 13.7878 2.39419 14.7679C1.81727 15.4642 0.686496 15.19 0.275182 14.4584C-0.228439 13.5611 0.0213348 12.4534 0.524956 11.6158C0.707952 11.3098 0.925187 11.0256 1.17247 10.7688Z" fill="black"/>
<path d="M5.71731 21.9977C4.50509 20.9701 3.73676 19.4919 3.45984 17.9375C3.28337 16.9452 3.26437 15.6136 4.00283 14.6918C4.10809 14.5573 4.23976 14.4457 4.38973 14.3639C4.53971 14.2821 4.70482 14.2319 4.87493 14.2162C5.04504 14.2006 5.21655 14.2199 5.37892 14.273C5.54129 14.3261 5.6911 14.4118 5.81912 14.5249C6.54537 15.1724 6.39605 16.0588 6.44899 16.8692C6.53623 17.9645 7.01868 18.9907 7.80646 19.7566C9.02818 20.9661 10.8119 21.4317 12.4911 21.2226C13.2683 21.1169 14.0337 20.9379 14.7771 20.6878C15.4979 20.4543 16.4413 20.0905 17.1798 20.4163C17.473 20.5517 17.7044 20.7926 17.8279 21.0909C17.9514 21.3893 17.958 21.7232 17.8463 22.0262C17.7291 22.2863 17.5473 22.512 17.3183 22.6819C16.368 23.5059 14.8884 23.8439 13.6721 24.0217C12.0784 24.2552 10.649 24.2457 9.09606 23.8561C7.98022 23.5806 6.6689 22.8041 5.71731 21.9977Z" fill="black"/>
<path d="M43.4616 17.0868C43.1605 17.9262 42.6525 18.6759 41.9847 19.2664C41.3168 19.8569 40.5108 20.2691 39.6413 20.4647C38.9238 20.6085 38.1937 20.6789 37.462 20.6749C36.6891 20.6749 35.9184 20.5932 35.1627 20.4309C34.4143 20.27 33.69 20.0126 33.0078 19.6653C32.3588 19.3419 31.7786 18.8958 31.2993 18.3516C30.9984 18.0177 30.8274 17.5869 30.8173 17.1375C30.7972 16.7173 30.8898 16.2994 31.0855 15.9271C31.2574 15.6013 31.5431 15.3501 31.8881 15.2214C31.9931 15.1824 32.1043 15.1627 32.2164 15.1633C32.5155 15.1781 32.804 15.2791 33.0472 15.4541C33.4786 15.7448 33.9319 16.0014 34.4031 16.2217C34.9072 16.4639 35.4319 16.6604 35.971 16.8091C36.4674 16.9483 36.9802 17.0209 37.4958 17.0249C37.9559 17.0356 38.4101 16.9194 38.8086 16.689C39.3506 16.3437 39.6394 15.9383 39.6657 15.4579C39.6869 15.2442 39.6505 15.0287 39.5601 14.834C39.4697 14.6392 39.3287 14.4723 39.1518 14.3507C38.6785 14.0564 38.1675 13.8279 37.6327 13.6714C37.07 13.5062 36.5074 13.3505 35.9448 13.2116C35.3821 13.0727 34.8195 12.9132 34.2812 12.7387C33.7634 12.5713 33.2758 12.3216 32.8371 11.9993C31.8994 11.2937 31.3555 10.4117 31.2074 9.37205C31.0592 8.33241 31.2861 7.274 31.8788 6.22498C32.1934 5.68202 32.6277 5.218 33.1485 4.86818C33.6873 4.50696 34.2762 4.22687 34.8964 4.03685C35.5332 3.84306 36.1928 3.73452 36.8581 3.71407C37.4963 3.69002 38.1354 3.72458 38.7673 3.81729C39.1917 3.89482 39.6117 3.99441 40.0257 4.11567C40.4516 4.23765 40.8628 4.40566 41.2523 4.61672C41.6307 4.82375 41.9775 5.08413 42.2819 5.38988C42.5914 5.70464 42.8177 6.09163 42.9402 6.51585C43.0267 6.78171 43.0441 7.06522 42.9908 7.33968C42.9454 7.58276 42.8331 7.8083 42.6664 7.99087C42.4936 8.17144 42.2792 8.30677 42.0419 8.38496C41.7864 8.47253 41.5132 8.49573 41.2467 8.45251C40.9131 8.38763 40.5883 8.28371 40.2789 8.14287C39.9714 8.00025 39.6657 7.84824 39.3693 7.68873C39.0668 7.52453 38.7535 7.38096 38.4316 7.25899C38.1028 7.13625 37.7548 7.07272 37.4039 7.07133C36.916 7.03181 36.4272 7.1355 35.9973 7.36971C35.6595 7.55613 35.3906 7.84626 35.2302 8.19729C35.1602 8.36863 35.1272 8.55283 35.1334 8.73782C35.1395 8.9228 35.1847 9.1044 35.2658 9.27072C35.4271 9.64604 35.7703 9.97257 36.2842 10.2409C36.7609 10.4884 37.2643 10.6804 37.7846 10.8133L39.3843 11.2355C39.9057 11.3744 40.4233 11.5395 40.9222 11.7253C41.4021 11.9003 41.8496 12.154 42.2463 12.476C42.9401 13.0175 43.4225 13.785 43.6097 14.6453C43.7833 15.4575 43.732 16.3016 43.4616 17.0868Z" fill="black"/>
<path d="M61.4593 17.6821C61.4105 18.0038 61.2758 18.3066 61.0691 18.5588C60.7143 18.9738 60.2912 19.3258 59.8178 19.5997C59.3249 19.9092 58.794 20.1543 58.2382 20.3291C57.5893 20.5362 56.9139 20.6493 56.2327 20.6649C55.5289 20.6912 54.8241 20.6663 54.124 20.5903C53.8201 20.5399 53.4974 20.4765 53.1654 20.4037C52.8333 20.331 52.5144 20.2396 52.2274 20.1426C51.1916 19.7854 50.248 19.2051 49.464 18.4432C48.7429 17.7314 48.1693 16.886 47.7755 15.9547C47.3823 15.0115 47.1588 14.0069 47.1152 12.9868C47.0642 11.9305 47.191 10.8732 47.4904 9.85846C47.7228 8.986 48.073 8.14889 48.5316 7.36997C48.9115 6.73763 49.4034 6.17892 49.9836 5.72093C50.5586 5.27968 51.1974 4.92748 51.8784 4.67629C52.6544 4.39178 53.4476 4.15627 54.2535 3.97116C54.6977 3.88426 55.1496 3.84114 55.6023 3.84244C56.0824 3.84382 56.5614 3.88751 57.0338 3.97302C57.9691 4.13187 58.8663 4.46341 59.679 4.95051C60.2653 5.27048 60.7638 5.72842 61.131 6.28429C61.3096 6.59655 61.4088 6.94748 61.4199 7.30654C61.4327 7.66706 61.3416 8.02369 61.1573 8.3344C60.9916 8.70235 60.69 8.99288 60.3149 9.14586C59.9114 9.29325 59.4711 9.30893 59.058 9.19063C58.8711 9.15139 58.6943 9.07458 58.5383 8.96492C58.357 8.84055 58.1694 8.70562 57.9755 8.56011C57.7531 8.39976 57.5192 8.25574 57.2758 8.1292C56.945 7.96904 56.589 7.86681 56.2233 7.827C55.7785 7.77287 55.3287 7.77287 54.8838 7.827C54.428 7.87521 53.9818 7.98959 53.5593 8.16651C52.9338 8.47973 52.4164 8.97141 52.0735 9.57864C51.7209 10.1836 51.4842 10.8484 51.3756 11.5392C51.2671 12.2372 51.2881 12.9492 51.4375 13.6397C51.5711 14.3191 51.8823 14.9516 52.3399 15.4734C52.7068 15.8869 53.1592 16.2165 53.6663 16.4397C54.1551 16.6718 54.6783 16.8242 55.2159 16.8911C55.6819 16.9459 56.1531 16.939 56.6173 16.8706C57.0685 16.8054 57.5139 16.7049 57.9493 16.5703H57.9736C58.3455 16.412 58.7075 16.2319 59.058 16.0312C59.3696 15.8471 59.7122 15.7207 60.0692 15.6581C60.3873 15.6381 60.7007 15.7417 60.9434 15.9472C61.1661 16.1563 61.3282 16.4211 61.4124 16.7139C61.5011 17.029 61.5172 17.36 61.4593 17.6821Z" fill="black"/>
<path d="M80.102 7.79695C79.7401 7.08804 79.2735 6.4381 78.7181 5.86913C78.1009 5.26548 77.384 4.77389 76.5993 4.41623C75.5682 3.94734 74.4492 3.70539 73.3172 3.70667C72.7856 3.70701 72.2551 3.75856 71.7333 3.8606C70.9011 4.02329 70.0933 4.29334 69.3302 4.66401C68.3588 5.13186 67.5044 5.81245 66.8298 6.65565C66.1285 7.51913 65.5862 8.66419 65.2178 10.057C64.8745 11.3007 64.7974 12.6032 64.9915 13.8789C65.1639 15.0634 65.5859 16.1973 66.2295 17.2051C66.8779 18.1863 67.7432 19.0041 68.7579 19.5947C69.869 20.2363 71.1198 20.5947 72.4009 20.6384C73.1943 20.7076 73.9933 20.6786 74.7797 20.5521C75.5587 20.4332 76.3173 20.2051 77.0331 19.8744C77.5723 19.6132 78.0752 19.2825 78.5292 18.8908C78.988 18.4997 79.3864 18.0423 79.7111 17.5336C80.3869 16.4056 80.8704 15.1723 81.1418 13.8845C81.4176 12.6079 81.3583 11.2812 80.9697 10.0345C80.766 9.25802 80.4749 8.50733 80.102 7.79695ZM76.6573 14.2017C76.3508 14.9244 75.8732 15.561 75.2659 16.0563C74.7098 16.5164 74.0097 16.7644 73.2892 16.7565C73.2131 16.7565 73.1365 16.7565 73.0592 16.7565C72.3668 16.7077 71.6855 16.5559 71.0376 16.306C70.3625 16.0451 69.8818 15.7072 69.6107 15.2961C69.2997 14.823 69.0738 14.2989 68.9431 13.7475C68.8049 13.1875 68.76 12.6084 68.8103 12.0336C68.8588 11.4714 68.9846 10.9187 69.1843 10.3911C69.3744 9.87264 69.6809 9.40505 70.0801 9.0246C70.5116 8.62578 71.0257 8.3277 71.5855 8.15173C72.1534 7.96317 72.7491 7.87303 73.3472 7.88517C73.9404 7.89482 74.5258 8.02243 75.0695 8.2606C75.6256 8.50261 76.0916 8.91446 76.401 9.43757C76.8324 10.154 77.0691 10.9715 77.0874 11.8084C77.1207 12.6282 76.9739 13.4453 76.6573 14.2017Z" fill="black"/>
<path d="M100.924 10.0359C100.718 9.25877 100.423 8.5079 100.047 7.79783C99.6855 7.08877 99.2191 6.43869 98.6639 5.8696C98.0469 5.26581 97.3302 4.77412 96.5458 4.41639C95.5152 3.94739 94.3965 3.70539 93.265 3.70667C92.7335 3.70701 92.2033 3.75857 91.6816 3.86063C90.8509 4.02423 90.0448 4.29496 89.2832 4.6661C88.3122 5.13399 87.458 5.81473 86.7838 6.65816C86.0827 7.52183 85.5406 8.66714 85.1723 10.0603C84.8293 11.3042 84.7523 12.607 84.9461 13.8829C85.1216 15.0678 85.5467 16.2013 86.193 17.2081C86.838 18.1881 87.699 19.006 88.7093 19.5982C89.8225 20.2398 91.0755 20.597 92.3583 20.6383C93.1515 20.7077 93.9501 20.6787 94.7362 20.552C95.515 20.4331 96.2733 20.2049 96.9889 19.8742C97.5279 19.613 98.0307 19.2823 98.4844 18.8903C98.9431 18.4992 99.3413 18.0417 99.6659 17.5329C100.342 16.4046 100.826 15.1711 101.098 13.8829C101.372 12.6071 101.312 11.2815 100.924 10.0359ZM96.6038 14.204C96.2974 14.9268 95.82 15.5636 95.2129 16.059C94.6571 16.5191 93.9572 16.7672 93.237 16.7593C93.161 16.7593 93.0843 16.7593 93.007 16.7593C92.3149 16.7105 91.6339 16.5587 90.9862 16.3087C90.3113 16.0477 89.8309 15.7079 89.5598 15.2986C89.2488 14.8255 89.0229 14.3012 88.8925 13.7496C88.7545 13.1895 88.7096 12.6103 88.7597 12.0354C88.8084 11.4731 88.9342 10.9203 89.1336 10.3926C89.3237 9.87398 89.6301 9.40628 90.0291 9.02574C90.4604 8.62684 90.9743 8.3287 91.5339 8.15269C92.1016 7.96402 92.6971 7.87386 93.2949 7.88608C93.8885 7.89548 94.4744 8.02311 95.0185 8.26158C95.5743 8.50375 96.0401 8.91566 96.3495 9.43881C96.7807 10.1554 97.0172 10.973 97.0356 11.8101C97.0689 12.6301 96.9222 13.4474 96.6056 14.204H96.6038Z" fill="black"/>
</svg>
