<svg width="102" height="24" viewBox="0 0 102 24" fill="none" xmlns="http://www.w3.org/2000/svg">
<path d="M17.3467 18.3644C16.6965 17.877 16.2947 17.1101 16.3653 15.9902C16.4047 15.3549 16.6449 14.7522 16.8323 14.1426C17.4838 12.0236 16.144 9.72408 15.5902 7.71639C15.1137 5.98697 14.9698 2.99646 17.2734 2.558C19.1739 2.19555 21.168 4.28877 22.0843 5.72905C23.2992 7.63765 23.8979 10.0119 23.8572 12.268C23.8205 14.3205 23.287 17.3558 21.373 18.5286C20.7621 18.9061 20.0522 19.0922 19.3347 19.0629C18.6172 19.0336 17.9249 18.7904 17.3467 18.3644ZM19.14 6.1295C18.9128 5.98564 18.6419 5.9274 18.3757 5.96525C17.211 6.10099 17.8531 8.22679 18.0866 8.801C18.4096 9.59512 18.8834 10.2508 19.0368 11.1168C19.1418 11.7347 19.1633 12.3639 19.1006 12.9874C19.0476 13.5807 18.8128 14.2485 18.9458 14.8404C19.0001 15.0693 19.1323 15.2722 19.3198 15.4144C19.5073 15.5565 19.7384 15.6291 19.9734 15.6196C21.8739 15.6196 21.6676 12.4825 21.5685 11.2404C21.4327 9.47566 20.9291 7.75168 19.5974 6.50145C19.4543 6.36637 19.3014 6.24204 19.14 6.1295Z" fill="#F7A518"/>
<path d="M14.2436 17.7549C13.7568 18.315 13.0945 18.6935 12.3648 18.8286C10.611 19.1789 9.01865 18.1675 8.3114 16.5766C7.38968 14.5024 8.57068 12.8449 8.69014 10.7761C8.75123 9.71322 8.20824 8.76163 8.2829 7.70281C8.37656 6.3657 9.35802 5.15076 10.7101 4.94036C11.9779 4.74216 13.6965 5.61909 13.8865 6.97656C13.9362 7.42095 13.9458 7.86892 13.915 8.31503C13.8662 9.43494 14.3331 10.4191 14.6766 11.4535C15.02 12.4879 15.2712 13.5888 15.2644 14.6978C15.2521 15.8503 14.9223 16.9621 14.2436 17.7549ZM10.8499 8.89331C10.7533 8.97768 10.6762 9.08214 10.6242 9.19937C10.5721 9.3166 10.5463 9.44379 10.5485 9.57204C10.5716 10.1775 10.7616 10.7422 10.7847 11.3368C10.8241 12.4105 10.2091 13.4218 10.4467 14.4997C10.63 15.3345 11.5218 16.1395 12.3757 15.4933C12.9716 15.0426 13.0123 14.1033 12.9064 13.434C12.749 12.439 12.153 11.5648 12.1055 10.5576C12.0892 10.2114 12.1055 9.86254 12.0838 9.51639C12.0878 9.38557 12.0619 9.25556 12.008 9.13629C11.9542 9.01701 11.8738 8.91162 11.773 8.82815C11.4567 8.5838 11.0915 8.66661 10.839 8.89331H10.8499Z" fill="#F7A518"/>
<path d="M1.17247 10.5915C1.33738 10.4213 1.51579 10.2647 1.70596 10.1232C2.20822 9.74988 2.84351 9.5992 3.29827 9.15938C3.86569 8.61639 4.03673 8.06662 3.91727 7.301C3.72858 6.0915 3.9485 4.26706 4.60551 3.15393C5.58017 1.50189 6.80868 0.781072 8.62226 0.293741C10.053 -0.0904235 12.1055 -0.175944 13.4616 0.519081C14.2653 0.926322 14.2992 1.92814 13.5621 2.40597C12.6322 3.00868 11.4485 2.50506 10.4304 2.6313C9.1381 2.79149 7.96118 3.31004 7.2105 4.40959C6.41502 5.57837 6.0485 7.13675 6.42859 8.51865C6.57751 8.97932 6.6419 9.46313 6.61864 9.94671C6.51411 11.0626 5.37655 11.4128 4.48605 11.896C3.18152 12.6046 3.20596 13.6105 2.39419 14.5906C1.81727 15.287 0.686496 15.0128 0.275182 14.2811C-0.228439 13.3838 0.0213348 12.2761 0.524956 11.4386C0.707952 11.1326 0.925187 10.8484 1.17247 10.5915Z" fill="#F7A518"/>
<path d="M5.71731 21.8205C4.50509 20.7929 3.73676 19.3146 3.45984 17.7603C3.28337 16.768 3.26437 15.4363 4.00283 14.5146C4.10809 14.3801 4.23976 14.2685 4.38973 14.1867C4.53971 14.1049 4.70482 14.0546 4.87493 14.039C5.04504 14.0233 5.21655 14.0427 5.37892 14.0957C5.54129 14.1488 5.6911 14.2345 5.81912 14.3476C6.54537 14.9951 6.39605 15.8816 6.44899 16.692C6.53623 17.7872 7.01868 18.8134 7.80646 19.5793C9.02818 20.7888 10.8119 21.2544 12.4911 21.0454C13.2683 20.9397 14.0337 20.7606 14.7771 20.5105C15.4979 20.2771 16.4413 19.9133 17.1798 20.239C17.473 20.3744 17.7044 20.6153 17.8279 20.9137C17.9514 21.2121 17.958 21.546 17.8463 21.849C17.7291 22.109 17.5473 22.3347 17.3183 22.5047C16.368 23.3286 14.8884 23.6667 13.6721 23.8445C12.0784 24.078 10.649 24.0685 9.09606 23.6789C7.98022 23.4033 6.6689 22.6268 5.71731 21.8205Z" fill="#F7A518"/>
<path d="M43.4616 16.9096C43.1605 17.7489 42.6525 18.4986 41.9847 19.0891C41.3168 19.6796 40.5108 20.0918 39.6413 20.2875C38.9238 20.4312 38.1937 20.5017 37.462 20.4976C36.6891 20.4977 35.9184 20.4159 35.1627 20.2537C34.4143 20.0927 33.69 19.8353 33.0078 19.488C32.3588 19.1646 31.7786 18.7186 31.2993 18.1744C30.9984 17.8405 30.8274 17.4096 30.8173 16.9602C30.7972 16.54 30.8898 16.1221 31.0855 15.7498C31.2574 15.424 31.5431 15.1729 31.8881 15.0442C31.9931 15.0051 32.1043 14.9854 32.2164 14.986C32.5155 15.0009 32.804 15.1019 33.0472 15.2769C33.4786 15.5676 33.9319 15.8242 34.4031 16.0444C34.9072 16.2866 35.4319 16.4832 35.971 16.6318C36.4674 16.7711 36.9802 16.8437 37.4958 16.8476C37.9559 16.8583 38.4101 16.7421 38.8086 16.5117C39.3506 16.1664 39.6394 15.7611 39.6657 15.2807C39.6869 15.067 39.6505 14.8515 39.5601 14.6567C39.4697 14.462 39.3287 14.2951 39.1518 14.1735C38.6785 13.8792 38.1675 13.6506 37.6327 13.4941C37.07 13.329 36.5074 13.1732 35.9448 13.0344C35.3821 12.8955 34.8195 12.736 34.2812 12.5614C33.7634 12.394 33.2758 12.1444 32.8371 11.8221C31.8994 11.1165 31.3555 10.2344 31.2074 9.19481C31.0592 8.15516 31.2861 7.09676 31.8788 6.04773C32.1934 5.50478 32.6277 5.04075 33.1485 4.69094C33.6873 4.32972 34.2762 4.04962 34.8964 3.8596C35.5332 3.66581 36.1928 3.55728 36.8581 3.53683C37.4963 3.51278 38.1354 3.54733 38.7673 3.64004C39.1917 3.71758 39.6117 3.81717 40.0257 3.93842C40.4516 4.06041 40.8628 4.22842 41.2523 4.43948C41.6307 4.6465 41.9775 4.90689 42.2819 5.21264C42.5914 5.5274 42.8177 5.91438 42.9402 6.33861C43.0267 6.60447 43.0441 6.88798 42.9908 7.16244C42.9454 7.40551 42.8331 7.63106 42.6664 7.81362C42.4936 7.9942 42.2792 8.12953 42.0419 8.20771C41.7864 8.29529 41.5132 8.31849 41.2467 8.27527C40.9131 8.21039 40.5883 8.10646 40.2789 7.96563C39.9714 7.82301 39.6657 7.671 39.3693 7.51149C39.0668 7.34728 38.7535 7.20371 38.4316 7.08175C38.1028 6.95901 37.7548 6.89548 37.4039 6.89409C36.916 6.85457 36.4272 6.95826 35.9973 7.19247C35.6595 7.37888 35.3906 7.66902 35.2302 8.02005C35.1602 8.19139 35.1272 8.37559 35.1334 8.56057C35.1395 8.74556 35.1847 8.92716 35.2658 9.09347C35.4271 9.4688 35.7703 9.79532 36.2842 10.0637C36.7609 10.3111 37.2643 10.5032 37.7846 10.636L39.3843 11.0583C39.9057 11.1972 40.4233 11.3623 40.9222 11.5481C41.4021 11.7231 41.8496 11.9768 42.2463 12.2987C42.9401 12.8402 43.4225 13.6078 43.6097 14.4681C43.7833 15.2802 43.732 16.1244 43.4616 16.9096Z" fill="#335271"/>
<path d="M61.4593 17.5048C61.4105 17.8266 61.2758 18.1293 61.0691 18.3816C60.7143 18.7966 60.2912 19.1485 59.8178 19.4225C59.3249 19.7319 58.794 19.9771 58.2382 20.1519C57.5893 20.359 56.9139 20.472 56.2327 20.4877C55.5289 20.514 54.8241 20.489 54.124 20.413C53.8201 20.3627 53.4974 20.2992 53.1654 20.2265C52.8333 20.1537 52.5144 20.0623 52.2274 19.9653C51.1916 19.6081 50.248 19.0278 49.464 18.2659C48.7429 17.5542 48.1693 16.7087 47.7755 15.7774C47.3823 14.8342 47.1588 13.8297 47.1152 12.8095C47.0642 11.7533 47.191 10.6959 47.4904 9.68121C47.7228 8.80876 48.073 7.97164 48.5316 7.19273C48.9115 6.56038 49.4034 6.00168 49.9836 5.54368C50.5586 5.10243 51.1974 4.75024 51.8784 4.49905C52.6544 4.21454 53.4476 3.97902 54.2535 3.79391C54.6977 3.70701 55.1496 3.6639 55.6023 3.6652C56.0824 3.66657 56.5614 3.71026 57.0338 3.79578C57.9691 3.95463 58.8663 4.28617 59.679 4.77326C60.2653 5.09323 60.7638 5.55118 61.131 6.10705C61.3096 6.41931 61.4088 6.77023 61.4199 7.1293C61.4327 7.48981 61.3416 7.84645 61.1573 8.15715C60.9916 8.5251 60.69 8.81564 60.3149 8.96862C59.9114 9.116 59.4711 9.13168 59.058 9.01339C58.8711 8.97415 58.6943 8.89734 58.5383 8.78767C58.357 8.66331 58.1694 8.52837 57.9755 8.38287C57.7531 8.22251 57.5192 8.07849 57.2758 7.95195C56.945 7.79179 56.589 7.68956 56.2233 7.64976C55.7785 7.59563 55.3287 7.59563 54.8838 7.64976C54.428 7.69796 53.9818 7.81235 53.5593 7.98927C52.9338 8.30248 52.4164 8.79417 52.0735 9.4014C51.7209 10.0063 51.4842 10.6711 51.3756 11.362C51.2671 12.06 51.2881 12.7719 51.4375 13.4624C51.5711 14.1419 51.8823 14.7744 52.3399 15.2962C52.7068 15.7096 53.1592 16.0392 53.6663 16.2625C54.1551 16.4945 54.6783 16.647 55.2159 16.7139C55.6819 16.7686 56.1531 16.7617 56.6173 16.6934C57.0685 16.6281 57.5139 16.5277 57.9493 16.393H57.9736C58.3455 16.2347 58.7075 16.0547 59.058 15.8539C59.3696 15.6699 59.7122 15.5435 60.0692 15.4808C60.3873 15.4608 60.7007 15.5645 60.9434 15.77C61.1661 15.979 61.3282 16.2439 61.4124 16.5367C61.5011 16.8518 61.5172 17.1827 61.4593 17.5048Z" fill="#335271"/>
<path d="M80.102 7.61971C79.7401 6.91079 79.2735 6.26085 78.7181 5.69189C78.1009 5.08823 77.384 4.59664 76.5993 4.23899C75.5682 3.7701 74.4492 3.52815 73.3172 3.52943C72.7856 3.52977 72.2551 3.58132 71.7333 3.68335C70.9011 3.84605 70.0933 4.11609 69.3302 4.48677C68.3588 4.95462 67.5044 5.63521 66.8298 6.47841C66.1285 7.34189 65.5862 8.48694 65.2178 9.87978C64.8745 11.1234 64.7974 12.4259 64.9915 13.7016C65.1639 14.8861 65.5859 16.0201 66.2295 17.0279C66.8779 18.0091 67.7432 18.8269 68.7579 19.4175C69.869 20.0591 71.1198 20.4175 72.4009 20.4612C73.1943 20.5304 73.9933 20.5014 74.7797 20.3748C75.5587 20.256 76.3173 20.0279 77.0331 19.6972C77.5723 19.436 78.0752 19.1053 78.5292 18.7136C78.988 18.3225 79.3864 17.8651 79.7111 17.3564C80.3869 16.2283 80.8704 14.995 81.1418 13.7073C81.4176 12.4306 81.3583 11.104 80.9697 9.85725C80.766 9.08077 80.4749 8.33009 80.102 7.61971ZM76.6573 14.0245C76.3508 14.7472 75.8732 15.3838 75.2659 15.8791C74.7098 16.3391 74.0097 16.5871 73.2892 16.5793C73.2131 16.5793 73.1365 16.5793 73.0592 16.5793C72.3668 16.5305 71.6855 16.3787 71.0376 16.1288C70.3625 15.8678 69.8818 15.53 69.6107 15.1189C69.2997 14.6457 69.0738 14.1216 68.9431 13.5702C68.8049 13.0102 68.76 12.4311 68.8103 11.8564C68.8588 11.2942 68.9846 10.7414 69.1843 10.2139C69.3744 9.6954 69.6809 9.2278 70.0801 8.84735C70.5116 8.44853 71.0257 8.15046 71.5855 7.97449C72.1534 7.78593 72.7491 7.69579 73.3472 7.70793C73.9404 7.71758 74.5258 7.84518 75.0695 8.08336C75.6256 8.32537 76.0916 8.73721 76.401 9.26033C76.8324 9.97676 77.0691 10.7942 77.0874 11.6311C77.1207 12.4509 76.9739 13.2681 76.6573 14.0245Z" fill="#335271"/>
<path d="M100.924 9.85862C100.718 9.08153 100.423 8.33065 100.047 7.62059C99.6855 6.91152 99.2191 6.26144 98.6639 5.69236C98.0469 5.08857 97.3302 4.59688 96.5458 4.23914C95.5152 3.77015 94.3965 3.52815 93.265 3.52943C92.7335 3.52977 92.2033 3.58133 91.6816 3.68339C90.8509 3.84699 90.0448 4.11772 89.2832 4.48885C88.3122 4.95675 87.458 5.63749 86.7838 6.48092C86.0827 7.34459 85.5406 8.48989 85.1723 9.88303C84.8293 11.127 84.7523 12.4297 84.9461 13.7057C85.1216 14.8905 85.5467 16.0241 86.193 17.0308C86.838 18.0109 87.699 18.8287 88.7093 19.4209C89.8225 20.0625 91.0755 20.4197 92.3583 20.4611C93.1515 20.5305 93.9501 20.5014 94.7362 20.3747C95.515 20.2558 96.2733 20.0277 96.9889 19.6969C97.5279 19.4358 98.0307 19.105 98.4844 18.7131C98.9431 18.322 99.3413 17.8645 99.6659 17.3556C100.342 16.2274 100.826 14.9938 101.098 13.7057C101.372 12.4298 101.312 11.1043 100.924 9.85862ZM96.6038 14.0268C96.2974 14.7496 95.82 15.3864 95.2129 15.8818C94.6571 16.3419 93.9572 16.5899 93.237 16.5821C93.161 16.5821 93.0843 16.5821 93.007 16.5821C92.3149 16.5333 91.6339 16.3814 90.9862 16.1315C90.3113 15.8705 89.8309 15.5307 89.5598 15.1214C89.2488 14.6483 89.0229 14.124 88.8925 13.5724C88.7545 13.0122 88.7096 12.433 88.7597 11.8582C88.8084 11.2959 88.9342 10.743 89.1336 10.2154C89.3237 9.69673 89.6301 9.22903 90.0291 8.8485C90.4604 8.4496 90.9743 8.15146 91.5339 7.97545C92.1016 7.78678 92.6971 7.69661 93.2949 7.70883C93.8885 7.71824 94.4744 7.84587 95.0185 8.08434C95.5743 8.32651 96.0401 8.73842 96.3495 9.26156C96.7807 9.97819 97.0172 10.7958 97.0356 11.6329C97.0689 12.4529 96.9222 13.2702 96.6056 14.0268H96.6038Z" fill="#335271"/>
</svg>
