<svg width="139" height="24" viewBox="0 0 139 24" fill="none" xmlns="http://www.w3.org/2000/svg">
<path d="M45.0834 9.39134C45.0834 6.94955 43.3301 5.21587 40.5018 5.21587C38.2103 5.21587 36.5702 6.28077 36.5702 8.0375C36.5702 12.9048 48.7898 8.95996 48.7898 17.5415C48.7898 21.66 45.2539 23.9933 40.7282 23.9933C36.9353 23.9933 33.7778 22.2908 32.5921 19.1463L35.8069 15.8716C35.8069 18.78 37.672 20.6195 40.7282 20.6195C43.1263 20.6195 44.9142 19.4963 44.9142 17.6826C44.9142 12.7569 32.6947 16.7031 32.6947 8.29253C32.6947 4.40465 36.2025 1.84213 40.5018 1.84213C44.3653 1.84213 47.0591 3.72502 48.1116 6.30247L45.0834 9.39134Z" fill="white"/>
<path d="M54.5157 2.88271V8.58022H58.6457V11.7559H54.5157V18.4383C54.5157 20.1367 55.1099 20.5694 56.5248 20.5694C57.1805 20.5479 57.8334 20.4707 58.4766 20.3388V23.5945C57.9676 23.7953 56.4968 23.9404 56.0159 23.9404C52.6492 23.9404 50.8387 22.4998 50.8387 18.9578V11.7559H48.1742V8.58565H50.8387V6.6295L54.5157 2.88271Z" fill="white"/>
<path d="M134.683 2.88271V8.58022H138.813V11.7559H134.683V18.4383C134.683 20.1367 135.278 20.5694 136.692 20.5694C137.348 20.5479 138.001 20.4707 138.644 20.3388V23.5945C138.135 23.7953 136.664 23.9404 136.184 23.9404C132.817 23.9404 131.006 22.4998 131.006 18.9578V11.7559H128.342V8.58565H131.006V6.6295L134.683 2.88271Z" fill="white"/>
<path d="M90.6942 12.2984L87.4409 14.2274C87.1025 12.5276 85.5757 11.4628 83.7652 11.4628C81.3671 11.4628 79.6631 13.1327 79.6631 16.0126C79.6631 18.8926 81.3324 20.5734 83.7652 20.5734C85.5184 20.5734 87.0172 19.3918 87.4409 17.8942L90.609 19.7662C89.6191 22.1564 87.0452 24 83.7652 24C79.041 24 75.8449 20.7443 75.8449 16.0221C75.8449 11.3285 79.1542 8.04425 83.7652 8.04425C87.0172 8.03747 89.7324 9.88102 90.6942 12.2984Z" fill="white"/>
<path d="M95.3011 2.39571V14.0892L100.817 8.58837H105.738L99.4018 14.838L105.879 23.5579H101.383L96.8279 17.3652L95.3011 18.8574V23.5579H91.624V2.39571H95.3011Z" fill="white"/>
<path d="M110.279 2.39565V10.1687C111.41 8.87317 113.022 8.03754 115.173 8.03754C119.528 8.03754 122.583 11.494 122.583 16.0737C122.583 20.5951 119.528 23.9933 115.145 23.9933C112.994 23.9933 111.382 23.1577 110.251 21.8621V23.5578H106.602V2.39565H110.279ZM114.437 20.5978C116.926 20.5978 118.764 18.7828 118.764 16.0765C118.764 13.3118 116.926 11.4398 114.437 11.4398C112.09 11.4398 110.166 13.2535 110.166 16.0765C110.166 18.8384 112.096 20.5951 114.437 20.5951V20.5978Z" fill="white"/>
<path d="M123.571 2.39565H127.39V6.13973H123.571V2.39565ZM127.302 8.5883V23.5578H123.625V8.58559L127.302 8.5883Z" fill="white"/>
<path d="M4.34451 0C3.77342 -6.8353e-07 3.20794 0.114646 2.6804 0.337382C2.15287 0.560119 1.67363 0.886573 1.27012 1.29807C0.86661 1.70957 0.546737 2.19804 0.328797 2.73553C0.110858 3.27302 -0.000870528 3.849 5.10725e-06 4.4305V11.0654C-6.72111e-05 11.6115 0.148722 12.1469 0.429807 12.6121C0.710891 13.0772 1.11324 13.4537 1.59206 13.6998L7.24751 16.5906V7.37285H16.2936L23.5198 0H4.34451Z" fill="#EFEFEF"/>
<path d="M19.1899 23.9648C20.3419 23.9645 21.4466 23.4982 22.2611 22.6687C23.0756 21.8391 23.5331 20.7141 23.5331 19.5411V12.9049C23.5326 12.3582 23.3828 11.8224 23.1005 11.3574C22.8182 10.8925 22.4144 10.5166 21.9344 10.2718L16.2936 7.37285V16.5906H7.24753L0.014679 23.9648H19.1899Z" fill="#EFEFEF"/>
<path d="M74.8305 23.5581H74.1537H71.2854L71.3413 21.6806C70.2076 23.067 68.5342 23.9868 66.2934 23.9868C61.8969 23.9868 58.8327 20.5791 58.8327 16.0455C58.8327 11.4536 61.8676 7.98761 66.2641 7.98761C68.3957 7.98761 70.0077 8.8246 71.1415 10.0957V8.54108H74.8292L74.8305 23.5581ZM66.9702 20.5805C69.3243 20.5805 71.2814 18.817 71.2814 16.0469C71.2814 13.2158 69.3243 11.3966 66.9702 11.3966C64.5028 11.3966 62.659 13.2741 62.659 16.0469C62.6696 18.7654 64.5068 20.5845 66.9742 20.5845L66.9702 20.5805Z" fill="white"/>
</svg>
