<svg width="139" height="25" viewBox="0 0 139 25" fill="none" xmlns="http://www.w3.org/2000/svg">
<path d="M45.0834 10.2141C45.0834 7.77229 43.3301 6.03862 40.5018 6.03862C38.2103 6.03862 36.5702 7.10351 36.5702 8.86025C36.5702 13.7276 48.7898 9.78271 48.7898 18.3642C48.7898 22.4827 45.2539 24.816 40.7282 24.816C36.9353 24.816 33.7778 23.1135 32.5921 19.969L35.8069 16.6943C35.8069 19.6028 37.672 21.4423 40.7282 21.4423C43.1263 21.4423 44.9142 20.319 44.9142 18.5053C44.9142 13.5797 32.6947 17.5259 32.6947 9.11528C32.6947 5.2274 36.2025 2.66488 40.5018 2.66488C44.3653 2.66488 47.0591 4.54777 48.1116 7.12522L45.0834 10.2141Z" fill="#02001D"/>
<path d="M54.5157 3.70547V9.40299H58.6457V12.5787H54.5157V19.261C54.5157 20.9594 55.1099 21.3922 56.5248 21.3922C57.1805 21.3706 57.8334 21.2935 58.4766 21.1616V24.4173C57.9676 24.6181 56.4968 24.7632 56.0159 24.7632C52.6492 24.7632 50.8387 23.3226 50.8387 19.7806V12.5787H48.1742V9.40841H50.8387V7.45226L54.5157 3.70547Z" fill="#02001D"/>
<path d="M134.683 3.70547V9.40299H138.813V12.5787H134.683V19.261C134.683 20.9594 135.278 21.3922 136.692 21.3922C137.348 21.3706 138.001 21.2935 138.644 21.1616V24.4173C138.135 24.6181 136.664 24.7632 136.184 24.7632C132.817 24.7632 131.006 23.3226 131.006 19.7806V12.5787H128.342V9.40841H131.006V7.45226L134.683 3.70547Z" fill="#02001D"/>
<path d="M90.6942 13.1211L87.4409 15.0502C87.1025 13.3504 85.5757 12.2855 83.7652 12.2855C81.3671 12.2855 79.6631 13.9554 79.6631 16.8354C79.6631 19.7153 81.3324 21.3961 83.7652 21.3961C85.5184 21.3961 87.0172 20.2146 87.4409 18.7169L90.609 20.589C89.6191 22.9792 87.0452 24.8228 83.7652 24.8228C79.041 24.8228 75.8449 21.567 75.8449 16.8449C75.8449 12.1512 79.1542 8.867 83.7652 8.867C87.0172 8.86022 89.7324 10.7038 90.6942 13.1211Z" fill="#02001D"/>
<path d="M95.3011 3.21846V14.9119L100.817 9.41112H105.738L99.4018 15.6607L105.879 24.3807H101.383L96.8279 18.188L95.3011 19.6802V24.3807H91.624V3.21846H95.3011Z" fill="#02001D"/>
<path d="M110.279 3.2184V10.9914C111.41 9.69592 113.022 8.86029 115.173 8.86029C119.528 8.86029 122.583 12.3168 122.583 16.8965C122.583 21.4179 119.528 24.816 115.145 24.816C112.994 24.816 111.382 23.9804 110.251 22.6849V24.3806H106.602V3.2184H110.279ZM114.437 21.4206C116.926 21.4206 118.764 19.6055 118.764 16.8992C118.764 14.1346 116.926 12.2625 114.437 12.2625C112.09 12.2625 110.166 14.0762 110.166 16.8992C110.166 19.6611 112.096 21.4179 114.437 21.4179V21.4206Z" fill="#02001D"/>
<path d="M123.571 3.2184H127.39V6.96248H123.571V3.2184ZM127.302 9.41106V24.3806H123.625V9.40834L127.302 9.41106Z" fill="#02001D"/>
<path d="M4.34451 0.822754C3.77342 0.822753 3.20794 0.9374 2.6804 1.16014C2.15287 1.38287 1.67363 1.70933 1.27012 2.12083C0.86661 2.53232 0.546737 3.02079 0.328797 3.55829C0.110858 4.09578 -0.000870528 4.67175 5.10725e-06 5.25325V11.8881C-6.72111e-05 12.4343 0.148722 12.9697 0.429807 13.4348C0.710891 13.8999 1.11324 14.2765 1.59206 14.5226L7.24751 17.4134V8.19561H16.2936L23.5198 0.822754H4.34451Z" fill="#FF364E"/>
<path d="M19.1899 24.7876C20.3419 24.7872 21.4466 24.321 22.2611 23.4914C23.0756 22.6619 23.5331 21.5369 23.5331 20.3639V13.7276C23.5326 13.1809 23.3828 12.6452 23.1005 12.1802C22.8182 11.7152 22.4144 11.3393 21.9344 11.0946L16.2936 8.1956V17.4134H7.24753L0.014679 24.7876H19.1899Z" fill="#FF364E"/>
<path d="M74.8305 24.3809H74.1537H71.2854L71.3413 22.5034C70.2076 23.8898 68.5342 24.8095 66.2934 24.8095C61.8969 24.8095 58.8327 21.4019 58.8327 16.8683C58.8327 12.2764 61.8676 8.81037 66.2641 8.81037C68.3957 8.81037 70.0077 9.64736 71.1415 10.9185V9.36384H74.8292L74.8305 24.3809ZM66.9702 21.4032C69.3243 21.4032 71.2814 19.6397 71.2814 16.8696C71.2814 14.0385 69.3243 12.2194 66.9702 12.2194C64.5028 12.2194 62.659 14.0968 62.659 16.8696C62.6696 19.5882 64.5068 21.4073 66.9742 21.4073L66.9702 21.4032Z" fill="#02001D"/>
</svg>
