<svg width="103" height="25" viewBox="0 0 103 25" fill="none" xmlns="http://www.w3.org/2000/svg">
<g clip-path="url(#clip0_208_454)">
<path d="M48.344 7.66927V19.2077H46.4057V17.5467C45.4945 18.8394 44.4203 19.4856 42.6689 19.4856C39.3996 19.4856 38.3016 17.3616 38.3016 14.5005V7.66927H40.3566V14.5005C40.3566 16.3231 40.8941 17.6394 43.0192 17.6394C45.6814 17.6394 46.3352 15.4697 46.3352 13.0467V7.66927H48.344ZM56.5298 7.3923C56.9273 7.3923 57.3 7.43845 57.6741 7.50768V9.60768C57.2775 9.51537 56.9273 9.46922 56.5064 9.46922C53.8915 9.46922 53.0741 11.2231 53.0741 13.8312V19.2086H51.0649V7.66922H53.0031V9.39999C53.7271 8.13076 54.8951 7.3923 56.5298 7.3923ZM59.5174 19.2083V3.05402H61.5724V19.2083H59.5174ZM70.2137 9.7694C68.1353 9.7694 66.7108 11.2002 66.7108 13.4386C66.7108 15.6776 68.1353 17.1079 70.2137 17.1079C72.3158 17.1079 73.717 15.6074 73.717 13.4386C73.717 11.2694 72.3158 9.7694 70.2137 9.7694ZM66.8276 3.05356V9.33094C67.715 8.22325 69.0227 7.39248 70.8671 7.39248C73.8809 7.39248 76.3091 9.63094 76.3091 13.4386C76.3091 17.2233 73.8809 19.4852 70.8451 19.4852C69.0227 19.4852 67.6921 18.7232 66.8276 17.5694V19.2083H64.306V3.05356H66.8276ZM83.8606 9.8156C81.7585 9.8156 80.2639 11.2925 80.2639 13.4391C80.2639 15.5848 81.7585 17.0622 83.8606 17.0622C85.9624 17.0622 87.4569 15.5848 87.4569 13.4391C87.4569 11.2925 85.9624 9.8156 83.8606 9.8156ZM83.8606 7.39253C87.4111 7.39253 90.0495 9.90791 90.0495 13.4391C90.0495 16.9694 87.4111 19.4853 83.8606 19.4853C80.3111 19.4853 77.6718 16.9694 77.6718 13.4391C77.6718 9.90791 80.3111 7.39253 83.8606 7.39253ZM96.3235 15.3313L93.2873 19.2078H90.2281L94.8056 13.3933L90.2986 7.66885H93.3807L96.3469 11.4309L99.2902 7.66885H102.348L97.8648 13.3698L102.443 19.2078H99.3593L96.3235 15.3313Z" fill="black"/>
<mask id="mask0_208_454" style="mask-type:alpha" maskUnits="userSpaceOnUse" x="0" y="-2" width="28" height="27">
<path d="M22.2153 0.484036L27.5591 9.85327C28.1368 10.8661 28.1368 12.1037 27.5591 13.1166L22.2153 22.4858C21.6193 23.5308 20.4996 24.1772 19.2858 24.1772H8.73688C7.52305 24.1772 6.40344 23.5308 5.80743 22.4858L0.463584 13.1166C-0.114123 12.1037 -0.114123 10.8661 0.463584 9.85327L5.80743 0.484036C6.40344 -0.560923 7.52305 -1.20737 8.73688 -1.20737H19.2858C20.4996 -1.20737 21.6193 -0.560923 22.2153 0.484036Z" fill="white"/>
</mask>
<g mask="url(#mask0_208_454)">
<path d="M14.0113 11.4849H14.6848L7.44555 24.1773H6.77213L-0.467072 11.4849L5.30741 1.3607C5.76336 0.56129 6.78876 0.278506 7.5977 0.729081C7.8651 0.878019 8.08614 1.09645 8.23686 1.3607L14.0113 11.4849Z" fill="black"/>
</g>
<mask id="mask1_208_454" style="mask-type:alpha" maskUnits="userSpaceOnUse" x="0" y="-2" width="28" height="27">
<path d="M22.2153 0.484036L27.5591 9.85327C28.1368 10.8661 28.1368 12.1037 27.5591 13.1166L22.2153 22.4858C21.6193 23.5308 20.4996 24.1772 19.2858 24.1772H8.73688C7.52305 24.1772 6.40344 23.5308 5.80743 22.4858L0.463584 13.1166C-0.114123 12.1037 -0.114123 10.8661 0.463584 9.85327L5.80743 0.484036C6.40344 -0.560923 7.52305 -1.20737 8.73688 -1.20737H19.2858C20.4996 -1.20737 21.6193 -0.560923 22.2153 0.484036Z" fill="white"/>
</mask>
<g mask="url(#mask1_208_454)">
<path d="M22.7153 1.3607L28.4898 11.4849V12.153H14.0114V11.4849L19.7858 1.3607C20.2418 0.56129 21.2672 0.278506 22.0761 0.729081C22.3435 0.878019 22.5646 1.09645 22.7153 1.3607Z" fill="black"/>
</g>
<mask id="mask2_208_454" style="mask-type:alpha" maskUnits="userSpaceOnUse" x="0" y="-2" width="28" height="27">
<path d="M22.2153 0.484036L27.5591 9.85327C28.1368 10.8661 28.1368 12.1037 27.5591 13.1166L22.2153 22.4858C21.6193 23.5308 20.4996 24.1772 19.2858 24.1772H8.73688C7.52305 24.1772 6.40344 23.5308 5.80743 22.4858L0.463584 13.1166C-0.114123 12.1037 -0.114123 10.8661 0.463584 9.85327L5.80743 0.484036C6.40344 -0.560923 7.52305 -1.20737 8.73688 -1.20737H19.2858C20.4996 -1.20737 21.6193 -0.560923 22.2153 0.484036Z" fill="white"/>
</mask>
<g mask="url(#mask2_208_454)">
<path d="M14.0114 11.4849H28.4898L21.2506 24.1772H6.77216L14.0114 11.4849Z" fill="black"/>
</g>
<mask id="mask3_208_454" style="mask-type:alpha" maskUnits="userSpaceOnUse" x="0" y="-2" width="28" height="26">
<path d="M22.2153 0.30679L27.5591 9.67602C28.1368 10.6889 28.1368 11.9265 27.5591 12.9394L22.2153 22.3086C21.6193 23.3536 20.4996 24 19.2858 24H8.73688C7.52305 24 6.40344 23.3536 5.80743 22.3086L0.463584 12.9394C-0.114123 11.9265 -0.114123 10.6889 0.463584 9.67602L5.80743 0.30679C6.40344 -0.738169 7.52305 -1.38461 8.73688 -1.38461H19.2858C20.4996 -1.38461 21.6193 -0.738169 22.2153 0.30679Z" fill="white"/>
</mask>
<g mask="url(#mask3_208_454)">
<path d="M14.0113 11.3077H14.6848L7.44555 24H6.77213L-0.467072 11.3077L5.30741 1.18345C5.76336 0.384044 6.78876 0.10126 7.5977 0.551835C7.8651 0.700773 8.08614 0.919205 8.23686 1.18345L14.0113 11.3077Z" fill="url(#paint0_linear_208_454)"/>
</g>
<mask id="mask4_208_454" style="mask-type:alpha" maskUnits="userSpaceOnUse" x="0" y="-2" width="28" height="26">
<path d="M22.2153 0.30679L27.5591 9.67602C28.1368 10.6889 28.1368 11.9265 27.5591 12.9394L22.2153 22.3086C21.6193 23.3536 20.4996 24 19.2858 24H8.73688C7.52305 24 6.40344 23.3536 5.80743 22.3086L0.463584 12.9394C-0.114123 11.9265 -0.114123 10.6889 0.463584 9.67602L5.80743 0.30679C6.40344 -0.738169 7.52305 -1.38461 8.73688 -1.38461H19.2858C20.4996 -1.38461 21.6193 -0.738169 22.2153 0.30679Z" fill="white"/>
</mask>
<g mask="url(#mask4_208_454)">
<path d="M22.7153 1.18345L28.4898 11.3077V11.9757H14.0114V11.3077L19.7858 1.18345C20.2418 0.384044 21.2672 0.10126 22.0761 0.551835C22.3435 0.700773 22.5646 0.919205 22.7153 1.18345Z" fill="url(#paint1_linear_208_454)"/>
</g>
<mask id="mask5_208_454" style="mask-type:alpha" maskUnits="userSpaceOnUse" x="0" y="-2" width="28" height="26">
<path d="M22.2153 0.30679L27.5591 9.67602C28.1368 10.6889 28.1368 11.9265 27.5591 12.9394L22.2153 22.3086C21.6193 23.3536 20.4996 24 19.2858 24H8.73688C7.52305 24 6.40344 23.3536 5.80743 22.3086L0.463584 12.9394C-0.114123 11.9265 -0.114123 10.6889 0.463584 9.67602L5.80743 0.30679C6.40344 -0.738169 7.52305 -1.38461 8.73688 -1.38461H19.2858C20.4996 -1.38461 21.6193 -0.738169 22.2153 0.30679Z" fill="white"/>
</mask>
<g mask="url(#mask5_208_454)">
<path d="M14.0114 11.3077H28.4898L21.2506 24H6.77216L14.0114 11.3077Z" fill="url(#paint2_linear_208_454)"/>
</g>
</g>
<defs>
<linearGradient id="paint0_linear_208_454" x1="4.28476" y1="0.337456" x2="16.0029" y2="20.4663" gradientUnits="userSpaceOnUse">
<stop stop-color="#575757"/>
<stop offset="1" stop-color="#2B2B2B"/>
</linearGradient>
<linearGradient id="paint1_linear_208_454" x1="21.2506" y1="2.30562" x2="15.8827" y2="11.1441" gradientUnits="userSpaceOnUse">
<stop stop-color="#575757"/>
<stop offset="1" stop-color="#2B2B2B"/>
</linearGradient>
<linearGradient id="paint2_linear_208_454" x1="14.0111" y1="15.4343" x2="17.9133" y2="22.0716" gradientUnits="userSpaceOnUse">
<stop stop-color="#575757"/>
<stop offset="1" stop-color="#2B2B2B"/>
</linearGradient>
<clipPath id="clip0_208_454">
<rect width="102.75" height="24" fill="white" transform="translate(0 0.177246)"/>
</clipPath>
</defs>
</svg>
