<svg width="103" height="24" viewBox="0 0 103 24" fill="none" xmlns="http://www.w3.org/2000/svg">
<g clip-path="url(#clip0_205_28)">
<path d="M48.344 7.49202V19.0305H46.4057V17.3694C45.4945 18.6622 44.4203 19.3083 42.6689 19.3083C39.3996 19.3083 38.3016 17.1843 38.3016 14.3232V7.49202H40.3566V14.3232C40.3566 16.1459 40.8941 17.4622 43.0192 17.4622C45.6814 17.4622 46.3352 15.2925 46.3352 12.8694V7.49202H48.344ZM56.5298 7.21505C56.9273 7.21505 57.3 7.2612 57.6741 7.33043V9.43043C57.2775 9.33812 56.9273 9.29197 56.5064 9.29197C53.8915 9.29197 53.0741 11.0458 53.0741 13.654V19.0314H51.0649V7.49197H53.0031V9.22274C53.7271 7.95351 54.8951 7.21505 56.5298 7.21505ZM59.5174 19.0311V2.87677H61.5724V19.0311H59.5174ZM70.2137 9.59215C68.1353 9.59215 66.7108 11.0229 66.7108 13.2614C66.7108 15.5003 68.1353 16.9306 70.2137 16.9306C72.3158 16.9306 73.717 15.4302 73.717 13.2614C73.717 11.0922 72.3158 9.59215 70.2137 9.59215ZM66.8276 2.87631V9.15369C67.715 8.046 69.0227 7.21523 70.8671 7.21523C73.8809 7.21523 76.3091 9.45369 76.3091 13.2614C76.3091 17.046 73.8809 19.308 70.8451 19.308C69.0227 19.308 67.6921 18.546 66.8276 17.3922V19.0311H64.306V2.87631H66.8276ZM83.8606 9.63835C81.7585 9.63835 80.2639 11.1153 80.2639 13.2619C80.2639 15.4076 81.7585 16.885 83.8606 16.885C85.9624 16.885 87.4569 15.4076 87.4569 13.2619C87.4569 11.1153 85.9624 9.63835 83.8606 9.63835ZM83.8606 7.21528C87.4111 7.21528 90.0495 9.73066 90.0495 13.2619C90.0495 16.7922 87.4111 19.308 83.8606 19.308C80.3111 19.308 77.6718 16.7922 77.6718 13.2619C77.6718 9.73066 80.3111 7.21528 83.8606 7.21528ZM96.3235 15.1541L93.2873 19.0305H90.2281L94.8056 13.2161L90.2986 7.4916H93.3807L96.3469 11.2536L99.2902 7.4916H102.348L97.8648 13.1925L102.443 19.0305H99.3593L96.3235 15.1541Z" fill="black"/>
<mask id="mask0_205_28" style="mask-type:alpha" maskUnits="userSpaceOnUse" x="0" y="-2" width="28" height="26">
<path d="M22.2153 0.306788L27.5591 9.67602C28.1368 10.6889 28.1368 11.9265 27.5591 12.9394L22.2153 22.3086C21.6193 23.3536 20.4996 24 19.2858 24H8.73688C7.52305 24 6.40344 23.3536 5.80743 22.3086L0.463584 12.9394C-0.114123 11.9265 -0.114123 10.6889 0.463584 9.67602L5.80743 0.306788C6.40344 -0.738171 7.52305 -1.38461 8.73688 -1.38461H19.2858C20.4996 -1.38461 21.6193 -0.738171 22.2153 0.306788Z" fill="white"/>
</mask>
<g mask="url(#mask0_205_28)">
<path d="M14.0113 11.3077H14.6848L7.44555 24H6.77213L-0.467072 11.3077L5.30741 1.18345C5.76336 0.38404 6.78876 0.101256 7.5977 0.551831C7.8651 0.700769 8.08614 0.919201 8.23686 1.18345L14.0113 11.3077Z" fill="url(#paint0_linear_205_28)"/>
</g>
<mask id="mask1_205_28" style="mask-type:alpha" maskUnits="userSpaceOnUse" x="0" y="-2" width="28" height="26">
<path d="M22.2153 0.306788L27.5591 9.67602C28.1368 10.6889 28.1368 11.9265 27.5591 12.9394L22.2153 22.3086C21.6193 23.3536 20.4996 24 19.2858 24H8.73688C7.52305 24 6.40344 23.3536 5.80743 22.3086L0.463584 12.9394C-0.114123 11.9265 -0.114123 10.6889 0.463584 9.67602L5.80743 0.306788C6.40344 -0.738171 7.52305 -1.38461 8.73688 -1.38461H19.2858C20.4996 -1.38461 21.6193 -0.738171 22.2153 0.306788Z" fill="white"/>
</mask>
<g mask="url(#mask1_205_28)">
<path d="M22.7153 1.18345L28.4898 11.3077V11.9757H14.0114V11.3077L19.7858 1.18345C20.2418 0.38404 21.2672 0.101256 22.0761 0.551831C22.3435 0.700769 22.5646 0.919201 22.7153 1.18345Z" fill="url(#paint1_linear_205_28)"/>
</g>
<mask id="mask2_205_28" style="mask-type:alpha" maskUnits="userSpaceOnUse" x="0" y="-2" width="28" height="26">
<path d="M22.2153 0.306788L27.5591 9.67602C28.1368 10.6889 28.1368 11.9265 27.5591 12.9394L22.2153 22.3086C21.6193 23.3536 20.4996 24 19.2858 24H8.73688C7.52305 24 6.40344 23.3536 5.80743 22.3086L0.463584 12.9394C-0.114123 11.9265 -0.114123 10.6889 0.463584 9.67602L5.80743 0.306788C6.40344 -0.738171 7.52305 -1.38461 8.73688 -1.38461H19.2858C20.4996 -1.38461 21.6193 -0.738171 22.2153 0.306788Z" fill="white"/>
</mask>
<g mask="url(#mask2_205_28)">
<path d="M14.0114 11.3077H28.4898L21.2506 24H6.77216L14.0114 11.3077Z" fill="url(#paint2_linear_205_28)"/>
</g>
</g>
<defs>
<linearGradient id="paint0_linear_205_28" x1="4.28476" y1="0.337452" x2="16.0029" y2="20.4663" gradientUnits="userSpaceOnUse">
<stop stop-color="#7381FF"/>
<stop offset="1" stop-color="#3D4FF2"/>
</linearGradient>
<linearGradient id="paint1_linear_205_28" x1="21.2506" y1="2.30562" x2="15.8827" y2="11.1441" gradientUnits="userSpaceOnUse">
<stop stop-color="#3646D6"/>
<stop offset="1" stop-color="#00109C"/>
</linearGradient>
<linearGradient id="paint2_linear_205_28" x1="14.0111" y1="15.4343" x2="17.9133" y2="22.0716" gradientUnits="userSpaceOnUse">
<stop stop-color="#3A4BE8"/>
<stop offset="1" stop-color="#2D3BB5"/>
</linearGradient>
<clipPath id="clip0_205_28">
<rect width="102.75" height="24" fill="white"/>
</clipPath>
</defs>
</svg>
